
<svg xmlns="http://www.w3.org/2000/svg" viewBox="0 0 372.21 371.53">
   <defs>
      <style>
      .cls-1{fill:#529b38;}
      </style>
   </defs>
   <g id="Layer_2" data-name="Layer 2">
      <g id="Layer_1-2" data-name="Layer 1">
         <path class="cls-1" d="M252.15,60c-7.05,0-13.65-.05-20.25.06a4.15,4.15,0,0,0-2.51,1.28c-5.27,5.16-10.52,10.32-15.61,15.65a4.88,4.88,0,0,0-1.14,3.86c6.8,26.67,3.67,52.17-8.64,76.67a13.11,13.11,0,0,0-.45,1.28c6.67,6.64,13.37,13.34,20.13,20a3.71,3.71,0,0,0,2.28,1c8.59.07,17.19,0,26.19,0,0-10-.35-19.71.17-29.38A25.53,25.53,0,0,1,256.07,139c3-4.82,8-7.08,13.75-7.09,28.25-.06,56.5-.11,84.74,0a17.58,17.58,0,0,1,17.53,17.44q.23,36.49,0,73a17.49,17.49,0,0,1-17.29,17.27q-42.57.22-85.13,0c-9.78-.05-17.36-8-17.48-17.88s0-19.67,0-30c-6.34,0-12.5-.65-18.47.15-10.28,1.37-17.92-1.94-24.18-10.09-3.55-4.61-8.15-8.4-12.5-12.78a110,110,0,0,1-37.38,33.59c.77,1.26,1.37,2.33,2,3.35q33.92,51.39,67.79,102.82a5.49,5.49,0,0,0,5.43,2.84c5.6-.17,11.2-.06,17.07-.06.07-1.46.18-2.66.18-3.86,0-8.74-.08-17.48,0-26.21a17.72,17.72,0,0,1,17.57-17.8q42.38-.19,84.75,0a17.63,17.63,0,0,1,17.61,17.74q.18,36.13,0,72.26a17.65,17.65,0,0,1-17.63,17.73q-42.37.19-84.75,0a17.72,17.72,0,0,1-17.55-17.82c-.12-9.85,0-19.69,0-30.05-6.66,0-13.14-.44-19.54.13-5.86.52-9-1.74-12.14-6.58-23.07-35.46-46.5-70.68-69.73-106-1.52-2.32-2.68-2.91-5.61-2.14-9.07,2.4-10,10.2-12.18,17.16-2.14,6.81.53,13.34,1.8,19.88,4.91,25.32,10.33,50.56,14.91,75.94,4,22.25-10.2,43.14-32.09,48.44-21,5.09-42.67-7.26-49.43-28.17-3.06-9.45-2.16-18.91-.21-28.44,5.4-26.38,10.84-52.74,15.81-79.2,1.56-8.35-2.12-15.9-6.63-22.81-.58-.89-2.1-1.25-3.24-1.68-41.19-15.28-65.95-44.5-72.69-87.81C-7.64,65.6,33.83,10.09,90.48,1.51,139.89-6,185.56,18.44,206.57,63.57c.26.57.57,1.11,1.17,2.25,2.82-2.81,5.88-5.19,8.11-8.2,6-8,13.56-11.26,23.52-9.76,4,.61,8.2.1,12.78.1v-7.2c0-7.62-.09-15.23,0-22.84A17.77,17.77,0,0,1,270.09.07q42-.15,84,0a17.71,17.71,0,0,1,18,17.73q.18,36.14,0,72.26a17.72,17.72,0,0,1-18,17.79q-42,.14-84,0c-10.22,0-17.87-7.89-18-18.18C252.08,79.93,252.15,70.21,252.15,60Zm-240,47.63c-.17,52.71,42.73,95.9,95.52,96.15,53,.24,96.33-42.7,96.48-95.57S161.41,12.25,108.61,12C55.62,11.78,12.31,54.68,12.14,107.58Zm300-11.69q20.05,0,40.12,0c5.87,0,7.87-2,7.87-7.87q0-34.08,0-68.15c0-5.86-2-7.85-7.88-7.85H272c-5.88,0-7.87,2-7.87,7.86q0,34.08,0,68.15c0,5.86,2,7.85,7.87,7.86Q292.1,95.91,312.16,95.89Zm.37,47.93q-20.25,0-40.5,0c-5.88,0-7.87,2-7.87,7.86q0,34.07,0,68.14c0,5.87,2,7.86,7.87,7.86h80.25c5.87,0,7.87-2,7.87-7.86q0-34.08,0-68.15c0-5.86-2-7.85-7.88-7.85Q332.41,143.8,312.53,143.82Zm-.38,215.68q20.06,0,40.12,0c5.88,0,7.88-2,7.88-7.86q0-34.08,0-68.15c0-5.87-2-7.86-7.87-7.86H272c-5.88,0-7.87,2-7.87,7.86q0,34.06,0,68.14c0,5.87,2,7.86,7.86,7.87Q292.09,359.53,312.15,359.5ZM121.37,239.69c-8.39,0-16.5-.06-24.6.1-.73,0-1.92,1.37-2.1,2.27-5.48,27-11.13,53.95-16.16,81C75,342.21,89.05,359.3,107.75,359.49c19.25.2,33.64-17.11,30-36.75C132.56,295.18,126.91,267.71,121.37,239.69ZM92.79,215.18,96,227.41h24.34c1.13-4.39,2.19-8.45,3.16-12.23Z"/>
         <path class="cls-1" d="M192.14,107.81a84,84,0,1,1-84-83.81A84.09,84.09,0,0,1,192.14,107.81Zm-156-.11A72,72,0,1,0,108.31,36C68.6,35.92,36.2,68.12,36.14,107.7Z"/>
         <path class="cls-1" d="M276.32,35.79V24.25h71.6V35.79Z"/>
         <path class="cls-1" d="M348,83.75H276.42V72.15H348Z"/>
         <path class="cls-1" d="M300.32,59.68V48.16h47.53V59.68Z"/>
         <path class="cls-1" d="M276.42,48.12H288V59.64H276.42Z"/>
         <path class="cls-1" d="M276.32,167.52V156h71.53v11.52Z"/>
         <path class="cls-1" d="M276.32,191.48V180H348v11.51Z"/>
         <path class="cls-1" d="M323.92,215.65H276.45V204h47.47Z"/>
         <path class="cls-1" d="M347.93,215.65H336.45V204h11.48Z"/>
         <path class="cls-1" d="M347.86,299.46H276.38V287.8h71.48Z"/>
         <path class="cls-1" d="M348,335.81v11.51H276.33V335.81Z"/>
         <path class="cls-1" d="M323.88,323.4H276.36V311.87h47.52Z"/>
         <path class="cls-1" d="M336.34,323.31V311.76h11.53v11.55Z"/>
         <path class="cls-1" d="M126.13,329.67a18,18,0,1,1-17.67-18.08A18.07,18.07,0,0,1,126.13,329.67Zm-18-6.08a6,6,0,1,0,6,5.89A6,6,0,0,0,108.08,323.59Z"/>
         <path class="cls-1" d="M60.3,89.91a18,18,0,1,1-18.15,17.61A18,18,0,0,1,60.3,89.91Zm-.29,12a6,6,0,1,0,6.1,5.83A6,6,0,0,0,60,101.91Z"/>
         <path class="cls-1" d="M126.13,107.75A18,18,0,1,1,108.2,89.91,18.06,18.06,0,0,1,126.13,107.75ZM108,113.83a6,6,0,1,0-5.86-6.06A6,6,0,0,0,108,113.83Z"/>
         <path class="cls-1" d="M174.13,107.86a18,18,0,1,1-17.81-18A18.05,18.05,0,0,1,174.13,107.86Zm-12-.11a6,6,0,1,0-5.84,6.08A6,6,0,0,0,162.11,107.75Z"/>
      </g>
   </g>
</svg>
