<svg xmlns="http://www.w3.org/2000/svg" xmlns:xlink="http://www.w3.org/1999/xlink" viewBox="0 0 500 500"><defs><style>.cls-1{isolation:isolate;}.cls-2{fill:#fff;}.cls-3{fill:#d9e3fe;}.cls-4{fill:#ebf0fc;}.cls-5{opacity:0.57;}.cls-6{fill:#529b38;}.cls-7{fill:#9caaf2;}.cls-8{fill:#3750e2;}.cls-9{fill:#3a4fcc;opacity:0.65;}.cls-24,.cls-9{mix-blend-mode:multiply;}.cls-10{fill:#fdb2d0;}.cls-11{fill:#f78dbe;}.cls-12{fill:#f9835a;}.cls-13{fill:#fcaa24;}.cls-14{fill:#ffc46e;}.cls-15{fill:#1f107e;}.cls-16{fill:#ef8ec3;}.cls-17{fill:#cfd427;}.cls-18{fill:#f973aa;}.cls-19{fill:#6f69c4;}.cls-20{fill:url(#radial-gradient);}.cls-21{fill:url(#radial-gradient-2);}.cls-22{fill:#617893;}.cls-23{fill:#f7c481;}.cls-24{opacity:0.19;}.cls-25{fill:#c69c6d;opacity:0.6;}.cls-26{fill:#426bc6;}.cls-27{fill:#6c90fe;}.cls-28{fill:#5c84ea;}.cls-29{fill:#aac0f9;}.cls-30{fill:#afc4f9;}.cls-31{fill:#5e8fdb;}.cls-32{fill:#a0bdf9;}.cls-33{fill:#b3c2e5;}.cls-34{fill:#f79c8d;}.cls-35{fill:#ef7352;}.cls-36{fill:#f9d298;}.cls-37{fill:#3c59e5;}</style><radialGradient id="radial-gradient" cx="273.99" cy="238.17" r="8.62" gradientUnits="userSpaceOnUse"><stop offset="0" stop-color="#f973b4"/><stop offset="1" stop-color="#fdb2d0"/></radialGradient><radialGradient id="radial-gradient-2" cx="245.9" cy="239.57" r="7.21" gradientUnits="userSpaceOnUse"><stop offset="0" stop-color="#f981bb"/><stop offset="1" stop-color="#fdb2d0"/></radialGradient></defs><g class="cls-1"><g id="Layer_2" data-name="Layer 2"><g id="Layer_1-2" data-name="Layer 1"><rect class="cls-2" width="500" height="500"/><path class="cls-3" d="M485.5,297c-13-29.31-52.2-51.41-59.4-85s7.56-81.44-44.28-110.24S248.26,70.06,230.08,111.82,140.38,113.65,90,153.57c-48.86,38.68-72.09,98.19-72.09,183.71,0,28,21.76,53.14,29.71,70.82H463.45C480.36,352.67,494.85,318.09,485.5,297Z"/><path class="cls-4" d="M468.85,230.3c0,3.88-4.5,7-10,7s-10-3.14-10-7,4.5-7,10-7S468.85,226.42,468.85,230.3Z"/><ellipse class="cls-4" cx="444.76" cy="195.43" rx="14.05" ry="11.01"/><circle class="cls-4" cx="14.62" cy="265.21" r="8.24" transform="translate(-198.75 107.03) rotate(-50.29)"/><ellipse class="cls-4" cx="192.98" cy="117.34" rx="11.41" ry="8.24"/><path class="cls-3" d="M17.86,248.68c1-4.17,2.14-8.3,3.43-12.38s2.69-8.14,4.19-12.17,3.12-8,4.85-11.93c.85-2,1.75-3.93,2.66-5.88l1.4-2.92c.47-1,1-1.93,1.45-2.89s1-1.91,1.49-2.87,1-1.91,1.53-2.85,1-1.9,1.59-2.83l1.63-2.81q3.33-5.58,7.1-10.92l1.93-2.64c.31-.44.65-.87,1-1.3l1-1.29c.34-.43.67-.87,1-1.29l1.06-1.26c.7-.84,1.38-1.7,2.13-2.51s1.46-1.64,2.21-2.44l2.31-2.37c.38-.41.77-.77,1.16-1.15l1.16-1.13c.77-.75,1.57-1.49,2.35-2.23q4.75-4.43,9.8-8.56l2.57-2,2.6-2c1.76-1.29,3.53-2.57,5.35-3.77a117.51,117.51,0,0,1,11.3-6.67c1-.52,2-1,2.95-1.46s2-.93,3-1.37c.51-.21,1-.44,1.52-.64l1.53-.61c.51-.2,1-.42,1.53-.6l1.55-.56c1-.38,2.07-.72,3.12-1s2.1-.63,3.15-.92,2.12-.56,3.18-.82,2.14-.47,3.21-.69,2.15-.38,3.23-.56,2.16-.32,3.24-.45,2.17-.23,3.25-.33,2.17-.15,3.26-.2a93.46,93.46,0,0,1,13,.34c1.07.11,2.14.2,3.2.36l1.6.22q.79.1,1.59.24c1.06.2,2.12.36,3.17.57l3.14.67c-1.07,0-2.14-.07-3.2-.12s-2.13,0-3.2-.06-2.12,0-3.19,0c-.53,0-1.06,0-1.59,0l-1.58,0a114.55,114.55,0,0,0-12.59,1.13,97.15,97.15,0,0,0-24,6.73l-1.43.61c-.47.2-.94.44-1.41.65l-1.4.66c-.48.21-.93.46-1.4.69l-1.38.7c-.47.22-.92.48-1.38.72-.91.49-1.82,1-2.71,1.51-3.59,2.06-7.1,4.3-10.48,6.71s-6.7,4.95-9.9,7.64-6.35,5.45-9.41,8.32c-.77.72-1.54,1.42-2.3,2.16L67.85,167c-.38.36-.77.73-1.13,1.09l-2.16,2.2c-.71.75-1.4,1.52-2.11,2.27-2.78,3.06-5.4,6.29-7.93,9.61s-4.89,6.77-7.22,10.27l-1.71,2.64c-.57.89-1.11,1.79-1.67,2.68s-1.11,1.79-1.65,2.69-1.1,1.8-1.62,2.71l-1.59,2.74-1.57,2.75c-1,1.85-2,3.7-3,5.57q-3,5.6-5.83,11.3Q23,236.9,17.86,248.68Z"/><path class="cls-3" d="M260.84,80.26c2-1,4.14-1.74,6.26-2.49s4.29-1.37,6.45-2c1.09-.28,2.18-.59,3.27-.84l1.65-.39,1.65-.36c1.1-.24,2.21-.45,3.31-.66s2.22-.4,3.34-.59a134.75,134.75,0,0,1,13.46-1.48l1.7-.1.84-.05.85,0,3.4-.09h4.24l.85,0,1.7,0,1.69.06c.57,0,1.13.06,1.7.1,1.13.07,2.26.13,3.39.21,2.26.22,4.52.41,6.76.72l1.69.22.85.1.84.13,3.35.55.84.14.84.16,1.67.33,1.67.33c.55.11,1.11.21,1.66.35,2.21.52,4.43,1,6.61,1.62l3.29.89,3.25,1c2.18.63,4.31,1.43,6.45,2.17,1.08.36,2.13.79,3.19,1.2l3.17,1.24c1,.43,2.08.9,3.12,1.34l1.56.68c.52.23,1.05.45,1.56.7L376,87l1.54.74,1.51.79,3,1.6c1,.55,2,1.14,3,1.71l1.48.86c.49.29,1,.6,1.45.91l2.88,1.84a107.08,107.08,0,0,1,10.83,8.41,79.68,79.68,0,0,1,9.4,10c.35.45.72.89,1.05,1.35l1,1.4c.32.47.67.93,1,1.41l.93,1.45c.31.48.63,1,.92,1.45l.86,1.49.43.74.22.37.2.38.78,1.53a70,70,0,0,1,5,12.73,97.84,97.84,0,0,1,2.7,13.27c.3,2.23.56,4.46.8,6.68s.48,4.45.78,6.67c-.57-2.16-1-4.37-1.49-6.56s-.89-4.38-1.39-6.56c-.24-1.08-.51-2.16-.76-3.25-.13-.54-.28-1.07-.42-1.61s-.27-1.08-.43-1.61c-.3-1.07-.6-2.13-1-3.18-.17-.53-.33-1.06-.51-1.58l-.56-1.56a71.69,71.69,0,0,0-13-22.65c-.71-.83-1.4-1.67-2.17-2.45l-1.12-1.19-.56-.6-.59-.56c-.79-.76-1.56-1.53-2.36-2.27L398.93,107a108.69,108.69,0,0,0-10.55-7.79l-2.8-1.73-1.4-.86-1.44-.81-2.87-1.61-2.94-1.51-1.46-.76-1.49-.7-3-1.42c-.5-.24-1-.44-1.51-.67L368,88.5c-1-.43-2-.88-3-1.3L361.84,86c-1-.41-2-.83-3.1-1.18-2.08-.73-4.14-1.51-6.25-2.15l-3.15-1-3.18-.9c-1.06-.3-2.12-.62-3.19-.87l-3.21-.81c-.53-.14-1.07-.26-1.61-.37l-1.62-.36L334.91,78l-.8-.18-.82-.15L330,77l-.81-.15-.82-.13-1.64-.25c-2.17-.38-4.37-.61-6.56-.9l-3.3-.34c-.55,0-1.1-.12-1.65-.15L313.61,75,312,74.88l-.82-.06-.83,0L307,74.63l-3.31-.06h-3.33c-4.42.05-8.86.26-13.28.68-1.1.11-2.21.2-3.31.34s-2.21.25-3.31.42l-1.65.23-1.65.27c-1.1.17-2.2.37-3.29.56-2.19.41-4.38.86-6.55,1.39S263,79.56,260.84,80.26Z"/><path class="cls-2" d="M105.22,183.62l-2.45-5.3a.57.57,0,0,1,.27-.76h0a.57.57,0,0,1,.76.28l2.46,5.3a.57.57,0,0,1-.28.76h0A.58.58,0,0,1,105.22,183.62Z"/><path class="cls-2" d="M107.4,180l-5.3,2.46a.58.58,0,0,1-.76-.28h0a.58.58,0,0,1,.28-.76l5.3-2.46a.57.57,0,0,1,.76.28h0A.57.57,0,0,1,107.4,180Z"/><path class="cls-2" d="M137.19,274l-2.46-5.3A.57.57,0,0,1,135,268h0a.56.56,0,0,1,.76.28l2.46,5.3a.58.58,0,0,1-.28.76h0A.57.57,0,0,1,137.19,274Z"/><path class="cls-2" d="M139.37,270.44l-5.3,2.46a.58.58,0,0,1-.76-.28h0a.57.57,0,0,1,.28-.76l5.3-2.46a.57.57,0,0,1,.76.28h0A.58.58,0,0,1,139.37,270.44Z"/><path class="cls-2" d="M376.65,266l-2.46-5.3a.57.57,0,0,1,.28-.76h0a.57.57,0,0,1,.76.28l2.46,5.3a.59.59,0,0,1-.28.76h0A.58.58,0,0,1,376.65,266Z"/><path class="cls-2" d="M378.83,262.42l-5.3,2.45a.57.57,0,0,1-.76-.27h0a.57.57,0,0,1,.28-.76l5.3-2.46a.57.57,0,0,1,.76.28h0A.58.58,0,0,1,378.83,262.42Z"/><path class="cls-2" d="M345.41,167.44l1.7-5.59a.57.57,0,0,1,.71-.38h0a.57.57,0,0,1,.38.71l-1.69,5.6a.57.57,0,0,1-.71.38h0A.58.58,0,0,1,345.41,167.44Z"/><path class="cls-2" d="M349.44,166.21l-5.59-1.69a.58.58,0,0,1-.39-.72h0a.58.58,0,0,1,.72-.38l5.59,1.69a.57.57,0,0,1,.38.71h0A.57.57,0,0,1,349.44,166.21Z"/><path class="cls-2" d="M204.05,216.16l-.46-5.83a.57.57,0,0,1,.53-.61h0a.56.56,0,0,1,.61.53l.46,5.82a.58.58,0,0,1-.53.62h0A.57.57,0,0,1,204.05,216.16Z"/><path class="cls-2" d="M207.35,213.55l-5.83.45a.56.56,0,0,1-.61-.53h0a.56.56,0,0,1,.52-.61l5.83-.46a.58.58,0,0,1,.61.53h0A.57.57,0,0,1,207.35,213.55Z"/><g class="cls-5"><path class="cls-2" d="M176.69,179.59c0,3.88-4.5,7-10,7s-10-3.14-10-7,4.49-7,10-7S176.69,175.71,176.69,179.59Z"/><path class="cls-2" d="M356,263.13c0,3.88-4.5,7-10,7s-10-3.14-10-7,4.49-7,10-7S356,259.25,356,263.13Z"/><path class="cls-2" d="M199.74,289.78a7,7,0,1,1-7-7A7,7,0,0,1,199.74,289.78Z"/><path class="cls-2" d="M108.4,289.78a7,7,0,1,1-7-7A7,7,0,0,1,108.4,289.78Z"/><path class="cls-2" d="M233,179.59a5,5,0,1,1-5-5A5,5,0,0,1,233,179.59Z"/><path class="cls-2" d="M395.15,320.42a5,5,0,1,1-5-5A5,5,0,0,1,395.15,320.42Z"/><path class="cls-2" d="M223.14,254.35a5,5,0,1,1-5-5A5,5,0,0,1,223.14,254.35Z"/><path class="cls-2" d="M356.74,137.52a5,5,0,1,1-5-5A5,5,0,0,1,356.74,137.52Z"/><path class="cls-2" d="M454.69,358.06a5,5,0,1,1-5-5A5,5,0,0,1,454.69,358.06Z"/><path class="cls-2" d="M69.56,349.08a5,5,0,1,1-5-5A5,5,0,0,1,69.56,349.08Z"/></g><path class="cls-6" d="M199,336.1s36.33-54.69,51.87-63.58,38.48-17.06,60.9-6.69,25.76,24.43,34.46,45.51S339.91,402,339.91,402L222.13,402Z"/><path class="cls-7" d="M284.22,282.84c-5.2,0-11.08-2.39-13.42-7.16-1.26-2.54-1.61-4.55-1.05-6a2.44,2.44,0,0,1,1.25-1.38l.26.71-.13-.36.14.35a1.72,1.72,0,0,0-.83,1c-.32.83-.4,2.43,1,5.32,2.66,5.41,10.19,7.56,15.64,6.46,5.07-1,14.33-5.66,16.24-9.69,1.25-2.64,1.5-4.36.82-5.56s-2.4-1.95-5.22-2.23l.07-.74c3.08.3,5,1.15,5.8,2.6,1.05,1.84.13,4.31-.79,6.25-2,4.3-11.43,9-16.77,10.1A15,15,0,0,1,284.22,282.84Z"/><path class="cls-6" d="M341.69,355.34s-36.91-10.54-50.29-5.86-40.83,4-46-7.36,3.19-34.8,3.19-34.8c-8.12,20.25-9.2,35.31-6.7,46.49L243.3,400l95.28,1.86-14.2-38.91Z"/><path class="cls-8" d="M351.38,354.7c-.12,6.55-.46,12.79-.9,18.42-1.23,15.77-3.24,26.83-3.24,26.83l-26-4.56-52.55-9.24h0s66.16,10.27,75.2,0C347.91,381.62,350.14,368.25,351.38,354.7Z"/><path class="cls-9" d="M250.93,362.91c21.82.29,59.2,2.3,59.2,2.3L307.55,294c.05.81.11,1.65.2,2.51,2,20.58,7.53,74.29,7.53,74.29Z"/><path class="cls-10" d="M278.71,365.36l-1.57,22.27-5.3-1.34-8.49-2.16-2.21-.56-2.59-.65-20.37,1.89-4,.37a30.72,30.72,0,0,1-5-3.83c-3.95-3.78-7.77-9.8-.87-15.57,8.42-7,15-6.47,21.26-5.11,2.08.45,9.76,2.91,9.76,2.91l2.67.25,2.21.2Z"/><path class="cls-11" d="M271.84,386.29l-13.29-3.37-20.37,1.89,3.93-5.26s14.76,2.19,17.82-1.51c0,0,2.48,2.7,8.8,2.15C273.15,379.81,272.58,383.83,271.84,386.29Z"/><path class="cls-11" d="M263.17,376.85a16.44,16.44,0,0,0,.18,7.28l-2.21-.56.87-19.74,2.21.2-.32,3.35C271,373.38,263.17,376.85,263.17,376.85Z"/><path class="cls-6" d="M351.38,354.7c-.11,6.55-.46,12.79-.9,18.42-.38,4.91-.84,9.37-1.29,13.17-1,8.41-1.95,13.66-1.95,13.66l-11.68-2.05-14.28-2.51-54.9-9.65,1.75-22,47.15,7s-5.52-53.71-7.53-74.29,7.53-28.61,7.53-28.61C346.26,276.69,352,320,351.38,354.7Z"/><path class="cls-6" d="M349.19,386.29c-1,8.41-1.95,13.66-1.95,13.66l-11.68-2.05C340.32,396,346.05,392.6,349.19,386.29Z"/><path class="cls-6" d="M315.51,370s15.32-.49,17.6,8.63C333.11,378.63,328.87,372.77,315.51,370Z"/><path class="cls-6" d="M312.65,371s15.24,1.69,16.2,11C328.85,382.08,325.49,375.68,312.65,371Z"/><polygon class="cls-7" points="270.82 364.26 269.51 386.29 270.82 386.52 272 364.36 270.82 364.26"/><polygon class="cls-7" points="274.08 364.67 272.76 386.86 274.07 387.09 275.26 364.85 274.08 364.67"/><path class="cls-12" d="M258.55,382.92a79.59,79.59,0,0,1,.79-19.34l4.55.42s-2.38,16.55-1.19,20Z"/><path class="cls-13" d="M258.94,382.35s-.89-10.23.63-18.09l4,.36s-2.43,15.72-1.4,18.69Z"/><ellipse class="cls-12" cx="260.81" cy="371.98" rx="5.92" ry="4.87"/><ellipse class="cls-13" cx="260.81" cy="371.98" rx="5.26" ry="4.33"/><path class="cls-14" d="M256.51,370.42s.93-2.43,4.58-2.52A8.81,8.81,0,0,0,256.51,370.42Z"/><polygon class="cls-12" points="259.93 369.43 259.93 372.94 265.06 372.63 260.29 372.63 259.93 369.43"/><rect class="cls-12" x="259.09" y="378.07" width="2.4" height="0.75" rx="0.28" transform="translate(33.45 -20.95) rotate(4.93)"/><rect class="cls-12" x="260.23" y="364.84" width="2.4" height="0.75" rx="0.28" transform="matrix(1, 0.09, -0.09, 1, 32.3, -21.09)"/><rect class="cls-12" x="260.13" y="366.02" width="2.4" height="0.75" rx="0.28" transform="translate(32.4 -21.07) rotate(4.92)"/><rect class="cls-12" x="259.09" y="379.17" width="2.4" height="0.75" rx="0.28" transform="translate(33.55 -20.95) rotate(4.93)"/><rect class="cls-12" x="259.09" y="380.28" width="2.4" height="0.75" rx="0.28" transform="translate(33.64 -20.94) rotate(4.93)"/><rect class="cls-12" x="259.09" y="381.38" width="2.4" height="0.75" rx="0.28" transform="translate(33.74 -20.94) rotate(4.93)"/><path class="cls-15" d="M296,249.28s26.77-23.59,9.71-52.87l-15.38,26.85Z"/><path class="cls-10" d="M281.77,280.05c-6.8-1-9.34-5.41-10.25-8a9.68,9.68,0,0,1-.49-1.91l-.13-.51h0l-.66-2.49-.37-1.37-1.33-5L265.68,250l-.22-.85,27.86-12.39s.36,2,1,4.94c.37,1.75.83,3.83,1.35,6,1.7,7.19,4.11,15.69,6.45,18.16l.14.16C306,270.65,291.44,281.54,281.77,280.05Z"/><path class="cls-16" d="M295.13,245.51c-2.65,8.76-14.46,23.37-19.13,23.18a9.57,9.57,0,0,1-6.13-2.89l-1.33-5C273.4,256,289,241.18,294.3,241.68,294.67,243.43,294.6,243.3,295.13,245.51Z"/><path class="cls-10" d="M302.65,219.85q0,2.07-.21,4.17A56.58,56.58,0,0,1,299,239.11c-5.91,15.58-18.28,25.93-31.62,24.76-9.15-.8-16.91-6.86-21.89-15.87a48,48,0,0,1-5.35-16.4,56,56,0,0,1-.54-6.56,56.77,56.77,0,0,1,.2-6.49q.18-2,.48-3.9c3.34-21.55,18.22-37.37,34.54-35.94S303,198.15,302.65,219.85Z"/><path class="cls-11" d="M302.65,219.85q0,2.07-.21,4.17A56.58,56.58,0,0,1,299,239.11c-30.47-21.34-24.4-42.7-24.4-42.7Z"/><path class="cls-11" d="M273.92,193.34s-7.7,25.21-19.82,30.45A24,24,0,0,1,239.63,225a56.53,56.53,0,0,1,.2-6.48c.12-1.32.27-2.63.48-3.91Z"/><path class="cls-15" d="M278.8,187.21S260.4,219.67,238,223s-11.38-27.44,5-38.14S283.15,166.8,278.8,187.21Z"/><path class="cls-15" d="M275.87,180.43c-.79,0-4.77,19.16,1.59,32.88s25.43,25.43,25.43,25.43S326.65,179.51,275.87,180.43Z"/><path class="cls-15" d="M275.31,187.08s-11.76-35.39,15.91-32.74c41.53,4,50.26,38.76,5.48,47.72"/><path class="cls-10" d="M283.49,224.91s.68-15.71,6.52-14.32,9.35,15,4.73,19.15-8.21,1.56-8.21,1.56Z"/><path class="cls-17" d="M274.12,174.43a32.38,32.38,0,0,1,23.44,7.48c11.1,9.25,10.11,17.08,10.11,17.08S303.43,179.48,274.12,174.43Z"/><path class="cls-18" d="M287,216.32s1.44-3.79,3.35-3,6,6.71,4.58,10.71-3.81,3.57-3.81,3.57,4.15-3.22,2.7-7.19S289.82,213.2,287,216.32Z"/><path class="cls-15" d="M275.91,173.56s-6.16-8.39-2.32-14.9C273.59,158.66,270.64,163.58,275.91,173.56Z"/><path class="cls-15" d="M321.74,194s-8.88,5.32-13.45-.39C308.29,193.62,311.73,198,321.74,194Z"/><path class="cls-15" d="M307.63,227.6a21.38,21.38,0,0,1-.36,5.64,31.45,31.45,0,0,1-1.58,5.45c-.37.87-.71,1.76-1.15,2.6-.21.42-.41.86-.65,1.27l-.73,1.22c-.12.2-.24.41-.37.6l-.42.58c-.27.39-.54.78-.82,1.16-.58.75-1.21,1.46-1.83,2.17l0,0c.26-.4.53-.78.79-1.17s.56-.76.8-1.16l.76-1.19.38-.59.35-.61.7-1.21c.24-.41.44-.83.66-1.24.46-.82.82-1.69,1.22-2.54A31.36,31.36,0,0,0,307,233.2a21.13,21.13,0,0,0,.54-5.6Z"/><path class="cls-15" d="M309.21,227.38l-.43-.18c4.89-11.61,3.06-20.06.67-25.11a23,23,0,0,0-6.43-8.25l.27-.38a23.58,23.58,0,0,1,6.57,8.41C312.3,207,314.17,215.59,309.21,227.38Z"/><path class="cls-19" d="M265.58,178.62c-3.71,1.4-7.37,3-10.93,4.72-1.78.87-3.54,1.79-5.26,2.78a54.45,54.45,0,0,0-5,3.21,27.93,27.93,0,0,0-4.42,3.91c-.65.74-1.28,1.52-1.88,2.3s-1.19,1.58-1.75,2.4a47.38,47.38,0,0,0-3.06,5.07,31.54,31.54,0,0,0-2.25,5.46,17.08,17.08,0,0,0-.61,2.87,6.34,6.34,0,0,0,.23,2.85,1.73,1.73,0,0,0,.14.31,1.47,1.47,0,0,0,.16.28,1.58,1.58,0,0,0,.52.39,5,5,0,0,0,1.37.37,13.56,13.56,0,0,0,2.92,0,30.38,30.38,0,0,0,5.81-1.1,42.59,42.59,0,0,0,5.57-2,38.8,38.8,0,0,0,10-6.37,32,32,0,0,0,4.06-4.33,30.14,30.14,0,0,0,3.16-5,30.49,30.49,0,0,1-7.07,9.53,40.33,40.33,0,0,1-15.58,8.61A30.85,30.85,0,0,1,235.8,216a14.52,14.52,0,0,1-3,0,5,5,0,0,1-1.5-.41,2,2,0,0,1-.67-.5,2.84,2.84,0,0,1-.22-.35,3,3,0,0,1-.16-.37,6.84,6.84,0,0,1-.26-3,17.27,17.27,0,0,1,.61-3,32.29,32.29,0,0,1,2.31-5.53,47.27,47.27,0,0,1,3.1-5.11c.57-.82,1.16-1.63,1.77-2.41s1.24-1.56,1.91-2.31a22.42,22.42,0,0,1,2.15-2.1c.39-.32.77-.64,1.17-.94l.59-.46.61-.44a54.05,54.05,0,0,1,5.05-3.17q2.61-1.47,5.31-2.74c1.8-.85,3.62-1.64,5.46-2.4S263.7,179.26,265.58,178.62Z"/><path class="cls-15" d="M262.77,176.62a37.56,37.56,0,0,0-5.57,1,47.62,47.62,0,0,0-5.4,1.69,49.62,49.62,0,0,0-10.06,5.12c-.8.51-1.55,1.07-2.32,1.61s-1.51,1.13-2.22,1.75c-.36.31-.73.6-1.08.92l-1,1c-.36.31-.68.65-1,1l-.51.49c-.17.17-.34.33-.49.51-.65.69-1.31,1.36-1.92,2.08-.3.36-.62.71-.92,1.08l-.88,1.11-.44.55c-.15.19-.28.38-.42.57l-.84,1.14-.21.29-.2.3-.39.58-.8,1.18c.5-.81,1-1.63,1.5-2.42l.8-1.17c.13-.2.26-.4.4-.59l.42-.57.86-1.13c.29-.38.6-.74.9-1.11.59-.74,1.24-1.43,1.88-2.14a43.7,43.7,0,0,1,4.13-3.92c.71-.63,1.48-1.2,2.22-1.79s1.53-1.12,2.34-1.63a47.47,47.47,0,0,1,4.94-2.84,43.83,43.83,0,0,1,5.24-2.23A39.92,39.92,0,0,1,262.77,176.62Z"/><circle class="cls-20" cx="273.99" cy="238.17" r="8.62"/><path class="cls-21" d="M251.62,239.75a8.63,8.63,0,0,1-6.1,8.25,48,48,0,0,1-5.35-16.4,8.84,8.84,0,0,1,2.83-.47A8.62,8.62,0,0,1,251.62,239.75Z"/><path class="cls-11" d="M252.55,230.86a10.17,10.17,0,0,0-2.4-1.51,5.42,5.42,0,0,0-2.61-.46,5.59,5.59,0,0,0-2.51.89,14.75,14.75,0,0,0-2.23,1.78,7.43,7.43,0,0,1,1.89-2.29,5.13,5.13,0,0,1,2.78-1.17,5,5,0,0,1,2.94.7A6.12,6.12,0,0,1,252.55,230.86Z"/><path class="cls-11" d="M268.73,228.63a10.06,10.06,0,0,0-2.41-1.5,5.29,5.29,0,0,0-2.61-.47,5.6,5.6,0,0,0-2.51.9,13.65,13.65,0,0,0-2.22,1.78,7.28,7.28,0,0,1,1.88-2.29,5.06,5.06,0,0,1,2.78-1.17,4.91,4.91,0,0,1,2.94.69A6.43,6.43,0,0,1,268.73,228.63Z"/><path class="cls-11" d="M256.7,233.59c-.48,1.32-.92,2.64-1.32,4-.19.67-.38,1.34-.54,2a17.61,17.61,0,0,0-.36,2,6.84,6.84,0,0,0,0,2,1.94,1.94,0,0,0,1,1.56,3,3,0,0,0,1.94.09,11.68,11.68,0,0,0,2-.63,9.19,9.19,0,0,1-1.92.85,4.62,4.62,0,0,1-1.06.2,2.5,2.5,0,0,1-1.1-.18,1.8,1.8,0,0,1-.85-.76,3,3,0,0,1-.39-1.05,7.75,7.75,0,0,1,0-2.15,20.5,20.5,0,0,1,1-4.1A30.59,30.59,0,0,1,256.7,233.59Z"/><path class="cls-2" d="M268.57,245.79s-2.82,8.37-8.84,7.36a9.06,9.06,0,0,1-7.4-6s.46.19,1.27.43c2.61.77,8.79,2,14.32-1.36h0C268.14,246.07,268.36,245.94,268.57,245.79Z"/><path class="cls-15" d="M288.5,153a45.37,45.37,0,0,1,13.9,1c.76.17,1.51.37,2.26.57s1.5.45,2.23.71a37,37,0,0,1,4.31,1.81,31.25,31.25,0,0,1,4.05,2.33,30.78,30.78,0,0,1,6.88,6.25,35,35,0,0,0-3.35-3.21l-.44-.38-.45-.36L317,161c-.64-.43-1.25-.9-1.91-1.3a38.36,38.36,0,0,0-8.32-4,47.65,47.65,0,0,0-9-2.19c-1.53-.23-3.07-.39-4.61-.48A42.45,42.45,0,0,0,288.5,153Z"/><path class="cls-16" d="M281.77,280.05c-6.8-1-9.34-5.41-10.25-8,1.79,2,6.43,6.53,11.76,6.68,6.84.19,14.56-5.69,14.56-5.69s3.92-4,4.4-7C306,270.65,291.44,281.54,281.77,280.05Z"/><path class="cls-12" d="M295.28,232.05c0,2.38-1.34,4.3-3,4.3-1.34,0-2.47-1.27-2.85-3h0a6,6,0,0,1-.14-1.28c0-2.38,1.34-4.3,3-4.3a3,3,0,0,1,2.57,2.13h0A5.89,5.89,0,0,1,295.28,232.05Z"/><path class="cls-13" d="M295,231.16c0,2.38-1.34,4.31-3,4.31a3,3,0,0,1-2.58-2.14h0a6,6,0,0,1-.14-1.28c0-2.38,1.34-4.3,3-4.3a3,3,0,0,1,2.57,2.13h0A6.51,6.51,0,0,1,295,231.16Z"/><path class="cls-22" d="M102.23,367.18a45.55,45.55,0,0,0-.15-4.68c-.12-1.54-.29-3.09-.51-4.63a72.46,72.46,0,0,0-1.91-9.1A68.09,68.09,0,0,0,96.57,340a62,62,0,0,0-4.3-8.24A57.15,57.15,0,0,0,80.1,317.81c-1.2-1-2.42-1.92-3.7-2.8-.62-.45-1.28-.87-1.92-1.3-.32-.21-.66-.4-1-.61s-.65-.41-1-.6a66.74,66.74,0,0,0-8.3-4.12,67.45,67.45,0,0,1,8.26,4.2c.33.19.65.4,1,.61s.66.4,1,.62c.64.43,1.29.85,1.91,1.31C77.59,316,78.8,317,80,318a56.88,56.88,0,0,1,12,14,61.22,61.22,0,0,1,4.19,8.23,67.2,67.2,0,0,1,3,8.74,73.19,73.19,0,0,1,1.81,9c.2,1.53.36,3.06.46,4.59s.15,3.08.1,4.6h0a.36.36,0,0,0,.35.36.34.34,0,0,0,.36-.34Z"/><path class="cls-6" d="M101,356.32S88.11,344.49,85.51,353C83.45,359.75,101,356.32,101,356.32Z"/><path class="cls-6" d="M101,356.38s4.46-16.9,11.23-11.15C117.59,349.81,101,356.38,101,356.38Z"/><path class="cls-6" d="M98,344.33S85.05,334,83.14,342.16C81.61,348.67,98,344.33,98,344.33Z"/><path class="cls-6" d="M98,344.34s3.14-16.24,9.89-11.24C113.22,337.09,98,344.34,98,344.34Z"/><path class="cls-6" d="M93.2,333.67s-14.69-7.61-15,.8C78,341.16,93.2,333.67,93.2,333.67Z"/><path class="cls-6" d="M93.2,333.64s-.13-16.55,7.48-13C106.74,323.51,93.2,333.64,93.2,333.64Z"/><path class="cls-6" d="M76.75,315.35s-11.54-1-9.47,4.5C68.93,324.24,76.75,315.35,76.75,315.35Z"/><path class="cls-6" d="M76.75,315.36S72.26,304.68,78.14,305C82.82,305.19,76.75,315.36,76.75,315.36Z"/><path class="cls-6" d="M84.9,322.41s-13-4-12,2.83C73.77,330.67,84.9,322.41,84.9,322.41Z"/><path class="cls-6" d="M84.84,322.46S82.31,309.13,89,310.9C94.28,312.31,84.84,322.46,84.84,322.46Z"/><path class="cls-6" d="M71.63,312s-7.41-7.31-9.13-2.31C61.13,313.66,71.63,312,71.63,312Z"/><path class="cls-17" d="M119.44,363.7l-6.16,32.83-.38,2H87.76l-6.54-34.8a4.52,4.52,0,0,1,4.43-5.34H115A4.5,4.5,0,0,1,119.44,363.7Z"/><path class="cls-12" d="M113.28,396.53l-.38,2H87.76l-6.54-34.8a4.53,4.53,0,0,1,.45-2.94c1.24,5.4,4.72,18.53,10.46,25.67C97.22,392.76,107.47,395.46,113.28,396.53Z"/><path class="cls-23" d="M101.35,359.76s14.2-.61,15.35,0,1.59,2.91,1.59,2.91l-1.68,7.42s1.23-7.24.44-8.47S101.35,359.76,101.35,359.76Z"/><g class="cls-24"><path class="cls-25" d="M102.63,372.33c0,.48-.28.87-.62.87s-.62-.39-.62-.87.28-.86.62-.86S102.63,371.85,102.63,372.33Z"/><path class="cls-25" d="M107.24,364.37c0,.48-.28.87-.62.87s-.62-.39-.62-.87.28-.87.62-.87S107.24,363.89,107.24,364.37Z"/><path class="cls-25" d="M104.89,380.32c0,.48-.28.87-.62.87s-.62-.39-.62-.87.27-.87.62-.87S104.89,379.84,104.89,380.32Z"/><path class="cls-25" d="M90,369.22c0,.48-.28.87-.62.87s-.62-.39-.62-.87.28-.87.62-.87S90,368.74,90,369.22Z"/><path class="cls-25" d="M96.06,385.17c0,.48-.28.87-.62.87s-.62-.39-.62-.87.28-.87.62-.87S96.06,384.69,96.06,385.17Z"/><path class="cls-25" d="M99.94,393.88c0,.48-.28.87-.62.87s-.62-.39-.62-.87.28-.87.62-.87S99.94,393.4,99.94,393.88Z"/><path class="cls-25" d="M100.33,381.74c0,.79-.45,1.42-1,1.42s-1-.63-1-1.42.46-1.42,1-1.42S100.33,381,100.33,381.74Z"/><path class="cls-25" d="M110.83,389.06c0,.78-.45,1.42-1,1.42s-1-.64-1-1.42.46-1.42,1-1.42S110.83,388.27,110.83,389.06Z"/><path class="cls-25" d="M95.83,377c0,.78-.45,1.42-1,1.42s-1-.64-1-1.42.45-1.42,1-1.42S95.83,376.22,95.83,377Z"/><path class="cls-25" d="M98.22,366.21c0,.78-.45,1.42-1,1.42s-1-.64-1-1.42.45-1.42,1-1.42S98.22,365.42,98.22,366.21Z"/><path class="cls-25" d="M93,391.59c0,.78-.46,1.42-1,1.42s-1-.64-1-1.42.45-1.42,1-1.42S93,390.8,93,391.59Z"/><path class="cls-25" d="M103.65,384.3c0,.4-.46.71-1,.71s-1-.31-1-.71.45-.71,1-.71S103.65,383.91,103.65,384.3Z"/><path class="cls-25" d="M105.9,395.46c0,.39-.45.71-1,.71s-1-.32-1-.71.46-.71,1-.71S105.9,395.06,105.9,395.46Z"/><path class="cls-25" d="M114.29,373.91c0,.4-.45.71-1,.71s-1-.31-1-.71.46-.71,1-.71S114.29,373.52,114.29,373.91Z"/></g><polyline class="cls-26" points="246.65 391.18 242.5 391.18 242.5 397.1 246.65 397.1"/><path class="cls-27" d="M242.5,397.1H138.1l-9.53-84a0,0,0,0,0,0,0H233Z"/><rect class="cls-28" x="246.65" y="391.18" width="32.01" height="5.91"/><polygon class="cls-28" points="232.96 313.11 237.48 311.77 246.51 395.59 242.5 397.1 232.96 313.11"/><polygon class="cls-29" points="128.56 313.11 133.75 311.77 237.48 311.77 232.96 313.11 128.56 313.11"/><ellipse class="cls-30" cx="185" cy="353.73" rx="10.29" ry="8.78"/><path class="cls-31" d="M227.57,397.1H138.1l-9.53-84C128.88,315,142.37,392.85,227.57,397.1Z"/><polygon class="cls-32" points="198.38 313.86 232.22 313.86 234.62 336.78 230.9 315.42 198.38 313.86"/><rect class="cls-33" x="248.43" y="100.62" width="66.81" height="38.15" transform="translate(-24.23 110.65) rotate(-21.32)"/><polygon class="cls-4" points="305.64 89.93 304.65 90.32 293.89 114.85 293.58 115.54 286.51 131.68 270.37 124.6 269.69 124.3 245.15 113.53 244.16 113.92 269.38 124.98 258.77 149.17 259.76 148.78 270.07 125.29 286.89 132.66 294.27 115.84 317.77 126.15 318.76 125.76 294.57 115.15 305.64 89.93"/><path class="cls-33" d="M189.82,239v-8.89a20.23,20.23,0,0,0-20.23-20.23H103.37a20.23,20.23,0,0,0-20.23,20.23V239a20.23,20.23,0,0,0,20.23,20.23H151l33.35,9.94L178.86,257A20.22,20.22,0,0,0,189.82,239Z"/><path class="cls-4" d="M173.45,225.4H98.84a2.68,2.68,0,0,1-2.68-2.68h0A2.68,2.68,0,0,1,98.84,220h74.61a2.68,2.68,0,0,1,2.68,2.68h0A2.68,2.68,0,0,1,173.45,225.4Z"/><path class="cls-4" d="M173.45,236.77H98.84a2.68,2.68,0,0,1-2.68-2.67h0a2.68,2.68,0,0,1,2.68-2.68h74.61a2.68,2.68,0,0,1,2.68,2.68h0A2.68,2.68,0,0,1,173.45,236.77Z"/><rect class="cls-4" x="96.16" y="242.8" width="51.19" height="5.35" rx="2.14"/><path class="cls-34" d="M403.91,360.91v6.27a2,2,0,0,1-2,2h-.51a2,2,0,0,1-2-2v-6.27a2,2,0,0,1,.29-1.05,2,2,0,0,1,1.71-1h.51a2,2,0,0,1,1.58.78A2,2,0,0,1,403.91,360.91Z"/><path class="cls-34" d="M392,360.91v6.27a2,2,0,0,1-2,2h-.5a2,2,0,0,1-2-2v-6.27a2,2,0,0,1,2-2h.5a2,2,0,0,1,2,2Z"/><path class="cls-17" d="M415.84,397.12H374.41c-2.56,0-4.31-3.29-3.37-6.32l.89-2.85,5.66-18.18a3.75,3.75,0,0,1,3.37-2.91h28.33a3.75,3.75,0,0,1,3.37,2.91l4.8,15.42,1.75,5.61C420.15,393.83,418.4,397.12,415.84,397.12Z"/><path class="cls-35" d="M392,360.91v1.86h-4.52v-1.86a2,2,0,0,1,.3-1.05l3.8-.18A2,2,0,0,1,392,360.91Z"/><path class="cls-35" d="M403.91,360.91v1.86H399.4v-1.86a2,2,0,0,1,.29-1.05l3.8-.18A2,2,0,0,1,403.91,360.91Z"/><path class="cls-12" d="M415.84,397.12H374.41c-2.56,0-4.31-3.29-3.37-6.32l.89-2.85c.95,1,2.95,2.15,6.88,3.47,10.79,3.62,30.37,1.36,30.37,1.36a14.56,14.56,0,0,0,8.28-7.59l1.75,5.61C420.15,393.83,418.4,397.12,415.84,397.12Z"/><path class="cls-17" d="M425.34,368.14a2.9,2.9,0,0,1-2.91,2.91h-6.21a2.94,2.94,0,0,1-2.85-2.29c-.54-2.38-2-5.88-5.72-6.76a2.54,2.54,0,0,0-.61-.07H383.32a2.54,2.54,0,0,0-.61.07c-3.74.88-5.18,4.38-5.72,6.76a2.94,2.94,0,0,1-2.85,2.29h-6.21a2.91,2.91,0,0,1-2.91-2.91,18.77,18.77,0,0,1,1.6-8c2.09-4.33,8.06-5.46,9.3-5.65a2.17,2.17,0,0,1,.44,0H414a2.17,2.17,0,0,1,.44,0c1.25.19,7.21,1.32,9.3,5.65A18.77,18.77,0,0,1,425.34,368.14Z"/><path class="cls-12" d="M422,371.05h-5.73a2.94,2.94,0,0,1-2.85-2.29c-.54-2.38-2-5.88-5.72-6.76a2.54,2.54,0,0,0-.61-.07H383.32a2.54,2.54,0,0,0-.61.07c-3.74.88-5.18,4.38-5.72,6.76a2.94,2.94,0,0,1-2.85,2.29H370c.33,0,6.24-.75,6.47-5.38s7.47-5.44,14.39-5.15,16.17-1,18.73,0,4.35,3.67,4.91,6.34,5.13,3.91,7,3.95C421.79,370.82,421.91,370.9,422,371.05Z"/><path class="cls-36" d="M366.58,362.19s1.44-6.34,9.36-7A16.88,16.88,0,0,0,366.58,362.19Z"/><path class="cls-36" d="M377.05,374.28l1.32-4.62a2.61,2.61,0,0,1,2.76-2h6.06l-5.82,1s-2,.66-2.4,1.62S377.05,374.28,377.05,374.28Z"/><rect class="cls-12" x="386.86" y="373.31" width="6.84" height="2.79" rx="0.52"/><rect class="cls-12" x="397.57" y="373.31" width="6.84" height="2.79" rx="0.52"/><rect class="cls-12" x="386.86" y="377.93" width="6.84" height="2.79" rx="0.52"/><rect class="cls-12" x="397.57" y="377.93" width="6.84" height="2.79" rx="0.52"/><rect class="cls-12" x="386.86" y="382.55" width="6.84" height="2.79" rx="0.52"/><rect class="cls-12" x="397.57" y="382.55" width="6.84" height="2.79" rx="0.52"/><circle class="cls-33" cx="385.99" cy="202.06" r="30.21" transform="translate(124.67 550.68) rotate(-80.78)"/><path class="cls-4" d="M402.09,218.87h0c-2.23,2.31-6.27,2.7-11,1.44a41.77,41.77,0,0,1-24-19.74c-2.14-4.38-2.54-8.42-.7-11.06h0a7.56,7.56,0,0,1,7.71-2,2.32,2.32,0,0,1,1.41,1.28,29,29,0,0,0,3.28,5.57,2.33,2.33,0,0,1,.39,1.83,7.44,7.44,0,0,1-1.55,3.26l0,0a2.33,2.33,0,0,0,.06,3.06,45.86,45.86,0,0,0,9.44,7.75,2.31,2.31,0,0,0,3-.53l0,0a7.42,7.42,0,0,1,2.9-2.16,2.3,2.3,0,0,1,1.87,0A29.67,29.67,0,0,0,401,209.8a2.3,2.3,0,0,1,1.53,1.13,7.5,7.5,0,0,1,.93,3.84A7.42,7.42,0,0,1,402.09,218.87Z"/><path class="cls-4" d="M397.05,202.73a.57.57,0,0,1-.21-.4,12.09,12.09,0,0,0-13.21-10.86.59.59,0,0,1-.12-1.17,13.55,13.55,0,0,1,5.07.48A13.25,13.25,0,0,1,398,202.22a.59.59,0,0,1-.53.64A.65.65,0,0,1,397.05,202.73Z"/><path class="cls-4" d="M400.63,202.38a.62.62,0,0,1-.22-.4,15.67,15.67,0,0,0-17.13-14.08.59.59,0,0,1-.64-.53.58.58,0,0,1,.52-.64,16.82,16.82,0,0,1,18.42,15.14.58.58,0,0,1-.52.64A.61.61,0,0,1,400.63,202.38Z"/><path class="cls-4" d="M403.92,202.06a.65.65,0,0,1-.21-.4A19,19,0,0,0,383,184.6a.59.59,0,0,1-.12-1.17,20.16,20.16,0,0,1,22,18.11.6.6,0,0,1-.53.65A.65.65,0,0,1,403.92,202.06Z"/><rect class="cls-37" x="45.7" y="396.33" width="408.81" height="13" rx="3.05"/></g></g></g></svg>