<svg xmlns="http://www.w3.org/2000/svg" xmlns:xlink="http://www.w3.org/1999/xlink" viewBox="0 0 482.06 338.13"><defs><style>.cls-1{isolation:isolate;}.cls-2{fill:#d9e3fe;}.cls-3{fill:#ebf0fc;}.cls-4{fill:#529b38;}.cls-5{fill:#9caaf2;}.cls-6{fill:#3750e2;}.cls-7{fill:#3a4fcc;opacity:0.65;}.cls-23,.cls-7{mix-blend-mode:multiply;}.cls-8{fill:#fdb2d0;}.cls-9{fill:#f78dbe;}.cls-10{fill:#f9835a;}.cls-11{fill:#fcaa24;}.cls-12{fill:#ffc46e;}.cls-13{fill:#1f107e;}.cls-14{fill:#ef8ec3;}.cls-15{fill:#cfd427;}.cls-16{fill:#f973aa;}.cls-17{fill:#6f69c4;}.cls-18{fill:url(#radial-gradient);}.cls-19{fill:url(#radial-gradient-2);}.cls-20{fill:#fff;}.cls-21{fill:#617893;}.cls-22{fill:#f7c481;}.cls-23{opacity:0.19;}.cls-24{fill:#c69c6d;opacity:0.6;}.cls-25{fill:#426bc6;}.cls-26{fill:#6c90fe;}.cls-27{fill:#5c84ea;}.cls-28{fill:#aac0f9;}.cls-29{fill:#afc4f9;}.cls-30{fill:#5e8fdb;}.cls-31{fill:#a0bdf9;}.cls-32{fill:#b3c2e5;}.cls-33{fill:#f79c8d;}.cls-34{fill:#ef7352;}.cls-35{fill:#f9d298;}.cls-36{fill:#3c59e5;}</style><radialGradient id="radial-gradient" cx="267.61" cy="166.97" r="8.62" gradientUnits="userSpaceOnUse"><stop offset="0" stop-color="#f973b4"/><stop offset="1" stop-color="#fdb2d0"/></radialGradient><radialGradient id="radial-gradient-2" cx="239.51" cy="168.36" r="7.21" gradientUnits="userSpaceOnUse"><stop offset="0" stop-color="#f981bb"/><stop offset="1" stop-color="#fdb2d0"/></radialGradient></defs><g class="cls-1"><g id="Layer_2" data-name="Layer 2"><g id="Layer_1-2" data-name="Layer 1"><path class="cls-2" d="M479.12,225.75c-13-29.31-52.2-51.41-59.4-85s7.56-81.43-44.28-110.23S241.88-1.14,223.7,40.62,134,42.45,83.57,82.37c-48.87,38.68-72.09,98.19-72.09,183.7,0,28,21.75,53.14,29.71,70.83H457.06C474,281.46,488.47,246.89,479.12,225.75Z"/><path class="cls-3" d="M462.47,159.1c0,3.88-4.5,7-10,7s-10-3.14-10-7,4.49-7,10-7S462.47,155.21,462.47,159.1Z"/><ellipse class="cls-3" cx="438.37" cy="124.23" rx="14.05" ry="11.01"/><circle class="cls-3" cx="8.24" cy="194" r="8.24" transform="translate(-146.28 76.4) rotate(-50.29)"/><ellipse class="cls-3" cx="186.6" cy="46.14" rx="11.41" ry="8.24"/><path class="cls-2" d="M11.48,177.48c1-4.17,2.14-8.3,3.43-12.38s2.68-8.15,4.19-12.17,3.12-8,4.85-11.94c.84-2,1.75-3.92,2.66-5.87L28,132.2c.47-1,1-1.93,1.45-2.89s1-1.92,1.49-2.87,1-1.91,1.53-2.86,1-1.89,1.59-2.82L35.7,118Q39,112.37,42.8,107l1.92-2.64c.32-.44.66-.87,1-1.3l1-1.29c.34-.43.67-.87,1-1.29l1-1.26c.71-.84,1.39-1.7,2.14-2.51s1.46-1.64,2.21-2.44l2.31-2.37c.38-.41.77-.77,1.16-1.15l1.16-1.13c.77-.76,1.56-1.49,2.35-2.24,3.17-2.94,6.43-5.81,9.8-8.55l2.56-2,2.61-2c1.76-1.29,3.53-2.57,5.35-3.77a116.31,116.31,0,0,1,11.3-6.67c1-.52,2-1,3-1.46s2-.93,3-1.37c.51-.21,1-.45,1.52-.64l1.52-.61c.52-.2,1-.42,1.54-.6l1.55-.56c1-.39,2.07-.72,3.11-1s2.1-.63,3.16-.92,2.12-.56,3.18-.82,2.14-.47,3.21-.69,2.15-.39,3.23-.57,2.16-.31,3.24-.44,2.17-.23,3.25-.33,2.17-.15,3.26-.2a93.32,93.32,0,0,1,13,.34c1.08.11,2.15.2,3.21.36l1.6.22c.53.06,1.06.15,1.59.24,1.06.19,2.12.36,3.17.57l3.14.67c-1.07,0-2.14-.07-3.2-.12s-2.14,0-3.2-.06-2.13,0-3.19,0c-.53,0-1.06,0-1.59,0l-1.59.05a114.37,114.37,0,0,0-12.58,1.13,96.72,96.72,0,0,0-24,6.73l-1.43.61c-.48.2-.94.43-1.41.65l-1.41.66c-.47.21-.92.46-1.39.69l-1.39.69c-.46.23-.91.49-1.37.73-.91.49-1.83,1-2.72,1.5-3.59,2.07-7.09,4.3-10.48,6.72s-6.69,5-9.89,7.64S68,89.66,64.9,92.53c-.77.72-1.55,1.42-2.3,2.16l-1.14,1.09c-.37.36-.77.72-1.12,1.09l-2.17,2.2c-.71.75-1.39,1.52-2.1,2.27-2.78,3.06-5.4,6.29-7.93,9.61s-4.9,6.77-7.22,10.27l-1.71,2.64c-.57.88-1.11,1.79-1.67,2.68s-1.11,1.78-1.65,2.69-1.1,1.8-1.62,2.71l-1.59,2.74-1.57,2.75c-1,1.85-2,3.7-3,5.57q-3,5.59-5.83,11.3Q16.57,165.7,11.48,177.48Z"/><path class="cls-2" d="M254.46,9.05c2-1,4.14-1.73,6.26-2.48s4.28-1.37,6.45-2c1.09-.28,2.17-.6,3.27-.84l1.65-.39L273.74,3c1.1-.25,2.2-.45,3.31-.67s2.22-.39,3.34-.58C284.84,1,289.34.54,293.85.26l1.7-.09.84-.05.85,0L300.63,0h4.25l.85,0,1.69.05,1.7.06c.57,0,1.13.06,1.7.09l3.39.22c2.26.22,4.52.4,6.76.72l1.69.22.84.1.84.13,3.36.55.84.14.84.16,1.67.33,1.67.33c.55.11,1.11.21,1.66.35,2.21.52,4.43,1,6.61,1.62l3.29.89,3.25,1c2.18.63,4.3,1.43,6.45,2.17,1.08.36,2.13.79,3.18,1.2l3.17,1.24c1.06.42,2.09.9,3.13,1.34l1.56.68c.52.23,1,.45,1.55.7l3.08,1.47,1.53.73,1.51.8,3,1.6c1,.55,2,1.14,3,1.71l1.48.86c.49.29,1,.6,1.44.91l2.89,1.84a107.08,107.08,0,0,1,10.83,8.41,78.87,78.87,0,0,1,9.39,10c.36.45.73.88,1.06,1.35l1,1.4c.33.47.68.93,1,1.41l.93,1.45c.31.48.63,1,.92,1.45l.86,1.49.43.74.22.37.19.38.79,1.53a70.14,70.14,0,0,1,5,12.72,98.33,98.33,0,0,1,2.71,13.28c.3,2.23.55,4.46.8,6.68s.48,4.45.78,6.67c-.58-2.16-1-4.37-1.49-6.56s-.89-4.38-1.39-6.56c-.24-1.09-.51-2.17-.77-3.25-.12-.54-.27-1.07-.41-1.61s-.27-1.08-.43-1.61c-.31-1.07-.6-2.13-1-3.18-.17-.53-.33-1.06-.52-1.58l-.55-1.56a71.85,71.85,0,0,0-13-22.66c-.71-.82-1.4-1.66-2.17-2.44l-1.12-1.19-.56-.6-.59-.57c-.8-.75-1.56-1.53-2.36-2.26l-2.46-2.17A108.69,108.69,0,0,0,382,28l-2.8-1.73c-.47-.29-.93-.59-1.41-.86l-1.43-.81c-1-.53-1.91-1.09-2.87-1.61l-2.94-1.51-1.46-.76-1.5-.7-3-1.42c-.5-.24-1-.45-1.52-.67l-1.52-.65c-1-.43-2-.88-3-1.3l-3.08-1.21c-1-.41-2-.83-3.09-1.18-2.08-.73-4.14-1.51-6.25-2.15l-3.15-1-3.18-.9c-1.06-.31-2.12-.62-3.2-.87l-3.2-.81c-.54-.14-1.08-.26-1.62-.38l-1.61-.35-1.62-.35-.81-.18-.81-.15-3.25-.61c-.27,0-.54-.11-.82-.15L322,5.56l-1.64-.26c-2.18-.37-4.37-.6-6.56-.89-1.1-.13-2.2-.23-3.3-.34-.55-.05-1.1-.12-1.65-.16l-1.65-.11-1.66-.12-.82-.06-.83,0-3.32-.16-3.32-.06H294c-4.43,0-8.86.26-13.28.68-1.11.11-2.21.19-3.32.34s-2.2.25-3.3.41L272.4,5l-1.64.26-3.3.57c-2.18.41-4.37.86-6.54,1.39S256.59,8.36,254.46,9.05Z"/><path class="cls-4" d="M192.66,264.9s36.32-54.69,51.87-63.58,38.48-17.06,60.89-6.69,25.77,24.43,34.47,45.51-6.36,90.62-6.36,90.62l-117.78.06Z"/><path class="cls-5" d="M277.84,211.64c-5.2,0-11.08-2.39-13.43-7.16-1.25-2.54-1.6-4.55-1-6a2.4,2.4,0,0,1,1.25-1.38l.26.7-.13-.35.14.35a1.68,1.68,0,0,0-.83,1c-.32.83-.4,2.42,1,5.32,2.66,5.41,10.19,7.56,15.64,6.46,5.07-1,14.33-5.66,16.24-9.69,1.25-2.65,1.5-4.36.82-5.56s-2.4-2-5.22-2.23l.07-.74c3.08.3,5,1.15,5.8,2.6,1.05,1.84.12,4.3-.79,6.25-2,4.3-11.43,9-16.77,10.1A15,15,0,0,1,277.84,211.64Z"/><path class="cls-4" d="M335.3,284.14S298.4,273.6,285,278.28s-40.82,4-45.95-7.36,3.19-34.8,3.19-34.8c-8.12,20.25-9.2,35.31-6.7,46.49l1.36,46.14,95.28,1.86L318,291.7Z"/><path class="cls-6" d="M345,283.5c-.12,6.55-.46,12.79-.9,18.42-1.24,15.77-3.25,26.83-3.25,26.83l-26-4.56L262.35,315h0s66.17,10.27,75.21,0C341.53,310.42,343.75,297.05,345,283.5Z"/><path class="cls-7" d="M244.55,291.71c21.82.29,59.2,2.3,59.2,2.3l-2.58-71.19c.05.81.11,1.65.2,2.51,2,20.58,7.52,74.28,7.52,74.28Z"/><path class="cls-8" d="M272.32,294.16l-1.56,22.27-5.3-1.34-8.5-2.16-2.2-.56-2.59-.65-20.37,1.89-4,.37a30.72,30.72,0,0,1-5-3.83c-3.95-3.78-7.77-9.8-.87-15.57,8.42-7,15-6.47,21.26-5.11,2.08.45,9.76,2.91,9.76,2.91l2.66.25,2.21.2Z"/><path class="cls-9" d="M265.46,315.09l-13.29-3.37-20.37,1.89,3.93-5.26s14.76,2.19,17.82-1.51c0,0,2.47,2.7,8.79,2.15C266.77,308.61,266.2,312.63,265.46,315.09Z"/><path class="cls-9" d="M256.79,305.65a16.63,16.63,0,0,0,.17,7.28l-2.2-.56.86-19.74,2.21.2-.32,3.35C264.66,302.18,256.79,305.65,256.79,305.65Z"/><path class="cls-4" d="M345,283.5c-.12,6.55-.46,12.79-.9,18.42-.39,4.91-.85,9.37-1.3,13.17-1,8.41-1.95,13.66-1.95,13.66l-11.67-2.05-14.29-2.51L260,314.54l1.75-22,47.14,7s-5.52-53.71-7.52-74.29,7.52-28.61,7.52-28.61C339.88,205.49,345.62,248.83,345,283.5Z"/><path class="cls-4" d="M342.8,315.09c-1,8.41-1.95,13.66-1.95,13.66l-11.67-2.05C333.93,324.84,339.67,321.4,342.8,315.09Z"/><path class="cls-4" d="M309.13,298.8s15.32-.49,17.6,8.63C326.73,307.43,322.49,301.57,309.13,298.8Z"/><path class="cls-4" d="M306.27,299.84s15.23,1.68,16.2,11C322.47,310.88,319.1,304.47,306.27,299.84Z"/><polygon class="cls-5" points="264.44 293.06 263.13 315.09 264.44 315.32 265.62 293.16 264.44 293.06"/><polygon class="cls-5" points="267.7 293.47 266.38 315.66 267.69 315.89 268.88 293.65 267.7 293.47"/><path class="cls-10" d="M252.17,311.72a79.59,79.59,0,0,1,.79-19.34l4.55.42s-2.38,16.55-1.19,20Z"/><path class="cls-11" d="M252.56,311.15s-.9-10.23.63-18.09l4,.36s-2.43,15.72-1.4,18.69Z"/><ellipse class="cls-10" cx="254.42" cy="300.78" rx="5.92" ry="4.87"/><ellipse class="cls-11" cx="254.42" cy="300.78" rx="5.26" ry="4.33"/><path class="cls-12" d="M250.13,299.22s.93-2.43,4.58-2.52A8.81,8.81,0,0,0,250.13,299.22Z"/><polygon class="cls-10" points="253.55 298.23 253.55 301.74 258.68 301.43 253.91 301.43 253.55 298.23"/><rect class="cls-10" x="252.71" y="306.87" width="2.4" height="0.75" rx="0.28" transform="translate(27.32 -20.67) rotate(4.93)"/><rect class="cls-10" x="253.84" y="293.64" width="2.4" height="0.75" rx="0.28" transform="matrix(1, 0.09, -0.09, 1, 26.17, -20.8)"/><rect class="cls-10" x="253.74" y="294.82" width="2.4" height="0.75" rx="0.28" transform="translate(26.27 -20.79) rotate(4.92)"/><rect class="cls-10" x="252.71" y="307.97" width="2.4" height="0.75" rx="0.28" transform="translate(27.41 -20.66) rotate(4.93)"/><rect class="cls-10" x="252.71" y="309.08" width="2.4" height="0.75" rx="0.28" transform="translate(27.51 -20.66) rotate(4.93)"/><rect class="cls-10" x="252.71" y="310.18" width="2.4" height="0.75" rx="0.28" transform="translate(27.6 -20.65) rotate(4.93)"/><path class="cls-13" d="M289.65,178.08s26.77-23.59,9.71-52.87L284,152.06Z"/><path class="cls-8" d="M275.39,208.85c-6.8-1-9.34-5.41-10.25-8a9.68,9.68,0,0,1-.49-1.91l-.13-.51h0l-.65-2.48-.37-1.37-1.33-5-2.86-10.79-.22-.86,27.85-12.38s.37,2,1,4.94c.37,1.74.82,3.83,1.35,6,1.7,7.19,4.11,15.69,6.45,18.16l.14.16C299.64,199.45,285.06,210.34,275.39,208.85Z"/><path class="cls-14" d="M288.74,174.31c-2.64,8.76-14.45,23.37-19.12,23.18a9.57,9.57,0,0,1-6.13-2.89l-1.33-5c4.85-4.76,20.43-19.59,25.76-19.09C288.29,172.22,288.22,172.1,288.74,174.31Z"/><path class="cls-8" d="M296.27,148.65c0,1.38-.09,2.77-.22,4.17a56.57,56.57,0,0,1-3.4,15.09c-5.91,15.58-18.29,25.93-31.62,24.76-9.15-.8-16.92-6.86-21.89-15.87a48,48,0,0,1-5.35-16.4,56,56,0,0,1-.55-6.56,59.19,59.19,0,0,1,.21-6.49c.12-1.32.27-2.62.48-3.9,3.34-21.55,18.22-37.37,34.54-35.94S296.62,127,296.27,148.65Z"/><path class="cls-9" d="M296.27,148.65c0,1.38-.09,2.77-.22,4.17a56.57,56.57,0,0,1-3.4,15.09c-30.48-21.34-24.4-42.7-24.4-42.7Z"/><path class="cls-9" d="M267.54,122.14s-7.71,25.21-19.82,30.45a24,24,0,0,1-14.48,1.25,59.19,59.19,0,0,1,.21-6.49c.11-1.32.27-2.62.47-3.9Z"/><path class="cls-13" d="M272.42,116S254,148.46,231.6,151.81s-11.38-27.44,5-38.14S276.77,95.6,272.42,116Z"/><path class="cls-13" d="M269.49,109.23c-.79,0-4.77,19.16,1.59,32.88s25.43,25.43,25.43,25.43S320.27,108.31,269.49,109.23Z"/><path class="cls-13" d="M268.93,115.88s-11.76-35.39,15.91-32.74c41.53,4,50.26,38.75,5.48,47.72"/><path class="cls-8" d="M277.11,153.71s.68-15.71,6.52-14.32,9.35,15,4.73,19.14-8.21,1.56-8.21,1.56Z"/><path class="cls-15" d="M267.74,103.23a32.4,32.4,0,0,1,23.44,7.47c11.09,9.25,10.11,17.09,10.11,17.09S297.05,108.28,267.74,103.23Z"/><path class="cls-16" d="M280.66,145.12s1.44-3.79,3.35-3,6,6.71,4.58,10.71-3.81,3.56-3.81,3.56,4.15-3.21,2.7-7.18S283.44,142,280.66,145.12Z"/><path class="cls-13" d="M269.52,102.36s-6.15-8.39-2.31-14.9C267.21,87.46,264.26,92.38,269.52,102.36Z"/><path class="cls-13" d="M315.35,122.81s-8.87,5.31-13.44-.39C301.91,122.42,305.35,126.78,315.35,122.81Z"/><path class="cls-13" d="M301.25,156.4a21.81,21.81,0,0,1-.36,5.64,31.45,31.45,0,0,1-1.58,5.45c-.37.87-.71,1.76-1.15,2.6-.22.42-.41.86-.65,1.27l-.73,1.22c-.12.2-.25.4-.38.6l-.41.58c-.27.39-.54.78-.82,1.16-.58.74-1.21,1.46-1.83,2.17l0,0c.25-.4.53-.78.79-1.17s.56-.76.8-1.16l.76-1.19L296,173c.12-.2.23-.41.34-.61l.71-1.22c.24-.4.44-.82.66-1.24.46-.81.82-1.68,1.22-2.53a32.09,32.09,0,0,0,1.69-5.36,21.44,21.44,0,0,0,.54-5.59Z"/><path class="cls-13" d="M302.83,156.18l-.43-.18c4.89-11.62,3.06-20.06.67-25.11a23.25,23.25,0,0,0-6.43-8.25l.27-.38a23.46,23.46,0,0,1,6.57,8.41C305.92,135.8,307.79,144.39,302.83,156.18Z"/><path class="cls-17" d="M259.2,107.42c-3.72,1.4-7.37,3-10.93,4.72-1.79.87-3.55,1.79-5.26,2.78a54.45,54.45,0,0,0-5,3.21,27.93,27.93,0,0,0-4.42,3.91c-.65.74-1.28,1.51-1.88,2.3s-1.19,1.58-1.75,2.39a46.87,46.87,0,0,0-3.06,5.08,31.59,31.59,0,0,0-2.26,5.46,17.64,17.64,0,0,0-.6,2.87,6.43,6.43,0,0,0,.22,2.84,3.09,3.09,0,0,0,.14.32,2.29,2.29,0,0,0,.17.28,1.61,1.61,0,0,0,.52.39,4.7,4.7,0,0,0,1.36.36,13.65,13.65,0,0,0,2.93,0,30.38,30.38,0,0,0,5.81-1.1,42.59,42.59,0,0,0,5.57-2,38.75,38.75,0,0,0,10-6.37,32.06,32.06,0,0,0,4.07-4.33,31.24,31.24,0,0,0,3.16-5,30.49,30.49,0,0,1-7.07,9.53,38.87,38.87,0,0,1-10,6.52,39.65,39.65,0,0,1-5.6,2.09,31.75,31.75,0,0,1-5.89,1.13,13.88,13.88,0,0,1-3,0,4.72,4.72,0,0,1-1.49-.4,2,2,0,0,1-.67-.5,1.74,1.74,0,0,1-.22-.36,2.32,2.32,0,0,1-.16-.36,6.85,6.85,0,0,1-.27-3,17.29,17.29,0,0,1,.62-3,32.25,32.25,0,0,1,2.3-5.53,48.48,48.48,0,0,1,3.11-5.12c.57-.82,1.16-1.62,1.77-2.41s1.24-1.55,1.91-2.3a22.42,22.42,0,0,1,2.15-2.1c.38-.32.76-.64,1.16-.94l.6-.46.6-.44a57.94,57.94,0,0,1,5.06-3.18q2.61-1.45,5.31-2.73c1.8-.85,3.62-1.64,5.46-2.4S257.32,108.06,259.2,107.42Z"/><path class="cls-13" d="M256.39,105.42a37.92,37.92,0,0,0-5.58,1,50.53,50.53,0,0,0-15.45,6.81c-.8.51-1.56,1.07-2.33,1.61s-1.5,1.13-2.21,1.75c-.36.31-.73.6-1.08.92l-1.05,1c-.35.31-.67.65-1,1l-.51.49c-.17.16-.34.33-.5.51-.64.68-1.3,1.36-1.91,2.08-.3.36-.62.71-.92,1.08L223,124.7l-.44.55c-.15.19-.28.38-.42.57l-.84,1.14-.21.29-.2.29-.4.59-.79,1.18c.49-.81,1-1.63,1.49-2.42l.8-1.17.4-.59.43-.57.86-1.14c.29-.37.6-.73.9-1.1.59-.74,1.24-1.43,1.87-2.14a45,45,0,0,1,4.13-3.92c.72-.63,1.48-1.2,2.23-1.79s1.53-1.12,2.33-1.64a47.53,47.53,0,0,1,5-2.83,43.83,43.83,0,0,1,5.24-2.23A39.56,39.56,0,0,1,256.39,105.42Z"/><circle class="cls-18" cx="267.61" cy="166.97" r="8.62"/><path class="cls-19" d="M245.24,168.55a8.63,8.63,0,0,1-6.1,8.25,48,48,0,0,1-5.35-16.4,8.79,8.79,0,0,1,2.83-.47A8.62,8.62,0,0,1,245.24,168.55Z"/><path class="cls-9" d="M246.17,159.66a10.37,10.37,0,0,0-2.4-1.51,5.42,5.42,0,0,0-2.61-.46,5.59,5.59,0,0,0-2.51.89,14.75,14.75,0,0,0-2.23,1.78,7.43,7.43,0,0,1,1.89-2.29,5.13,5.13,0,0,1,2.78-1.17,5,5,0,0,1,2.94.7A6.12,6.12,0,0,1,246.17,159.66Z"/><path class="cls-9" d="M262.34,157.43a9.81,9.81,0,0,0-2.4-1.5,5.31,5.31,0,0,0-2.61-.47,5.6,5.6,0,0,0-2.51.9,14.68,14.68,0,0,0-2.23,1.77,7.55,7.55,0,0,1,1.89-2.29,5.12,5.12,0,0,1,2.78-1.16,4.94,4.94,0,0,1,2.94.69A6.3,6.3,0,0,1,262.34,157.43Z"/><path class="cls-9" d="M250.31,162.39c-.48,1.32-.92,2.64-1.31,4-.2.67-.39,1.34-.54,2a17.65,17.65,0,0,0-.37,2,7.19,7.19,0,0,0,0,2A2,2,0,0,0,249,174a3.08,3.08,0,0,0,2,.09,11.68,11.68,0,0,0,2-.63,9.43,9.43,0,0,1-1.92.85,4.73,4.73,0,0,1-1.06.2,2.48,2.48,0,0,1-1.1-.18,1.87,1.87,0,0,1-.86-.76,3.16,3.16,0,0,1-.38-1.05,7.75,7.75,0,0,1,0-2.15,20.33,20.33,0,0,1,1-4.1A29.92,29.92,0,0,1,250.31,162.39Z"/><path class="cls-20" d="M262.19,174.59s-2.82,8.37-8.84,7.36a9.06,9.06,0,0,1-7.4-6s.46.19,1.27.43c2.6.77,8.78,2,14.32-1.36h0Z"/><path class="cls-13" d="M282.12,81.75a45.48,45.48,0,0,1,13.9,1c.76.17,1.51.37,2.26.57s1.5.45,2.23.71a38.78,38.78,0,0,1,4.31,1.8,32.45,32.45,0,0,1,4.05,2.33,31.06,31.06,0,0,1,6.88,6.26,35,35,0,0,0-3.35-3.21l-.44-.38-.46-.36-.91-.71c-.64-.43-1.25-.9-1.92-1.3a38.07,38.07,0,0,0-8.31-4,47.84,47.84,0,0,0-9-2.19c-1.53-.23-3.07-.39-4.62-.49A44.86,44.86,0,0,0,282.12,81.75Z"/><path class="cls-14" d="M275.39,208.85c-6.8-1-9.34-5.41-10.25-8,1.79,2,6.43,6.53,11.76,6.68,6.84.19,14.55-5.69,14.55-5.69s3.92-4,4.41-7C299.64,199.45,285.06,210.34,275.39,208.85Z"/><path class="cls-10" d="M288.89,160.85c0,2.37-1.33,4.3-3,4.3-1.33,0-2.47-1.27-2.84-3h0a5.81,5.81,0,0,1-.14-1.27c0-2.38,1.34-4.31,3-4.31a3,3,0,0,1,2.58,2.14h0A5.69,5.69,0,0,1,288.89,160.85Z"/><path class="cls-11" d="M288.62,160c0,2.38-1.33,4.31-3,4.31a3,3,0,0,1-2.57-2.14h0a5.81,5.81,0,0,1-.14-1.27c0-2.38,1.34-4.31,3-4.31a3,3,0,0,1,2.58,2.14h0A5.82,5.82,0,0,1,288.62,160Z"/><path class="cls-21" d="M95.85,296c0-1.58,0-3.12-.15-4.68s-.29-3.09-.51-4.63a72.46,72.46,0,0,0-1.91-9.1,67.56,67.56,0,0,0-3.09-8.77,62,62,0,0,0-4.3-8.24,57.15,57.15,0,0,0-12.17-13.95c-1.2-1-2.42-1.93-3.7-2.8-.63-.46-1.28-.87-1.92-1.3l-1-.61c-.33-.2-.65-.41-1-.6a66.74,66.74,0,0,0-8.3-4.12,68,68,0,0,1,8.25,4.19l1,.61c.32.21.66.41,1,.63.63.43,1.28.85,1.91,1.31,1.26.88,2.47,1.84,3.66,2.83a57.1,57.1,0,0,1,12,14A62.42,62.42,0,0,1,89.78,269a67.15,67.15,0,0,1,3,8.74,71.39,71.39,0,0,1,1.81,9.05c.21,1.52.36,3.06.47,4.59s.15,3.08.1,4.59v0a.35.35,0,0,0,.34.36.36.36,0,0,0,.37-.34Z"/><path class="cls-4" d="M94.6,285.12s-12.87-11.83-15.47-3.34C77.06,288.55,94.6,285.12,94.6,285.12Z"/><path class="cls-4" d="M94.59,285.18s4.46-16.9,11.23-11.15C111.2,278.61,94.59,285.18,94.59,285.18Z"/><path class="cls-4" d="M91.57,273.12S78.67,262.77,76.75,271C75.23,277.47,91.57,273.12,91.57,273.12Z"/><path class="cls-4" d="M91.57,273.14s3.13-16.24,9.89-11.24C106.84,265.88,91.57,273.14,91.57,273.14Z"/><path class="cls-4" d="M86.82,262.47s-14.69-7.61-14.95.8C71.66,270,86.82,262.47,86.82,262.47Z"/><path class="cls-4" d="M86.82,262.44s-.13-16.55,7.48-13C100.36,252.31,86.82,262.44,86.82,262.44Z"/><path class="cls-4" d="M70.37,244.15s-11.54-1-9.47,4.5C62.55,253,70.37,244.15,70.37,244.15Z"/><path class="cls-4" d="M70.37,244.16s-4.5-10.68,1.39-10.39C76.44,234,70.37,244.16,70.37,244.16Z"/><path class="cls-4" d="M78.52,251.21s-13-4-12,2.83C67.38,259.47,78.52,251.21,78.52,251.21Z"/><path class="cls-4" d="M78.46,251.26s-2.53-13.33,4.13-11.56C87.9,241.1,78.46,251.26,78.46,251.26Z"/><path class="cls-4" d="M65.25,240.79s-7.41-7.31-9.13-2.31C54.75,242.46,65.25,240.79,65.25,240.79Z"/><path class="cls-15" d="M113.06,292.5l-6.17,32.83-.37,2H81.38l-6.54-34.8a4.51,4.51,0,0,1,4.43-5.35h29.36A4.52,4.52,0,0,1,113.06,292.5Z"/><path class="cls-10" d="M106.89,325.33l-.37,2H81.38l-6.54-34.8a4.51,4.51,0,0,1,.44-2.94C76.53,295,80,308.09,85.75,315.23,90.84,321.56,101.09,324.26,106.89,325.33Z"/><path class="cls-22" d="M95,288.56s14.2-.61,15.35,0,1.58,2.91,1.58,2.91l-1.67,7.41s1.23-7.23.44-8.46S95,288.56,95,288.56Z"/><g class="cls-23"><path class="cls-24" d="M96.25,301.13c0,.48-.28.87-.62.87s-.62-.39-.62-.87.27-.87.62-.87S96.25,300.65,96.25,301.13Z"/><path class="cls-24" d="M100.86,293.17c0,.48-.28.87-.62.87s-.62-.39-.62-.87.27-.87.62-.87S100.86,292.69,100.86,293.17Z"/><path class="cls-24" d="M98.5,309.12c0,.48-.27.87-.62.87s-.62-.39-.62-.87.28-.87.62-.87S98.5,308.64,98.5,309.12Z"/><path class="cls-24" d="M83.59,298c0,.48-.28.87-.62.87s-.62-.39-.62-.87.28-.87.62-.87S83.59,297.53,83.59,298Z"/><path class="cls-24" d="M89.68,314c0,.48-.28.87-.62.87s-.62-.39-.62-.87.28-.87.62-.87S89.68,313.49,89.68,314Z"/><path class="cls-24" d="M93.56,322.68c0,.48-.28.87-.62.87s-.62-.39-.62-.87.27-.87.62-.87S93.56,322.2,93.56,322.68Z"/><path class="cls-24" d="M94,310.54c0,.79-.45,1.42-1,1.42s-1-.63-1-1.42.46-1.42,1-1.42S94,309.76,94,310.54Z"/><path class="cls-24" d="M104.45,317.86c0,.78-.46,1.42-1,1.42s-1-.64-1-1.42.45-1.42,1-1.42S104.45,317.07,104.45,317.86Z"/><path class="cls-24" d="M89.45,305.81c0,.78-.45,1.42-1,1.42s-1-.64-1-1.42.46-1.42,1-1.42S89.45,305,89.45,305.81Z"/><path class="cls-24" d="M91.84,295c0,.78-.45,1.42-1,1.42s-1-.64-1-1.42.46-1.42,1-1.42S91.84,294.22,91.84,295Z"/><path class="cls-24" d="M86.58,320.39c0,.78-.45,1.42-1,1.42s-1-.64-1-1.42.45-1.42,1-1.42S86.58,319.6,86.58,320.39Z"/><path class="cls-24" d="M97.26,313.1c0,.4-.45.71-1,.71s-1-.31-1-.71.46-.71,1-.71S97.26,312.71,97.26,313.1Z"/><path class="cls-24" d="M99.52,324.26c0,.39-.45.71-1,.71s-1-.32-1-.71.45-.71,1-.71S99.52,323.86,99.52,324.26Z"/><path class="cls-24" d="M107.91,302.71c0,.4-.46.71-1,.71s-1-.31-1-.71.45-.71,1-.71S107.91,302.32,107.91,302.71Z"/></g><polyline class="cls-25" points="240.27 319.98 236.11 319.98 236.11 325.89 240.27 325.89"/><path class="cls-26" d="M236.11,325.89H131.72l-9.53-83.95v0h104.4Z"/><rect class="cls-27" x="240.27" y="319.98" width="32.01" height="5.91"/><polygon class="cls-27" points="226.58 241.91 231.1 240.57 240.13 324.39 236.11 325.89 226.58 241.91"/><polygon class="cls-28" points="122.18 241.91 127.37 240.57 231.1 240.57 226.58 241.91 122.18 241.91"/><ellipse class="cls-29" cx="178.61" cy="282.53" rx="10.29" ry="8.78"/><path class="cls-30" d="M221.19,325.89H131.72l-9.53-83.95C122.5,243.82,136,321.65,221.19,325.89Z"/><polygon class="cls-31" points="192 242.66 225.84 242.66 228.24 265.58 224.52 244.22 192 242.66"/><rect class="cls-32" x="242.05" y="29.42" width="66.81" height="38.15" transform="translate(1.22 103.46) rotate(-21.32)"/><polygon class="cls-3" points="299.25 18.73 298.26 19.12 287.5 43.65 287.2 44.34 280.13 60.47 263.99 53.4 263.3 53.09 238.77 42.33 237.78 42.72 263 53.78 252.39 77.97 253.38 77.58 263.69 54.08 280.51 61.46 287.89 44.64 311.39 54.95 312.38 54.56 288.19 43.95 299.25 18.73"/><path class="cls-32" d="M183.43,167.84V159a20.22,20.22,0,0,0-20.22-20.23H97A20.23,20.23,0,0,0,76.76,159v8.89A20.22,20.22,0,0,0,97,188.06H144.6L178,198l-5.47-12.19A20.21,20.21,0,0,0,183.43,167.84Z"/><path class="cls-3" d="M167.07,154.2H92.45a2.68,2.68,0,0,1-2.67-2.68h0a2.68,2.68,0,0,1,2.67-2.68h74.62a2.68,2.68,0,0,1,2.68,2.68h0A2.68,2.68,0,0,1,167.07,154.2Z"/><path class="cls-3" d="M167.07,165.57H92.45a2.68,2.68,0,0,1-2.67-2.67h0a2.68,2.68,0,0,1,2.67-2.68h74.62a2.68,2.68,0,0,1,2.68,2.68h0A2.68,2.68,0,0,1,167.07,165.57Z"/><rect class="cls-3" x="89.78" y="171.59" width="51.19" height="5.35" rx="2.14"/><path class="cls-33" d="M397.53,289.7V296a2,2,0,0,1-2,2H395a2,2,0,0,1-2-2V289.7a2,2,0,0,1,.3-1,2,2,0,0,1,1.71-1h.5a2,2,0,0,1,2,2Z"/><path class="cls-33" d="M385.66,289.7V296a2,2,0,0,1-2,2h-.5a2,2,0,0,1-2-2V289.7a2.06,2.06,0,0,1,.29-1,2,2,0,0,1,1.72-1h.5a2,2,0,0,1,2,2Z"/><path class="cls-15" d="M409.46,325.91H368c-2.55,0-4.31-3.28-3.36-6.31l.89-2.86,5.66-18.17a3.75,3.75,0,0,1,3.37-2.91h28.33a3.73,3.73,0,0,1,3.36,2.91L411.08,314l1.75,5.62C413.77,322.63,412,325.91,409.46,325.91Z"/><path class="cls-34" d="M385.66,289.7v1.87h-4.52V289.7a2.06,2.06,0,0,1,.29-1l3.81-.18A2,2,0,0,1,385.66,289.7Z"/><path class="cls-34" d="M397.53,289.7v1.87H393V289.7a2,2,0,0,1,.3-1l3.8-.18A2,2,0,0,1,397.53,289.7Z"/><path class="cls-10" d="M409.46,325.91H368c-2.55,0-4.31-3.28-3.36-6.31l.89-2.86c.95,1,2.95,2.16,6.88,3.48,10.79,3.61,30.37,1.36,30.37,1.36a14.63,14.63,0,0,0,8.28-7.6l1.75,5.62C413.77,322.63,412,325.91,409.46,325.91Z"/><path class="cls-15" d="M419,296.94a2.91,2.91,0,0,1-2.91,2.91h-6.21a2.94,2.94,0,0,1-2.85-2.29c-.55-2.38-2-5.88-5.72-6.77a3.15,3.15,0,0,0-.61-.06H376.94a3.15,3.15,0,0,0-.61.06c-3.74.89-5.18,4.39-5.72,6.77a2.94,2.94,0,0,1-2.85,2.29h-6.21a2.9,2.9,0,0,1-2.91-2.91,18.77,18.77,0,0,1,1.6-8c2.09-4.33,8.05-5.46,9.3-5.65a2.15,2.15,0,0,1,.43,0h37.65a2.18,2.18,0,0,1,.44,0c1.24.19,7.21,1.32,9.3,5.65A18.77,18.77,0,0,1,419,296.94Z"/><path class="cls-10" d="M415.56,299.85h-5.72a2.94,2.94,0,0,1-2.85-2.29c-.55-2.38-2-5.88-5.72-6.77a3.15,3.15,0,0,0-.61-.06H376.94a3.15,3.15,0,0,0-.61.06c-3.74.89-5.18,4.39-5.72,6.77a2.94,2.94,0,0,1-2.85,2.29h-4.11c.33,0,6.24-.76,6.47-5.38s7.47-5.44,14.38-5.15,16.18-1,18.74,0,4.35,3.67,4.91,6.34,5.13,3.91,7,3.95C415.41,299.62,415.53,299.7,415.56,299.85Z"/><path class="cls-35" d="M360.2,291s1.44-6.34,9.36-7A16.88,16.88,0,0,0,360.2,291Z"/><path class="cls-35" d="M370.67,303.08l1.32-4.62a2.61,2.61,0,0,1,2.76-2h6.06l-5.82,1s-2,.66-2.4,1.62S370.67,303.08,370.67,303.08Z"/><rect class="cls-10" x="380.48" y="302.11" width="6.84" height="2.79" rx="0.52"/><rect class="cls-10" x="391.19" y="302.11" width="6.84" height="2.79" rx="0.52"/><rect class="cls-10" x="380.48" y="306.73" width="6.84" height="2.79" rx="0.52"/><rect class="cls-10" x="391.19" y="306.73" width="6.84" height="2.79" rx="0.52"/><rect class="cls-10" x="380.48" y="311.35" width="6.84" height="2.79" rx="0.52"/><rect class="cls-10" x="391.19" y="311.35" width="6.84" height="2.79" rx="0.52"/><circle class="cls-32" cx="379.61" cy="130.86" r="30.21" transform="translate(189.59 484.59) rotate(-80.78)"/><path class="cls-3" d="M395.71,147.67h0c-2.24,2.32-6.27,2.71-11,1.45a41.74,41.74,0,0,1-24-19.75c-2.15-4.37-2.54-8.41-.7-11.05h0a7.56,7.56,0,0,1,7.71-2,2.32,2.32,0,0,1,1.41,1.28,29.42,29.42,0,0,0,3.27,5.57,2.29,2.29,0,0,1,.4,1.83,7.36,7.36,0,0,1-1.56,3.26v0a2.31,2.31,0,0,0,.06,3.05,43.82,43.82,0,0,0,4.46,4.2,45.39,45.39,0,0,0,5,3.56,2.31,2.31,0,0,0,3-.53v0a7.57,7.57,0,0,1,2.9-2.16,2.3,2.3,0,0,1,1.87,0,29.1,29.1,0,0,0,6.1,2.13,2.34,2.34,0,0,1,1.53,1.14,7.6,7.6,0,0,1,.93,3.84A7.5,7.5,0,0,1,395.71,147.67Z"/><path class="cls-3" d="M390.67,131.53a.57.57,0,0,1-.21-.4,12.09,12.09,0,0,0-13.21-10.86.59.59,0,1,1-.12-1.17,13.22,13.22,0,0,1,9.72,3,13.09,13.09,0,0,1,3.32,4.08,13.22,13.22,0,0,1,1.46,4.87.6.6,0,0,1-.53.65A.63.63,0,0,1,390.67,131.53Z"/><path class="cls-3" d="M394.24,131.18a.65.65,0,0,1-.21-.4A15.64,15.64,0,0,0,376.9,116.7a.6.6,0,0,1-.65-.53.59.59,0,0,1,.53-.64,16.67,16.67,0,0,1,6.44.61,16.81,16.81,0,0,1,12,14.53.58.58,0,0,1-.53.64A.65.65,0,0,1,394.24,131.18Z"/><path class="cls-3" d="M397.54,130.85a.53.53,0,0,1-.21-.39,19,19,0,0,0-20.76-17.06.58.58,0,0,1-.64-.53.59.59,0,0,1,.53-.64,20.16,20.16,0,0,1,22,18.11.59.59,0,0,1-.53.64A.54.54,0,0,1,397.54,130.85Z"/><rect class="cls-36" x="39.32" y="325.13" width="408.81" height="13" rx="3.05"/></g></g></g></svg>