<svg xmlns="http://www.w3.org/2000/svg" viewBox="0 0 384 384"><defs><style>.cls-1{fill:#fefdfe;}.cls-2{fill:#7738c6;}.cls-3{fill:#181e8f;}.cls-4{fill:#fe4b3d;}.cls-5{fill:#fcab7c;}.cls-6{fill:#fe4c3e;}.cls-7{fill:#fdc418;}.cls-8{fill:#fec51b;}.cls-9{fill:#191e8f;}.cls-10{fill:#7839c5;}.cls-11{fill:#faa87d;}.cls-12{fill:#fdac7d;}.cls-13{fill:#d11933;}.cls-14{fill:#fc4c40;}.cls-15{fill:#fefaf9;}.cls-16{fill:#f5bb23;}.cls-17{fill:#fefdfd;}.cls-18{fill:#fdab7b;}.cls-19{fill:#fdfcfc;}.cls-20{fill:#fefbfb;}.cls-21{fill:#d21932;}.cls-22{fill:#d21b32;}.cls-23{fill:#fdcc91;}.cls-24{fill:#fe4f40;}.cls-25{fill:#fec218;}.cls-26{fill:#793bc2;}.cls-27{fill:#fefdfa;}.cls-28{fill:#fefaed;}</style></defs><g id="Layer_2" data-name="Layer 2"><g id="Layer_1-2" data-name="Layer 1"><path class="cls-1" d="M384,384H0V0H384Zm-54.63-33.7-1.88-10.39c.95-.27,1.88-.6,2.84-.8,10.32-2.23,19.74-6.27,27.3-13.86,5.66-5.69,8.35-12.48,6.19-20.45-1.36-5-2.62-10.3-5.23-14.69-6.27-10.59-13.31-20.72-20-31,8.63-3.69,15.77-9.18,19.92-17.74a59.07,59.07,0,0,0,4.82-38.52c-2.36-11.45-9.69-19.76-18.38-26.92-6.37-5.25-11.52-11.3-14.87-18.86a151.28,151.28,0,0,1-10.79-37.51c-.22-.74-.43-1.49-.64-2.24,0-2.49,0-5,0-7.48.16-16.32-1.38-32.36-8-47.53-5.69-13-14.48-23.16-28.32-27.58-29.5-9.43-59.7-15.12-90.81-15.16-8.95,0-15.76,3.73-19.52,11.93a49.65,49.65,0,0,0-3.21,11c-.53,2.72-.4,5.18-4,6.22-1.95.57-3.81,2.51-5,4.3C151,65.88,146.23,79.87,148.88,95.66c2.14,12.78,8.17,23.94,14.83,34.81-7,3.62-11,9.17-9.79,17.16,1.12,7.39,6,11.74,13.29,13.37.68,3,.94,6.22,2.13,9,4.27,10.09,3.45,19.76-1.07,29.55a56.23,56.23,0,0,0-5.63,24.15H28.79c-6.78,0-9.24,2.47-9.25,9.27q0,44.72,0,89.45c0,7,2.39,9.31,9.53,9.33l31.87.09c-.82,1.53-1.6,3.09-2.45,4.61-2.83,5-5.88,9.86-8.48,15-2.73,5.36,0,9.79,6,10.16.87.06,1.75,0,2.63,0q35.42,0,70.83,0c1.12,0,2.48.28,3.31-.24,1.46-.92,3.3-2.18,3.67-3.62.3-1.21-1.06-3.08-2.1-4.3-.74-.86-2.15-1.19-3.31-1.63-8-3.06-16.09-6.08-24.13-9.14-1.1-.42-2.16-1-3.48-1.55l5.4-9.45,41.85.25a7.37,7.37,0,0,0,.28,2.18c1.39,3.09,2.36,6.6,4.55,9,1.1,1.2,4.48.31,6.83.37a2.37,2.37,0,0,1,.36.09l1.43,2.9c-.87.06-1.75.07-2.61.19a7.69,7.69,0,0,0-6.94,7.89,7.51,7.51,0,0,0,7.36,7.05c1,.06,2,0,3,0q39.09,0,78.17.07c5.36,0,10.72-.14,16.07-.21h14a63.61,63.61,0,0,0,42,0c2.09,0,4.2.18,6.29.09C329.29,361.26,331.67,357.82,329.37,350.3ZM136.39,98l.73-1.67c-.86-1-1.7-2-2.58-3-2-2.23-4-4.41-6-6.67a6.72,6.72,0,0,1-1.44-6.82,54.64,54.64,0,0,0,1.83-13.27c.18-24.67-20.09-45.69-44.56-46.49-25.77-.84-47.47,18.4-49.1,43.54a47,47,0,0,0,83.56,32.49c.68-.85,1.42-1.65,1.48-1.72Zm-45.1,91.43h4.14c9,0,18,0,27,0,6.27,0,9.31-2.9,9.34-9q.1-20.22,0-40.44c0-5.85-3.25-9-9.14-9q-34.87,0-69.76,0c-5.93,0-9.15,3-9.19,8.92q-.16,20.22,0,40.43c0,6.27,3,9.09,9.28,9.12,7.25,0,14.51.2,21.75-.08,3.34-.13,5.13.84,6.53,3.94a16.86,16.86,0,0,0,8.74,9.1C90.44,197.8,90.83,194,91.29,189.46Z"/><path class="cls-2" d="M60.94,331.87l-31.87-.09c-7.14,0-9.53-2.34-9.53-9.33q0-44.73,0-89.45c0-6.8,2.47-9.27,9.25-9.27H162.64c5.84,0,11.68,0,17.53.05,5.44,0,8,2.57,8.07,7.93s.07,10.92.1,16.38l.14,63.5c-.06,3.72-.15,7.44-.18,11.16-.05,6.66-2.32,8.95-8.93,9l-28.71.23-41.85-.25c.66-1.33,1.28-2.68,2-4,6.17-11.38,12.41-22.73,18.53-34.14,3-5.68.43-9.84-6-9.81-8.62,0-17.23.23-25.84.16-6.11,0-10.2,2.45-13.24,7.9C76.69,305.31,68.72,318.54,60.94,331.87Zm102.64-10.82c-1.86-1.36-3-2.81-4-2.75s-2.06,1.57-3.08,2.45c1,1.08,1.8,2.75,3,3C160.33,324,161.64,322.42,163.58,321.05Zm-12.17.1c-2-1.49-3.17-3-4-2.88-1.21.23-2.19,1.74-3.26,2.69.91,1,1.77,2.76,2.76,2.84S149.25,322.5,151.41,321.15Z"/><path class="cls-3" d="M163.71,130.48c-6.66-10.88-12.69-22-14.83-34.82C146.23,79.87,151,65.88,159.76,53c1.22-1.79,3.08-3.73,5-4.3,3.55-1,3.42-3.5,4-6.22a49.65,49.65,0,0,1,3.21-11c3.76-8.2,10.57-11.94,19.52-11.93,31.11,0,61.31,5.73,90.81,15.16,13.84,4.42,22.63,14.56,28.32,27.58,6.63,15.17,8.17,31.21,8,47.53,0,2.5,0,5,0,7.48-.16-.59-.31-1.18-.47-1.77A16.07,16.07,0,0,0,299.3,104a15.6,15.6,0,0,0-12.05,17.66,51.74,51.74,0,0,0,1.93,6.74c-10.64-2.94-11.75-12-14.23-20-13.74,5.58-27.66,8.23-42.3,6.84-11.44-1.08-20.75-5.78-27.79-14.94a72.36,72.36,0,0,1-11.41-22.55c-.39-1.23-.81-2.45-1.1-3.33-3.91,8.51-7.64,17.13-11.8,25.53-5.09,10.25-7.31,21.11-7.91,32.41L169,138Z"/><path class="cls-4" d="M188.48,311.58l-.15-63.5c7.37-12.51,18.42-20.31,32-24.92-1.18,3.09-3,6.11-3.39,9.29a71.92,71.92,0,0,0,.09,15.66,177.34,177.34,0,0,0,3.93,21.95c1.09,4.32,3.4,4.92,6.9,2.19,6.57-5.14,12.81-10.68,19.25-16a19.67,19.67,0,0,1,3.42-1.85c6.43,5.87,12.77,11.84,19.34,17.55a24.86,24.86,0,0,0,6.52,3.54c2.79,1.22,4.82.36,5.82-2.66s2.26-6.07,3.23-9.15c4-12.79,9.07-25.36,8.7-39.13,10.93,4.14,20.93,9.79,29.13,18.24,5.19,5.34,10.22,10.84,15.32,16.26,6.73,10.32,13.77,20.45,20,31,2.61,4.39,3.87,9.67,5.23,14.69,2.16,8-.53,14.76-6.19,20.45-7.56,7.59-17,11.63-27.3,13.86-1,.2-1.89.53-2.84.8-4.17.36-8.35.78-12.53,1.08-9.83.69-19.61,2.82-29.51.92,6.1-2,9.21-6.47,10.34-12.51,1.74-9.36-1.17-17.39-7.2-24.49.38-.29.74-.8,1.15-.85,6.89-.84,13.77-2,20.68-2.32,7.23-.32,13.41,2.16,17.38,8.82.69,1.17,2.34,1.78,3.55,2.65l1-1.15c-1.78-4.58-5.17-7.94-9.37-10.68l.41-.85,12.86,2.67.48-1.08c-1.17-1-2.19-2.43-3.54-2.86a37.91,37.91,0,0,0-9.35-2c-6.09-.34-11.52-1.27-14.29-7.73A23.49,23.49,0,0,0,305.8,284a37.76,37.76,0,0,0-4-3.62l-1.39,1c1.53,4.35,3.06,8.7,4.75,13.53-3,1-5.86,2.12-8.8,3-4.26,1.29-8.56,2.44-12.84,3.65-9.28-3.39-17.83-.92-26.18,3.21-3.86.08-7.69.66-9.91,4.16s-4.43,3.09-7.53,1.66c-4.27-2-6.06-.61-5.82,4.15a7.42,7.42,0,0,0,.61,2.9c2.68,5.38,1.55,10.64-.22,15.94a17,17,0,0,0-1.08,4.7c0,1.26.26,3,1.09,3.66s2.65.22,3.62-.4c3.32-2.11,6.46-4.51,8.5-6,3.8,1.14,6.74,1.92,9.59,2.94,1.37.48,2.51,1.54,3.84,2.16a25.26,25.26,0,0,0,5.08,1.93c2.12.45,4.44.14,6.47.8,2.43.79,4.56,1.05,6.67-.55l6.35,4-4.09,2.22-4.86,3c-2.56,2.69-4.81,5.46-2.46,9.43h-14c3-1.87,5.18-4.28,4.8-8.15-.43-4.26-3.6-6.72-8.81-6.74q-26.73-.09-53.48-.12c.27-5.82.45-11.65.85-17.46.32-4.68,1-9.33,1.36-14,.38-5.17.55-10.36.8-15.54l-.54,0q-3,6.36-5.95,12.73c-.87-2.95-2.54-3.51-5.25-2.05A25,25,0,0,1,188.48,311.58Z"/><path class="cls-5" d="M172.64,132.34c.6-11.3,2.82-22.16,7.91-32.41,4.16-8.4,7.89-17,11.8-25.53.29.88.71,2.1,1.1,3.33a72.36,72.36,0,0,0,11.41,22.55c7,9.16,16.35,13.86,27.79,14.94,14.64,1.39,28.56-1.26,42.3-6.84,2.48,8.06,3.59,17.1,14.23,20a51.74,51.74,0,0,1-1.93-6.74A15.6,15.6,0,0,1,299.3,104a16.07,16.07,0,0,1,18.85,11.49c.16.59.31,1.18.47,1.77.21.75.42,1.5.64,2.25a30.16,30.16,0,0,0-1.15,3.13c-1.82,7.24-7.2,12.2-14.56,12.26-3.44,0-6.89-1.61-10.33-2.49-.11-.16-.22-.32-.32-.48l-.14.29.49.15c.64,5.66,1.43,11.3,1.87,17,1.31,16.69-2.45,31.6-16.76,41.9-4,2.9-5.59,5.85-4.76,10.43a10.56,10.56,0,0,1,.09,1.12c0,4-.3,8,.23,11.95a7.86,7.86,0,0,1-1.49,6.15c-7.37,10.67-14.64,21.39-22,32.1-.81-.95-1.92-1.76-2.39-2.85-4-9.23-7.76-18.54-11.79-27.75a9.93,9.93,0,0,1-.22-8.19c7.58-.68,14.27-3.92,20.64-7.71,3.43-2,6.36-4.93,9.52-7.43a1.38,1.38,0,0,0,.3-.14s0-.15,0-.23l-.37.34c-5.89,1.84-11.76,3.75-17.68,5.49-4.35,1.28-8.75,2.34-13.13,3.49a.51.51,0,0,1-.41-.2,29.18,29.18,0,0,0-3.24,0c-19.73,2.33-36.58-6.21-45.11-22.88,2.23-2.81,4.81-5.76,3.68-9.53-.84-2.8-2.88-5.24-4.39-7.84,9.71-2,14.62-8.39,16-17.75.49-3.31,2.34-5,5.29-5.21,2.76-.19,5.33.56,6.62,3.71a20.22,20.22,0,0,0,3.44,5.26c5.21,6.1,12.14,7.27,19.67,6.56,0,1,0,2,0,3,.31,5.78,4.19,9.28,9.7,9.82,6.15.61,10.89-5,11.29-9.13.53-5.48-3.24-10.22-9-11.19,1.31-4,2.56-7.95,4-11.87a5,5,0,0,1,1.94-2.25c.67-.46,1.83-.22,2.47-.7a18.06,18.06,0,0,0,2.5-2.72,11.15,11.15,0,0,0-3.19-1.15,18.16,18.16,0,0,0-3.93.61c-5.3-10.75-12.8-16.07-21.38-15.24-10.93,1-16.11,6.57-19.75,21.06l-9.7,1a13.39,13.39,0,0,1-.68-1.7C197.81,127.75,183.94,120.51,172.64,132.34Zm128.08-6.64.35.28-.31-.32a5.39,5.39,0,0,1,1-1.34c1.31-.9,3.84-1.74,3.81-2.51-.07-1.55-1.51-3-2.61-5l5.18-1.61a6,6,0,0,0-7.16-2.67c-3.37.9-5.41,3.35-5.34,6.76C295.72,122.42,297.07,125.13,300.72,125.7Zm-89.07,35.21-.63-.38a58.71,58.71,0,0,0-1.24-6.93c-.34-1.16-1.52-2.07-2.32-3.1a15.81,15.81,0,0,0-2.25,2.7c-3.05,6-6.07,12-12.31,15.55-2.47,1.41-2.14,4.13.34,6.19,4,3.37,11.14,2.49,14.06-2.42C209.38,169,210.24,164.8,211.65,160.91Z"/><path class="cls-3" d="M273.69,202.81a10.56,10.56,0,0,0-.09-1.12c-.83-4.58.73-7.53,4.76-10.43,14.31-10.3,18.07-25.21,16.76-41.9-.44-5.67-1.23-11.31-1.87-17l0,0c3.44.88,6.89,2.52,10.33,2.49,7.36-.06,12.74-5,14.56-12.26a30.16,30.16,0,0,1,1.15-3.13A151.33,151.33,0,0,0,330.05,157c3.35,7.56,8.5,13.61,14.87,18.86,8.69,7.16,16,15.47,18.38,26.92a59.07,59.07,0,0,1-4.82,38.52c-4.15,8.56-11.29,14-19.92,17.74-5.11-5.42-10.14-10.92-15.33-16.26-8.2-8.45-18.2-14.1-29.13-18.24-.61-1.35-.9-3-1.89-4C286.12,214.55,279.88,208.71,273.69,202.81Z"/><path class="cls-6" d="M136.39,98l-16.09-3.6c-.06.07-.8.87-1.48,1.72A47,47,0,0,1,35.26,63.66c1.63-25.14,23.33-44.38,49.1-43.54,24.47.8,44.74,21.82,44.56,46.49a54.64,54.64,0,0,1-1.83,13.27,6.72,6.72,0,0,0,1.44,6.82c2,2.26,4,4.44,6,6.67.88,1,1.72,2,2.58,3ZM89.94,63.18v-7.1c0-10.75,0-10.75-10.78-10.53-4.12.08-5.54,1.46-5.57,5.69-.06,6.35,0,12.7,0,19.05,0,11,.29,11.19,11.41,10.7,3.42-.14,5-1.74,5-5.11C89.91,71.64,89.94,67.41,89.94,63.18ZM65.22,69.76c0-11.29-.06-11.28-11.47-10.84-3.33.12-4.8,1.87-4.92,4.84-.16,4.09-.16,8.2,0,12.29.12,3,1.56,4.72,4.91,4.84C65.22,81.27,65.22,81.34,65.22,69.76Zm33.86.45c0,2-.06,4,0,6,.1,2.47,1.1,4.82,3.8,4.61,4.16-.31,9.12,2.45,12.27-2.61a2.14,2.14,0,0,0,.23-1.08c0-4.73.12-9.46,0-14.18a3.83,3.83,0,0,0-4.08-4C100,58.78,98.68,57.58,99.08,69.46Z"/><path class="cls-7" d="M60.94,331.87c7.78-13.33,15.75-26.56,23.27-40,3-5.45,7.13-7.94,13.24-7.9,8.61.07,17.22-.12,25.84-.16,6.47,0,9.08,4.13,6,9.81C123.21,305,117,316.35,110.8,327.73c-.71,1.31-1.33,2.66-2,4l-5.4,9.45c1.32.59,2.38,1.13,3.48,1.55,8,3.06,16.1,6.08,24.13,9.14,1.16.44,2.57.77,3.31,1.63,1,1.22,2.4,3.09,2.1,4.3-.37,1.44-2.21,2.7-3.67,3.62-.83.52-2.19.24-3.31.24q-35.41,0-70.83,0c-.88,0-1.76,0-2.63,0-6-.37-8.71-4.8-6-10.16,2.6-5.1,5.65-10,8.48-15C59.34,335,60.12,333.4,60.94,331.87Z"/><path class="cls-8" d="M91.29,189.46c-.46,4.49-.85,8.34-1.31,12.95a16.86,16.86,0,0,1-8.74-9.1c-1.4-3.1-3.19-4.07-6.53-3.94-7.24.28-14.5.11-21.75.08-6.25,0-9.24-2.85-9.28-9.12q-.13-20.21,0-40.43C43.73,134,47,131,52.88,131q34.87,0,69.76,0c5.89,0,9.11,3.13,9.14,9q.1,20.22,0,40.44c0,6.15-3.07,9-9.34,9-9,0-18,0-27,0ZM89,161.67H69.54v-17c-9.5-.23-17.77,8.6-17.61,18.38.17,10.43,9.33,19.1,19.49,18.47C82,180.84,89.85,172.23,89,161.67Zm3.86-2.48c0-10-9.22-18.24-19.13-17.26v17.26Zm20.32-10.36a74.29,74.29,0,0,0,8.58-.11c1.18-.13,2.22-1.45,3.33-2.23-1.11-.91-2.18-2.56-3.32-2.61-5.72-.27-11.46-.27-17.17,0-1.15.05-2.21,1.7-3.31,2.61,1.1.78,2.14,2.1,3.31,2.23A74.35,74.35,0,0,0,113.13,148.83ZM113,160.28c3,0,6,.18,9-.1,1.06-.1,2-1.33,3-2-1-.86-2-2.43-3-2.47-6-.23-12-.21-17.94,0-1,0-1.86,1.46-2.79,2.25.92.78,1.79,2.14,2.78,2.24C107,160.46,110,160.27,113,160.28Zm-7.67,4.7c-1.78,1.51-3.77,2.38-3.93,3.51-.34,2.49,2,3,3.83,2.63,1.4-.32,2.59-1.61,3.87-2.47Zm10.84-.26-3.83,3.95c1.26.85,2.51,2.36,3.78,2.37s2.6-1.43,3.9-2.23Z"/><path class="cls-9" d="M186.64,185c8.53,16.67,25.38,25.21,45.11,22.88a29.18,29.18,0,0,1,3.24,0L220.3,223.16c-13.55,4.61-24.6,12.41-32,24.92,0-5.46,0-10.92-.09-16.38s-2.63-7.89-8.07-7.93c-5.85-.05-11.69,0-17.53-.05a56.23,56.23,0,0,1,5.63-24.15c4.52-9.79,5.34-19.46,1.07-29.55-1.19-2.8-1.45-6-2.13-9l4.64-.24,6.52,5.36Q182.51,175.54,186.64,185Z"/><path class="cls-2" d="M201.67,346.5q26.75,0,53.48.12c5.21,0,8.38,2.48,8.81,6.74.38,3.87-1.76,6.28-4.8,8.15-5.36.07-10.72.21-16.08.21q-39.09,0-78.17-.07c-1,0-2,0-3,0a7.51,7.51,0,0,1-7.36-7.05,7.69,7.69,0,0,1,6.94-7.89c.86-.12,1.74-.13,2.61-.19l19.47,0Z"/><path class="cls-10" d="M273.16,361.51c-2.35-4-.1-6.74,2.45-9.42,0,1.5.05,3.17,2.17,1.94a58.46,58.46,0,0,0,5.69-4.38l-3-.58,4.09-2.22c9.3-1.89,18.31-1.54,26.68,3.56a30.74,30.74,0,0,1,2.95,3.21c1.68,2.43,3.39,4.95,1,7.91A63.61,63.61,0,0,1,273.16,361.51Z"/><path class="cls-11" d="M188.48,311.58a25,25,0,0,0,4.46-1.45c2.71-1.46,4.38-.9,5.25,2.05-.58,3.12-1.23,6.24-1.7,9.38a15.87,15.87,0,0,0-.21,5c.69,3.88,1.83,7.68,2.51,11.56.21,1.18-.28,3.5-.81,3.61a7,7,0,0,1-4.45-.67,58,58,0,0,1-6.07-4.24c-.56-1.1-1.13-2.19-1.19-2.31-6.75,3.13-12.14,5.68-17.59,8.09-.67.3-1.71-.39-2.51-.24a22.45,22.45,0,0,0-3.49,1.19,2.37,2.37,0,0,0-.36-.09c-2.35-.06-5.73.83-6.83-.37-2.19-2.38-3.16-5.89-4.55-9a7.37,7.37,0,0,1-.28-2.18l28.71-.23c6.61-.05,8.88-2.34,8.93-9C188.33,319,188.42,315.3,188.48,311.58Z"/><path class="cls-12" d="M171.85,160.76l-4.64.24c-7.29-1.63-12.17-6-13.29-13.37-1.22-8,2.82-13.54,9.79-17.16L169,138l-.22.07c-2.71.89-5.09,2.12-5.86,5.52l5-.7C167.52,149.21,168.17,155.32,171.85,160.76Z"/><path class="cls-13" d="M311.25,350.41c-8.37-5.1-17.38-5.45-26.68-3.56l-6.35-4,.78-1.53,6.45.62c9.9,1.9,19.68-.23,29.51-.92,4.18-.3,8.36-.72,12.53-1.08q.94,5.19,1.88,10.39Z"/><path class="cls-14" d="M311.25,350.41l18.12-.11c2.3,7.52-.08,11-7.92,11.32-2.09.09-4.2-.06-6.29-.09,2.43-3,.72-5.48-1-7.91A30.74,30.74,0,0,0,311.25,350.41Z"/><path class="cls-6" d="M162.68,343.59a22.45,22.45,0,0,1,3.49-1.19c.8-.15,1.84.54,2.51.24,5.45-2.41,10.84-5,17.59-8.09.06.12.63,1.21,1.19,2.31q-1.94,4.8-3.88,9.61l-19.47,0C163.63,345.52,163.16,344.55,162.68,343.59Z"/><path class="cls-15" d="M163.58,321.05c-1.94,1.37-3.25,2.95-4.11,2.74-1.17-.29-2-2-3-3,1-.88,2-2.39,3.08-2.45S161.72,319.69,163.58,321.05Z"/><path class="cls-16" d="M151.41,321.15c-2.16,1.35-3.42,2.74-4.55,2.65S145,322,144.1,321c1.07-.95,2.05-2.46,3.26-2.69C148.24,318.11,149.43,319.66,151.41,321.15Z"/><path class="cls-15" d="M171.85,160.76c-3.68-5.44-4.33-11.55-3.95-17.88l.87-4.82L169,138l3.65-5.65c11.3-11.83,25.17-4.59,28.55,7.32a13.39,13.39,0,0,0,.68,1.7l9.7-1c3.64-14.49,8.82-20,19.75-21.06,8.58-.83,16.08,4.49,21.38,15.24a18.16,18.16,0,0,1,3.93-.61,11.15,11.15,0,0,1,3.19,1.15,18.06,18.06,0,0,1-2.5,2.72c-.64.48-1.8.24-2.47.7a5,5,0,0,0-1.94,2.25c-1.42,3.92-2.67,7.91-4,11.87l-12,7.52c-7.53.71-14.46-.46-19.67-6.56a20.22,20.22,0,0,1-3.44-5.26c-1.29-3.15-3.86-3.9-6.62-3.71-2.95.19-4.8,1.9-5.29,5.21-1.39,9.36-6.3,15.76-16,17.75l-7.56-1.46Zm-.28-10.95c.7,6.43,4,10.94,10.16,13,4.44,1.48,10.11-.69,13.3-4.77a19,19,0,0,0-.51-23.23c-4.52-5.27-12.71-6-17.62-1-2.25,2.27-3.44,5.59-5.12,8.44Zm60.81-26.36A16.45,16.45,0,1,0,249,139.81,16.61,16.61,0,0,0,232.38,123.45Z"/><path class="cls-17" d="M273.69,202.81c6.19,5.9,12.43,11.74,18.52,17.75,1,1,1.28,2.66,1.89,4,.37,13.77-4.69,26.34-8.7,39.13-1,3.08-2.2,6.08-3.23,9.15s-3,3.88-5.82,2.66a24.86,24.86,0,0,1-6.52-3.54c-6.57-5.71-12.91-11.68-19.34-17.55,0-.47,0-.94,0-1.41,7.31-10.71,14.58-21.43,22-32.1a7.86,7.86,0,0,0,1.49-6.15C273.39,210.84,273.72,206.8,273.69,202.81Z"/><path class="cls-18" d="M279,341.29l-.78,1.53c-2.11,1.6-4.24,1.34-6.67.55-2-.66-4.35-.35-6.47-.8a25.26,25.26,0,0,1-5.08-1.93c-1.33-.62-2.47-1.68-3.84-2.16-2.85-1-5.79-1.8-9.59-2.94-2,1.46-5.18,3.86-8.5,6-1,.62-2.91.94-3.62.4s-1.13-2.4-1.09-3.66a17,17,0,0,1,1.08-4.7c1.77-5.3,2.9-10.56.22-15.94a7.42,7.42,0,0,1-.61-2.9c-.24-4.76,1.55-6.13,5.82-4.15,3.1,1.43,5.41,1.71,7.53-1.66s6-4.08,9.91-4.16c3.83,1.65,7.81,3,11.46,5C281.23,316.52,285.06,328.61,279,341.29Z"/><path class="cls-19" d="M250.48,253c0,.47,0,.94,0,1.41a19.67,19.67,0,0,0-3.42,1.85c-6.44,5.3-12.68,10.84-19.25,16-3.5,2.73-5.81,2.13-6.9-2.19A177.34,177.34,0,0,1,217,248.11a71.92,71.92,0,0,1-.09-15.66c.34-3.18,2.21-6.2,3.39-9.29L235,207.83a.55.55,0,0,0,.41.21c.23,2.06.45,4.12.68,6.18a9.93,9.93,0,0,0,.22,8.19c4,9.21,7.81,18.52,11.79,27.75C248.56,251.25,249.67,252.06,250.48,253Z"/><path class="cls-20" d="M279,341.29c6.06-12.68,2.23-24.77-10.23-31.53-3.65-2-7.63-3.37-11.46-5,8.35-4.13,16.9-6.6,26.18-3.21l5.1,3.38c6,7.1,8.94,15.13,7.2,24.49-1.13,6-4.24,10.53-10.34,12.51Z"/><path class="cls-21" d="M288.59,304.91l-5.1-3.38c4.28-1.21,8.58-2.36,12.84-3.65,2.94-.89,5.82-2,8.8-3-1.69-4.83-3.22-9.18-4.75-13.53l1.39-1a37.76,37.76,0,0,1,4,3.62,23.49,23.49,0,0,1,3.78,5.53c2.77,6.46,8.2,7.39,14.29,7.73a37.91,37.91,0,0,1,9.35,2c1.35.43,2.37,1.88,3.54,2.86l-.48,1.08-12.86-2.67-.41.85c4.2,2.74,7.59,6.1,9.37,10.68l-1,1.15c-1.21-.87-2.86-1.48-3.55-2.65-4-6.66-10.15-9.14-17.38-8.82-6.91.32-13.79,1.48-20.68,2.32C289.33,304.11,289,304.62,288.59,304.91Z"/><path class="cls-22" d="M183.58,346.47q1.95-4.8,3.88-9.61a58,58,0,0,0,6.07,4.24,7,7,0,0,0,4.45.67c.53-.11,1-2.43.81-3.61-.68-3.88-1.82-7.68-2.51-11.56a15.87,15.87,0,0,1,.21-5c.47-3.14,1.12-6.26,1.7-9.38q3-6.37,5.95-12.73l.54,0c-.25,5.18-.42,10.37-.8,15.54-.34,4.68-1,9.33-1.36,14-.4,5.81-.58,11.64-.85,17.46Z"/><path class="cls-16" d="M280.48,349.07l3,.58a58.46,58.46,0,0,1-5.69,4.38c-2.12,1.23-2.2-.44-2.17-1.94Z"/><path class="cls-23" d="M237,160.15l12-7.52c5.8,1,9.57,5.71,9,11.19-.4,4.17-5.14,9.74-11.29,9.13-5.51-.54-9.39-4-9.7-9.82C236.92,162.14,237,161.14,237,160.15Z"/><path class="cls-6" d="M211.65,160.91c-1.41,3.89-2.27,8.11-4.35,11.61-2.92,4.91-10,5.79-14.06,2.42-2.48-2.06-2.81-4.78-.34-6.19,6.24-3.59,9.26-9.53,12.31-15.55a15.81,15.81,0,0,1,2.25-2.7c.8,1,2,1.94,2.32,3.1a58.71,58.71,0,0,1,1.24,6.93Z"/><path class="cls-24" d="M236.08,214.22c-.23-2.06-.45-4.12-.68-6.18,4.38-1.16,8.78-2.22,13.13-3.5,5.92-1.74,11.79-3.65,17.68-5.49l0,0c-3.16,2.5-6.09,5.39-9.52,7.43C250.35,210.3,243.66,213.54,236.08,214.22Z"/><path class="cls-23" d="M178.37,166.12l7.56,1.46c1.51,2.6,3.55,5,4.39,7.84,1.13,3.77-1.45,6.72-3.68,9.53Q182.52,175.53,178.37,166.12Z"/><path class="cls-24" d="M300.72,125.7c-3.65-.57-5-3.28-5.06-6.37-.07-3.41,2-5.86,5.34-6.76a6,6,0,0,1,7.16,2.67L303,116.85c1.1,1.91,2.54,3.41,2.61,5,0,.77-2.5,1.61-3.81,2.51a5.39,5.39,0,0,0-1,1.34Z"/><path class="cls-24" d="M266.21,199.05l.37-.34c0,.08,0,.19,0,.23a1.38,1.38,0,0,1-.3.14Z"/><path class="cls-3" d="M293.25,132.39l-.49-.15.14-.29c.1.16.21.32.32.48Z"/><path class="cls-24" d="M300.76,125.66l.31.32-.35-.28Z"/><path class="cls-20" d="M89.94,63.18c0,4.23,0,8.46,0,12.7,0,3.37-1.55,5-5,5.11-11.12.49-11.41.26-11.41-10.7,0-6.35,0-12.7,0-19.05,0-4.23,1.45-5.61,5.57-5.69,10.78-.22,10.78-.22,10.78,10.53Z"/><path class="cls-25" d="M65.22,69.76c0,11.58,0,11.51-11.47,11.13C50.4,80.77,49,79,48.84,76.05c-.17-4.09-.17-8.2,0-12.29.12-3,1.59-4.72,4.92-4.84C65.16,58.48,65.22,58.47,65.22,69.76Z"/><path class="cls-20" d="M99.08,70.21v-.75c-.4-11.88.9-10.68,12.22-10.53a3.83,3.83,0,0,1,4.08,4c.14,4.72,0,9.45,0,14.18a2.14,2.14,0,0,1-.23,1.08c-3.15,5.06-8.11,2.3-12.27,2.61-2.7.21-3.7-2.14-3.8-4.61C99,74.19,99.08,72.2,99.08,70.21Z"/><path class="cls-26" d="M89,161.67c.9,10.56-7,19.17-17.53,19.84-10.16.63-19.32-8-19.49-18.47-.16-9.78,8.11-18.61,17.61-18.38v17Z"/><path class="cls-27" d="M92.81,159.19H73.68V141.93C83.59,141,92.83,149.16,92.81,159.19Z"/><path class="cls-28" d="M113.13,148.83a74.35,74.35,0,0,1-8.58-.11c-1.17-.13-2.21-1.45-3.31-2.23,1.1-.91,2.16-2.56,3.31-2.61,5.71-.27,11.45-.27,17.17,0,1.14.05,2.21,1.7,3.32,2.61-1.11.78-2.15,2.1-3.33,2.23A74.29,74.29,0,0,1,113.13,148.83Z"/><path class="cls-27" d="M113,160.27a89.17,89.17,0,0,1-9-.11c-1-.1-1.86-1.46-2.78-2.24.93-.79,1.84-2.22,2.79-2.25,6-.21,12-.23,17.94,0,1,0,2,1.61,3,2.47-1,.71-2,1.94-3,2C119,160.46,116,160.28,113,160.27Z"/><path class="cls-28" d="M105.33,165l3.77,3.67c-1.28.86-2.47,2.15-3.87,2.47-1.86.42-4.17-.14-3.83-2.63C101.56,167.36,103.55,166.49,105.33,165Z"/><path class="cls-28" d="M116.17,164.72l3.85,4.09c-1.3.8-2.61,2.25-3.9,2.23s-2.52-1.52-3.78-2.37Z"/><path class="cls-24" d="M168.77,138.06l-.87,4.82-5,.7C163.68,140.18,166.06,139,168.77,138.06Z"/><path class="cls-12" d="M232.38,123.45A16.45,16.45,0,1,1,216,140,16.61,16.61,0,0,1,232.38,123.45Z"/><path class="cls-12" d="M171.78,142.21c1.68-2.85,2.87-6.17,5.12-8.44,4.91-5,13.1-4.23,17.62,1A19,19,0,0,1,195,158c-3.19,4.08-8.86,6.25-13.3,4.77-6.2-2.06-9.46-6.57-10.16-13l2.88.63C173.49,147.49,172.64,144.85,171.78,142.21Z"/><path class="cls-24" d="M171.78,142.21c.86,2.64,1.71,5.28,2.67,8.22l-2.88-.63Z"/></g></g></svg>