<svg id="visual" viewBox="0 0 900 600" width="900" height="600" xmlns="http://www.w3.org/2000/svg" xmlns:xlink="http://www.w3.org/1999/xlink" version="1.1"><rect x="0" y="0" width="900" height="600" fill="#1a3365"></rect><path d="M0 446L21.5 432C43 418 86 390 128.8 386.3C171.7 382.7 214.3 403.3 257.2 406C300 408.7 343 393.3 385.8 395C428.7 396.7 471.3 415.3 514.2 414.5C557 413.7 600 393.3 642.8 381.2C685.7 369 728.3 365 771.2 363.5C814 362 857 363 878.5 363.5L900 364L900 601L878.5 601C857 601 814 601 771.2 601C728.3 601 685.7 601 642.8 601C600 601 557 601 514.2 601C471.3 601 428.7 601 385.8 601C343 601 300 601 257.2 601C214.3 601 171.7 601 128.8 601C86 601 43 601 21.5 601L0 601Z" fill="#ffbb00"></path><path d="M0 400L21.5 408.5C43 417 86 434 128.8 437C171.7 440 214.3 429 257.2 429C300 429 343 440 385.8 449.7C428.7 459.3 471.3 467.7 514.2 468C557 468.3 600 460.7 642.8 460.8C685.7 461 728.3 469 771.2 465C814 461 857 445 878.5 437L900 429L900 601L878.5 601C857 601 814 601 771.2 601C728.3 601 685.7 601 642.8 601C600 601 557 601 514.2 601C471.3 601 428.7 601 385.8 601C343 601 300 601 257.2 601C214.3 601 171.7 601 128.8 601C86 601 43 601 21.5 601L0 601Z" fill="#ff9f10"></path><path d="M0 491L21.5 485.3C43 479.7 86 468.3 128.8 467.7C171.7 467 214.3 477 257.2 483.2C300 489.3 343 491.7 385.8 495.2C428.7 498.7 471.3 503.3 514.2 504.8C557 506.3 600 504.7 642.8 498.7C685.7 492.7 728.3 482.3 771.2 480.5C814 478.7 857 485.3 878.5 488.7L900 492L900 601L878.5 601C857 601 814 601 771.2 601C728.3 601 685.7 601 642.8 601C600 601 557 601 514.2 601C471.3 601 428.7 601 385.8 601C343 601 300 601 257.2 601C214.3 601 171.7 601 128.8 601C86 601 43 601 21.5 601L0 601Z" fill="#ff8222"></path><path d="M0 482L21.5 489.5C43 497 86 512 128.8 513.8C171.7 515.7 214.3 504.3 257.2 503.7C300 503 343 513 385.8 513.5C428.7 514 471.3 505 514.2 503.5C557 502 600 508 642.8 511.2C685.7 514.3 728.3 514.7 771.2 512.3C814 510 857 505 878.5 502.5L900 500L900 601L878.5 601C857 601 814 601 771.2 601C728.3 601 685.7 601 642.8 601C600 601 557 601 514.2 601C471.3 601 428.7 601 385.8 601C343 601 300 601 257.2 601C214.3 601 171.7 601 128.8 601C86 601 43 601 21.5 601L0 601Z" fill="#ff6532"></path><path d="M0 562L21.5 560.3C43 558.7 86 555.3 128.8 551.8C171.7 548.3 214.3 544.7 257.2 542C300 539.3 343 537.7 385.8 542.2C428.7 546.7 471.3 557.3 514.2 558.8C557 560.3 600 552.7 642.8 547.3C685.7 542 728.3 539 771.2 541C814 543 857 550 878.5 553.5L900 557L900 601L878.5 601C857 601 814 601 771.2 601C728.3 601 685.7 601 642.8 601C600 601 557 601 514.2 601C471.3 601 428.7 601 385.8 601C343 601 300 601 257.2 601C214.3 601 171.7 601 128.8 601C86 601 43 601 21.5 601L0 601Z" fill="#ff4343"></path></svg>