<svg xmlns="http://www.w3.org/2000/svg" viewBox="0 0 493.7 512"><defs><style>.cls-1{fill:#529b38;}</style></defs><g id="Layer_2" data-name="Layer 2"><g id="Layer_1-2" data-name="Layer 1"><path class="cls-1" d="M261,0c10.68,1.58,21.55,2.35,32,4.86Q433.47,38.61,469.77,178.64c6.55,25.35,7,51.35,3.9,77.35l-107.89-13.9V237c0-28.83-.08-57.66.07-86.49a17.78,17.78,0,0,0-5.64-13.75q-25-24.53-49.51-49.47a16.31,16.31,0,0,0-12.41-5.19c-37.66.08-75.32,0-113,.06-13.49,0-20.62,7.21-20.71,20.7,0,5.13,0,10.26,0,16-8.79,0-17.05,0-25.32,0-13.22,0-20.37,7.14-20.38,20.36q0,49,0,98V243L19.74,256.17c-.51-8.51-1.43-17.44-1.5-26.36C17.5,125.64,88.49,33.2,189.33,7.42,202,4.18,215.21,3,228.16.87,229.45.66,230.7.3,232,0ZM144.17,45.79a38.28,38.28,0,0,0-4.9,2.17A201.94,201.94,0,0,0,94.52,83.71C89.87,88.62,89.41,94,93.23,97.83c4,4,9.39,3.39,14.48-1.49,5.89-5.65,11.63-11.52,18-16.55,7.7-6.06,16-11.38,24.08-16.94,3.91-2.69,5.49-6.26,4.12-10.78C152.68,47.94,149.59,45.94,144.17,45.79Zm92.91-27.54-.25-1c-15.48,2.93-31,5.68-46.42,8.87-5.73,1.18-8.54,6.18-7.24,11.2S189.33,45,195,43.68c3.56-.82,7.05-2.14,10.65-2.59,13-1.63,26-3.14,39.1-4.36,7.11-.66,11.28-3.78,11.22-9.39s-4.33-9.08-11.38-9.09C242.06,18.24,239.57,18.25,237.08,18.25Z"/><path class="cls-1" d="M43,512c-5-2.63-6.76-6.84-6.43-12.37.28-4.77.06-9.57.06-15H123a49,49,0,0,0,5-.11c5.75-.61,9.15-4.18,9-9.36s-3.75-8.55-9.49-9c-2-.14-4-.05-6-.05H36.8c0-4.48-.33-8.46.08-12.36.52-4.87,4.08-7,8.56-7.72a97.32,97.32,0,0,0,46.94-20.73c3.06-2.5,4.77-.74,6.85.83a239.17,239.17,0,0,0,55.07,31.07,246.37,246.37,0,0,0,240.5-31.4c2.77-2.08,4.49-2.11,7.22.08a98.17,98.17,0,0,0,45.15,20c7.6,1.33,9.86,4,9.9,11.76,0,2.63,0,5.26,0,8.47h-5.78q-40.76,0-81.49,0a26,26,0,0,0-6.43.56c-4.41,1.15-6.71,4.25-6.64,8.8s2.44,7.57,6.9,8.58a29.48,29.48,0,0,0,6.45.51q40.25,0,80.49,0h6.36c0,6.89.58,13.41-.27,19.74-.37,2.74-3.69,5.07-5.67,7.59Z"/><path class="cls-1" d="M67,0c5.85,4.44,8.81,16.05,4.88,22.25-1.52,2.38-5.2,4.66-7.89,4.66s-7.28-2.53-7.7-4.62c-1.12-5.5-.85-11.42-.21-17.07C56.26,3.32,59.25,1.73,61,0Z"/><path class="cls-1" d="M433,0c5.68,4.77,8,14.55,5.11,21.59A8.49,8.49,0,0,1,429,27.23c-4.12-.26-7.33-2.45-7.87-6.41a44.11,44.11,0,0,1,.14-14.37C421.79,4,425,2.13,427,0Z"/><path class="cls-1" d="M23.23,274.23l95.65-12.83v6.26q0,43.24,0,86.49c0,13.47,7.21,20.71,20.61,20.77,7.83,0,15.67,0,23.5.08a8.08,8.08,0,0,1,1.61.54c0,2.55-.08,5.33,0,8.12.38,11.13,7.64,18.47,18.71,18.49q81.73.09,163.49,0c11.73,0,18.93-7.87,18.95-20.39q.06-57,0-114v-7.26l104.31,13.43c-13.78,82.17-88.95,171.93-202.4,182.13C144.75,467.12,43.88,380.44,23.23,274.23Z"/><path class="cls-1" d="M292.6,101c0,11.32,0,22.13,0,32.94,0,14.63,6.76,21.33,21.4,21.35h33.1V383.65H183.16V101ZM229.21,237.82c7.15-8.9,13.42-16.83,19.9-24.58.6-.71,2.7-.68,3.89-.31,5.73,1.75,11.28,4.25,17.1,5.42,3.24.65,7.65.3,10.22-1.49,12-8.36,23.64-17.33,35.31-26.21,4.81-3.66,5.66-8.85,2.53-13.12s-8.65-5-13.68-1.3c-5.79,4.22-11.45,8.61-17.19,12.89-4.81,3.59-9.32,9.27-14.56,10.08-5.44.83-11.63-3-17.45-4.94-11-3.64-11.92-3.39-19.05,5.52-5.24,6.57-10.5,13.12-16.58,20.7-.14-3-.29-4.62-.29-6.22,0-13.17.07-26.34-.06-39.5-.06-6.42-3.67-10.14-9.25-10-5.3.1-8.93,3.89-9,9.93q-.14,35.24,0,70.49c0,7.26,3.66,10.82,10.79,10.83q53.25.06,106.5,0c6.68,0,10.71-3.6,10.64-9.25-.06-5.47-3.93-8.85-10.41-8.89-10.5-.07-21,0-31.5,0Zm35.72,54.85c17.14,0,34.28,0,51.42,0a23.61,23.61,0,0,0,6.41-.68c3.92-1.15,6-4,6.23-8.1s-1.66-7.21-5.43-8.67a19.58,19.58,0,0,0-6.84-1q-51.66-.09-103.34,0a20.86,20.86,0,0,0-5.9.69,8.3,8.3,0,0,0-6.3,8.58,8.42,8.42,0,0,0,6.89,8.64,25.61,25.61,0,0,0,5.94.52Q239.46,292.7,264.93,292.67Zm-18.15,73.15h32c1.49,0,3,.07,4.49-.07,5.56-.5,9.28-4.28,9.23-9.27s-3.53-8.4-8.91-9a35.56,35.56,0,0,0-4-.12q-32.73,0-65.46,0a24.64,24.64,0,0,0-6.43.62c-4.18,1.12-6.4,4.24-6.51,8.44a8.29,8.29,0,0,0,5.75,8.49,19.7,19.7,0,0,0,6.37.87C224.46,365.86,235.62,365.82,246.78,365.82ZM237.68,128c-8.65,0-17.31,0-26,0-6.52,0-10.76,3.86-10.6,9.35.16,5.31,4.21,8.77,10.59,8.79q26,.08,51.94,0c6.58,0,10.35-3.26,10.48-8.77.13-5.72-3.81-9.32-10.47-9.37C255,128,246.34,128,237.68,128Zm-9.2,201.06c6,0,12,.1,18,0,5.55-.12,9.38-3.81,9.49-8.84.12-5.23-3.81-9.17-9.6-9.23q-17.72-.15-35.44,0c-5.79,0-9.82,3.94-9.78,9.09s4,8.9,9.9,9S222.65,329.07,228.48,329.06Z"/><path class="cls-1" d="M137.31,356.63V137.46h26.95c.1,1.56.32,3.29.32,5q0,104.43.1,208.88c0,4.09-1,5.54-5.27,5.35C152.14,356.39,144.84,356.63,137.31,356.63Z"/><path class="cls-1" d="M485.77,17.45c-1.68,3.11-2.46,5.6-4.06,7.3-5.82,6.16-11.83,12.12-17.93,18-4.26,4.11-9.58,4.09-13.29.26-3.51-3.62-3.54-9,.29-13,6-6.22,12.12-12.3,18.32-18.31,2.85-2.76,6.59-4,10-1.71C481.72,11.79,483.49,14.83,485.77,17.45Z"/><path class="cls-1" d="M17.89,8.15C21,9.9,23.4,10.76,25.11,12.38,31,18,36.77,23.75,42.42,29.62c4.11,4.27,4.11,9.61.33,13.32-3.64,3.55-8.92,3.59-13-.3-6.11-5.87-12.06-11.91-18-18C9,21.76,8,18,10.29,14.62,12.07,12,15.21,10.35,17.89,8.15Z"/><path class="cls-1" d="M479.87,73a50.25,50.25,0,0,1-5.49,0,9.07,9.07,0,0,1-8.11-9.21,8.94,8.94,0,0,1,8.09-8.71A81.42,81.42,0,0,1,484.84,55a9,9,0,0,1,8.86,9c0,4.85-3.7,8.68-8.84,9.05-1.65.11-3.33,0-5,0Z"/><path class="cls-1" d="M13.19,73a41.73,41.73,0,0,1-5.48,0A9,9,0,0,1,0,63.9a8.9,8.9,0,0,1,7.9-8.83A77.83,77.83,0,0,1,18.37,55c5.29.23,8.79,3.85,8.86,8.86.08,5.23-3.51,8.91-9,9.2-1.66.09-3.33,0-5,0Z"/><path class="cls-1" d="M311.24,115.12q10.81,10.8,21.62,21.63H311.24Z"/></g></g></svg>