<svg xmlns="http://www.w3.org/2000/svg" xmlns:xlink="http://www.w3.org/1999/xlink" viewBox="0 0 344.36 387.25"><defs><style>.cls-1,.cls-13,.cls-4,.cls-5{fill:#fff;}.cls-1,.cls-10,.cls-12,.cls-17,.cls-18,.cls-6,.cls-7,.cls-9{stroke:#263238;}.cls-1,.cls-10,.cls-11,.cls-12,.cls-17,.cls-18,.cls-20,.cls-6,.cls-7,.cls-9{stroke-linecap:round;stroke-linejoin:round;}.cls-2{isolation:isolate;}.cls-15,.cls-18,.cls-3{fill:#c6ff00;}.cls-4{opacity:0.7;}.cls-15,.cls-5{opacity:0.5;}.cls-21,.cls-6{fill:#263238;}.cls-11,.cls-12,.cls-17,.cls-20,.cls-7{fill:none;}.cls-10,.cls-8,.cls-9{fill:#529b38;}.cls-12,.cls-9{stroke-width:2px;}.cls-11,.cls-20{stroke:#fff;}.cls-14{clip-path:url(#clip-path);}.cls-15{mix-blend-mode:multiply;}.cls-16{clip-path:url(#clip-path-2);}.cls-17,.cls-20{stroke-width:0.5px;}.cls-19{clip-path:url(#clip-path-3);}</style><clipPath id="clip-path"><path class="cls-1" d="M202.65,165.92s10.65,22.73,10.65,23.93-9.45,6.34-11.25,7.42a44.08,44.08,0,0,1-4.3,2.15L198.82,210s16.27-3.71,23.09-7.42,6.58-7.89,5-14.12-12.08-30.26-12.08-30.26Z"/></clipPath><clipPath id="clip-path-2"><path class="cls-1" d="M125.85,160.9s-7.78,28.47-8,33.5,15.43,14.95,16,15.55-.89-17.3-.89-17.3l5.32-26Z"/></clipPath><clipPath id="clip-path-3"><path class="cls-1" d="M150.73,113.88s3.11,11,9,17.47,8,8,11.13,7.53,6.46-4.54,11.12-13,5-15,5.39-15.55-1-12.56-7.66-17.71-14.12-7.41-20.58-1.79S148.58,105.63,150.73,113.88Z"/></clipPath></defs><g class="cls-2"><g id="Layer_2" data-name="Layer 2"><g id="Background_simple" data-name="Background simple"><path class="cls-3" d="M344.26,157.82c1.53-41.42-13.36-83.34-46.16-103.29C281.91,44.68,263,38.91,244,39.76c-20.31.91-39.45,9.18-58.61,16S145.52,68,125.77,63.17c-14.29-3.5-26.86-12.15-41-16.09C29.06,31.59-19.45,94.8,7.81,145c6.69,12.32,17,22.2,25.67,33.23s15.94,24.35,14.77,38.32c-1,11.57-7.56,21.87-10.28,33.15-5.23,21.61,5.13,45.38,23,58.55s42.07,16.27,63.63,10.85,40.59-18.68,55.57-35.1c8-8.8,15.83-19.08,27.35-22.07,11-2.86,22.44,1.8,33.64,3.94A77.49,77.49,0,0,0,301,252.29C328.08,232.28,342.87,195.25,344.26,157.82Z"/><path class="cls-4" d="M344.26,157.82c1.53-41.42-13.36-83.34-46.16-103.29C281.91,44.68,263,38.91,244,39.76c-20.31.91-39.45,9.18-58.61,16S145.52,68,125.77,63.17c-14.29-3.5-26.86-12.15-41-16.09C29.06,31.59-19.45,94.8,7.81,145c6.69,12.32,17,22.2,25.67,33.23s15.94,24.35,14.77,38.32c-1,11.57-7.56,21.87-10.28,33.15-5.23,21.61,5.13,45.38,23,58.55s42.07,16.27,63.63,10.85,40.59-18.68,55.57-35.1c8-8.8,15.83-19.08,27.35-22.07,11-2.86,22.44,1.8,33.64,3.94A77.49,77.49,0,0,0,301,252.29C328.08,232.28,342.87,195.25,344.26,157.82Z"/></g><g id="Shadow"><ellipse class="cls-3" cx="166.07" cy="360.21" rx="135.21" ry="27.04"/><ellipse class="cls-5" cx="166.07" cy="360.21" rx="135.21" ry="27.04"/></g><g id="Graphics_2" data-name="Graphics 2"><rect class="cls-1" x="206.09" y="0.5" width="109.55" height="119.53" rx="6.03"/><path class="cls-6" d="M212.12.5H309.6a6,6,0,0,1,6,6v6.26a0,0,0,0,1,0,0H206.09a0,0,0,0,1,0,0V6.53A6,6,0,0,1,212.12.5Z"/><line class="cls-7" x1="212.06" y1="64.32" x2="256.14" y2="64.32"/><line class="cls-7" x1="212.06" y1="70.01" x2="256.14" y2="70.01"/><line class="cls-7" x1="212.06" y1="75.7" x2="256.14" y2="75.7"/><line class="cls-7" x1="212.06" y1="81.39" x2="256.14" y2="81.39"/><line class="cls-7" x1="212.06" y1="87.09" x2="256.14" y2="87.09"/><line class="cls-7" x1="212.06" y1="92.78" x2="256.14" y2="92.78"/><line class="cls-7" x1="212.06" y1="98.47" x2="256.14" y2="98.47"/><line class="cls-7" x1="212.06" y1="104.16" x2="256.14" y2="104.16"/><line class="cls-7" x1="212.06" y1="109.86" x2="256.14" y2="109.86"/><line class="cls-7" x1="263.89" y1="64.32" x2="307.97" y2="64.32"/><line class="cls-7" x1="263.89" y1="70.01" x2="307.97" y2="70.01"/><line class="cls-7" x1="263.89" y1="75.7" x2="307.97" y2="75.7"/><line class="cls-7" x1="263.89" y1="81.39" x2="307.97" y2="81.39"/><line class="cls-7" x1="263.89" y1="87.09" x2="307.97" y2="87.09"/><line class="cls-7" x1="263.89" y1="92.78" x2="307.97" y2="92.78"/><line class="cls-7" x1="263.89" y1="98.47" x2="307.97" y2="98.47"/><line class="cls-7" x1="263.89" y1="104.16" x2="307.97" y2="104.16"/><line class="cls-7" x1="263.89" y1="109.86" x2="307.97" y2="109.86"/><path class="cls-8" d="M241.54,28.29a6.76,6.76,0,0,0,.34-2.09c0-2.58-2.62-2.74-5.21-2.74H236v-.61h11.26v.61c-2.93,0-3.95,1.87-4.9,4.64L236.4,46c-.45,1.33-.83,2.32-2.24,2.32h-.11l-5.29-17.11L223.82,46c-.46,1.33-.84,2.32-2.24,2.32h-.12l-7.68-24.87h-2.7v-.61H221v.61h-2.82l5.71,19.62h.23L228.38,30l-2-6.54h-2.7v-.61h9.88v.61h-2.81l5.7,19.62h.23Z"/><rect class="cls-9" x="262.93" y="17.18" width="45.36" height="41"/><path class="cls-6" d="M308.29,34.32a28,28,0,0,0-4.53.63c-6.89,1.5-8.69,11.39-16.48,11.39-6.9,0-7.49-9.29-17.38-10.49a10.89,10.89,0,0,0-7,1.24V58.18h45.36Z"/><path class="cls-1" d="M278,26.57a5.09,5.09,0,1,1-5.09-5.1A5.09,5.09,0,0,1,278,26.57Z"/><rect class="cls-1" x="209.38" y="4.1" width="100.97" height="3.89"/><path class="cls-6" d="M304.06,143.88H260.34a6.48,6.48,0,0,0-6.47,6.48v23.38a6.48,6.48,0,0,0,6.47,6.48h1.36c-1.35,3-4,7.6-8.17,10.33,0,0,8.87-.62,18.11-10.33h32.42a6.48,6.48,0,0,0,6.47-6.48V150.36A6.48,6.48,0,0,0,304.06,143.88Z"/><path class="cls-10" d="M274.68,161.22a3.33,3.33,0,1,0-3.33,3.33A3.34,3.34,0,0,0,274.68,161.22Z"/><path class="cls-10" d="M286,161.22a3.34,3.34,0,1,0-3.34,3.33A3.35,3.35,0,0,0,286,161.22Z"/><path class="cls-10" d="M297.35,161.22a3.34,3.34,0,1,0-3.33,3.33A3.34,3.34,0,0,0,297.35,161.22Z"/></g><g id="Graphics_1" data-name="Graphics 1"><path class="cls-10" d="M63.72,14.68h71.92a6.46,6.46,0,0,1,6.46,6.46V71a0,0,0,0,1,0,0H57.26a0,0,0,0,1,0,0V21.14A6.46,6.46,0,0,1,63.72,14.68Z"/><rect class="cls-6" x="57.26" y="63" width="84.85" height="8.02"/><rect class="cls-1" x="61.14" y="65.74" width="77.08" height="2.54"/><circle class="cls-6" cx="99.68" cy="40.27" r="11.72"/><polygon class="cls-1" points="94.39 32.97 107.04 40.27 94.39 47.56 94.39 32.97"/><rect class="cls-6" x="22.05" y="91.55" width="86.17" height="36.33" rx="2.82"/><path class="cls-8" d="M32.31,96.5l.42.7c-1.9,1.06-3.67,2.92-3.67,5.1a2.82,2.82,0,0,0,2.7,3c.28,0,.46-.14.46-.42s-.14-.37-.42-.42a1.64,1.64,0,0,1-1.2-1.76,2.28,2.28,0,0,1,2.46-2.23,2.51,2.51,0,0,1,2.5,2.6,3.15,3.15,0,0,1-3.29,3.11,3.76,3.76,0,0,1-4-3.9C28.23,99.75,30.18,97.71,32.31,96.5Zm8.59,0,.42.7c-1.9,1.06-3.67,2.92-3.67,5.1a2.82,2.82,0,0,0,2.69,3c.28,0,.47-.14.47-.42s-.14-.37-.42-.42a1.65,1.65,0,0,1-1.21-1.76,2.29,2.29,0,0,1,2.46-2.23,2.52,2.52,0,0,1,2.51,2.6,3.16,3.16,0,0,1-3.3,3.11,3.76,3.76,0,0,1-4-3.9C36.82,99.75,38.77,97.71,40.9,96.5Z"/><line class="cls-11" x1="49.13" y1="103.9" x2="98.16" y2="103.9"/><line class="cls-11" x1="49.13" y1="108.11" x2="98.16" y2="108.11"/><line class="cls-11" x1="49.13" y1="112.33" x2="98.16" y2="112.33"/><line class="cls-11" x1="49.13" y1="116.54" x2="98.16" y2="116.54"/><circle class="cls-6" cx="86.5" cy="165.88" r="18.57" transform="translate(-25.6 16.1) rotate(-9.27)"/><circle class="cls-1" cx="86.5" cy="165.88" r="15.67" transform="translate(-95.22 121.43) rotate(-48.71)"/><polyline class="cls-12" points="86.5 154.55 86.5 165.88 94.17 165.88"/></g><g id="Character"><path class="cls-13" d="M202.65,165.92s10.65,22.73,10.65,23.93-9.45,6.34-11.25,7.42a44.08,44.08,0,0,1-4.3,2.15L198.82,210s16.27-3.71,23.09-7.42,6.58-7.89,5-14.12-12.08-30.26-12.08-30.26Z"/><g class="cls-14"><path class="cls-15" d="M221.91,202.53c6.82-3.71,6.58-7.89,5-14.12s-12.08-30.26-12.08-30.26l-1.7,1.08-.55,1s9.81,24.07,10.4,32.09c.4,5.39-10.45,12.11-17.62,16C210.7,206.87,217.92,204.7,221.91,202.53Z"/></g><path class="cls-7" d="M202.65,165.92s10.65,22.73,10.65,23.93-9.45,6.34-11.25,7.42a44.08,44.08,0,0,1-4.3,2.15L198.82,210s16.27-3.71,23.09-7.42,6.58-7.89,5-14.12-12.08-30.26-12.08-30.26Z"/><path class="cls-13" d="M125.85,160.9s-7.78,28.47-8,33.5,15.43,14.95,16,15.55-.89-17.3-.89-17.3l5.32-26Z"/><g class="cls-16"><path class="cls-15" d="M129.41,163.23l-.18-.77-3.38-1.56s-7.78,28.47-8,33.5,15.43,14.95,16,15.55c.24.24.15-2.44-.05-5.75-4.66-3.95-11.35-9.51-12.13-11.85"/></g><path class="cls-7" d="M125.85,160.9s-7.78,28.47-8,33.5,15.43,14.95,16,15.55-.89-17.3-.89-17.3l5.32-26Z"/><path class="cls-10" d="M162.33,132.3s-3,2.16-8.85,2.4-6.13-4-13.4-3.95c-8.8,0-19.86,27.87-19.86,27.87s5.51,5.39,10.89,7.66a38.62,38.62,0,0,0,9.33,2.75l.84,18.31h59.34l.72-18.31L219.88,157s-9.09-16.27-13.52-22.37-11.84-3.83-14.12-2.28-9,1.92-11.48,1.56-9.57-2.63-9.57-2.63S167.36,128,162.33,132.3Z"/><line class="cls-17" x1="141.04" y1="138.76" x2="140.8" y2="169.15"/><path class="cls-17" d="M143.19,141.52s.84,14.83,3.95,23.09"/><path class="cls-17" d="M147.74,165.8a40.79,40.79,0,0,0,2.51,5.86"/><path class="cls-17" d="M145.11,139.84a94.39,94.39,0,0,0,4.78,15.79"/><path class="cls-17" d="M196.67,142.47s-2.87,11.73-5.38,17"/><line class="cls-17" x1="201.34" y1="169.03" x2="201.22" y2="145.34"/><path class="cls-17" d="M200,145.82s-2.15,15-7.42,22.85"/><path class="cls-17" d="M197.39,165.68s-2.39,4.55-4.07,6.94"/><path class="cls-17" d="M159,134.1s1.68,10.29,4.07,15.55,6.58,6.34,10.17,4.79,6.22-9.22,6-19"/><path class="cls-18" d="M150.49,112.56s-2.27-3.94-4.07-1.91,1.44,6.7,3.23,8.25,3.11.6,3-1.07S150.49,112.56,150.49,112.56Z"/><path class="cls-5" d="M150.49,112.56s-2.27-3.94-4.07-1.91,1.44,6.7,3.23,8.25,3.11.6,3-1.07S150.49,112.56,150.49,112.56Z"/><path class="cls-7" d="M150.49,112.56s-2.27-3.94-4.07-1.91,1.44,6.7,3.23,8.25,3.11.6,3-1.07S150.49,112.56,150.49,112.56Z"/><path class="cls-18" d="M186.7,112.56s2.27-3.94,4.07-1.91-1.44,6.7-3.23,8.25-3.11.6-3-1.07S186.7,112.56,186.7,112.56Z"/><path class="cls-5" d="M186.7,112.56s2.27-3.94,4.07-1.91-1.44,6.7-3.23,8.25-3.11.6-3-1.07S186.7,112.56,186.7,112.56Z"/><path class="cls-7" d="M186.7,112.56s2.27-3.94,4.07-1.91-1.44,6.7-3.23,8.25-3.11.6-3-1.07S186.7,112.56,186.7,112.56Z"/><path class="cls-1" d="M161.26,131.47a128,128,0,0,0,4.3,15.07c2.16,5.38,6.23,5.38,7.9,1.92s2.75-16.4,2.75-16.4S165,133.62,161.26,131.47Z"/><path class="cls-13" d="M150.73,113.88s3.11,11,9,17.47,8,8,11.13,7.53,6.46-4.54,11.12-13,5-15,5.39-15.55-1-12.56-7.66-17.71-14.12-7.41-20.58-1.79S148.58,105.63,150.73,113.88Z"/><g class="cls-19"><path class="cls-15" d="M179.68,92.58c-6.7-5.14-14.12-7.41-20.58-1.79s-10.52,14.84-8.37,23.09c0,0,.6,2.12,1.76,5a3.78,3.78,0,0,1,.15-1.09c1.43-4.53,5.65-13.3,19.86-9.28,11.27,3.19,9.89,13.1,8.84,18.39.2-.36.41-.72.61-1.1,4.67-8.49,5-15,5.39-15.55S186.38,97.73,179.68,92.58Z"/></g><path class="cls-7" d="M150.73,113.88s3.11,11,9,17.47,8,8,11.13,7.53,6.46-4.54,11.12-13,5-15,5.39-15.55-1-12.56-7.66-17.71-14.12-7.41-20.58-1.79S148.58,105.63,150.73,113.88Z"/><path class="cls-7" d="M170.83,119.62a48.77,48.77,0,0,0-.6,7.06c.12,2.39.84,3.11-.24,3.35s-2.27-1.43-2.27-1.43"/><path class="cls-7" d="M158.86,121.54a4.24,4.24,0,0,0,4.79.12"/><path class="cls-7" d="M174.06,121.54a4.23,4.23,0,0,0,4.78.12"/><path class="cls-7" d="M166.5,117.51s-2.27-5.63-9.81-3"/><path class="cls-7" d="M172.77,116.82s1.91-5.51,8.73-2.28"/><path class="cls-7" d="M168,122c0,3.07-3.54,5.56-7.9,5.56s-7.89-2.49-7.89-5.56,3.29-4.37,7.65-4.37S168,118.88,168,122Z"/><path class="cls-7" d="M186.14,122c0,3.07-3.53,5.56-7.89,5.56s-7.9-2.49-7.9-5.56,3.3-4.37,7.66-4.37S186.14,118.88,186.14,122Z"/><path class="cls-1" d="M85.32,217.88l-.5,121.23a1.44,1.44,0,0,0,1.44,1.44h0a1.44,1.44,0,0,0,1.44-1.39l3.45-121.11Z"/><path class="cls-1" d="M77.15,246.22l-.49,125.33A1.43,1.43,0,0,0,78.09,373h0a1.44,1.44,0,0,0,1.44-1.38L83,246.38Z"/><path class="cls-1" d="M252.91,217.88l.5,121.23a1.44,1.44,0,0,1-1.44,1.44h0a1.44,1.44,0,0,1-1.44-1.39l-3.45-121.11Z"/><path class="cls-1" d="M261.08,246.22l.49,125.33a1.43,1.43,0,0,1-1.43,1.44h0a1.44,1.44,0,0,1-1.44-1.38l-3.45-125.23Z"/><path class="cls-1" d="M134,251.43l-.32,111.24a1.08,1.08,0,0,0,.92,1.19h0a1.07,1.07,0,0,0,.91-1.14l2.2-111.16Z"/><path class="cls-1" d="M204.39,247.85l.26,97.08c0,.56-.34,1-.77,1h0a.9.9,0,0,1-.77-1l-1.86-97Z"/><path class="cls-1" d="M132.89,247.85l.26,97.08c0,.56-.34,1-.77,1h0a.9.9,0,0,1-.77-1l-1.86-97Z"/><path class="cls-1" d="M202.37,251.43l.32,111.24a1.08,1.08,0,0,1-.92,1.19h0a1.06,1.06,0,0,1-.91-1.14l-2.2-111.16Z"/><ellipse class="cls-1" cx="167.68" cy="249.05" rx="44.5" ry="10.17"/><path class="cls-1" d="M146,335.38s-2.34,3.34-.67,5,3.33,1,3.17,2.67-2.84,7.33-5.17,13.33,2.5,12,7,10.34,4-18.34,4.67-21.34,1.16-3.5,1-6.33-.34-5.83-2.5-6.17S147,334.22,146,335.38Z"/><path class="cls-10" d="M153.17,362.12c-3-1.14-7.6-.91-10.2-.65.87,3.77,4.2,6.42,7.38,5.25C151.67,366.23,152.55,364.45,153.17,362.12Z"/><path class="cls-1" d="M140.85,328.05s4.83,8.17,6.17,10.33,5.83,1.5,6.33-1.5-1.83-11.33-1.83-11.33l-10,2.5Z"/><path class="cls-10" d="M129.35,315.05s-1.33,2.17-.67,3.67,2.5,5.83,3.67,8,6.5,3.5,12.67,2.5,9.66-3.84,9.83-6.34-1-5.83-1.83-9.83-3-3.83-6-3.83S131.85,312.72,129.35,315.05Z"/><path class="cls-6" d="M147.35,266.05c.09-4.1,2.46-6.12,2.64-8.93a35.8,35.8,0,0,0-.9-11.11l-4.57-6.23c-13.11.17-22.52.39-22.67.44-.5.16-.83,3-1.17,5.33,0,0-5.56.71-4.56,16.21.14,2.16,5.76,27.16,6.16,30,2.5,17.41,8.07,26.13,8.07,26.13s.5,2.17,7,1.67,13-4.83,13-4.83S147,280.88,147.35,266.05Z"/><path class="cls-1" d="M119.78,243s-6.88,1-11.11,5.82-.64,8,7.57,7.14,17.66-9.25,18.06-9.7S125.74,240.16,119.78,243Z"/><path class="cls-1" d="M132,246.05a65.17,65.17,0,0,1,13,2c5.66,1.67,15.66,5,18,5s1.66-8.67,1.66-10.33-30-2.67-33.66-2.67S132,246.05,132,246.05Z"/><path class="cls-10" d="M164.68,242.72s-2.66,1.33-3.66,6.33-2.34,7.67-.34,9,10.67,2.33,12,1,5-8,5.67-12.33S164.68,242.72,164.68,242.72Z"/><path class="cls-6" d="M176,244.38a20.82,20.82,0,0,0-3.67,6,55.76,55.76,0,0,0-1.67,7,65.39,65.39,0,0,1,9.34,3.34c5.33,2.33,14.33,4,23,6s11,4,14,4,6.66-2.34,11.33-8,.67-17.67-4-21.34-29.67-6.66-33-5.66S176,244.38,176,244.38Z"/><path class="cls-10" d="M113.48,256.1a20.22,20.22,0,0,0-3.91-8.19c-.31.29-.61.59-.9.92C105,253,107.29,256,113.48,256.1Z"/><path class="cls-20" d="M146.84,258.74s-3.44,36.81-10.46,42.54"/><path class="cls-20" d="M144.41,293.68s-2.73,12-9.89,16.77"/><path class="cls-20" d="M188.68,252.05s-10.66.67-3.66,5.33,19.66,7.67,19.66,7.67"/><path class="cls-6" d="M266.15,239.44l-3.61-3.24-8.31-18a4.8,4.8,0,0,0-4.37-2.71H88.26a4.8,4.8,0,0,0-4.37,2.71L73.52,240.64,71.81,240v5.13l.09-.06a2.84,2.84,0,0,0,2.87,2.43H263.35a2.82,2.82,0,0,0,2.88-2.65Z"/><path class="cls-1" d="M263.35,242.8H74.77A2.76,2.76,0,0,1,72.12,239l11.77-25.44a4.79,4.79,0,0,1,4.37-2.71h161.6a4.79,4.79,0,0,1,4.37,2.71L266,239A2.76,2.76,0,0,1,263.35,242.8Z"/><path class="cls-15" d="M84.32,225.72s-4.27,2.94-1.6,4,33.36.27,37.09-.8,8-10.94,8-12.54-5.38-2.75-7.36-2.84S92.32,215,92.32,215Z"/><ellipse class="cls-15" cx="236.98" cy="226.25" rx="10.94" ry="4.54"/><ellipse class="cls-15" cx="167.32" cy="229.06" rx="39.23" ry="7.34"/><path class="cls-18" d="M229,208.39s-.72-2.87-3.11-1.91-2.15,7.3-1.67,10.89,3.71,1.91,3.71,1.91v-2.15s-1.2,1-1.8-.36-.48-7.9.12-7.78,1.8,2.16,1.8,2.16S228.37,210.91,229,208.39Z"/><path class="cls-10" d="M227.25,208.87V224.6c0,1.84,4.25,3.34,9.5,3.34s9.49-1.5,9.49-3.34V208.87Z"/><path class="cls-1" d="M246.24,208.87c0,1.6-4.25,2.89-9.49,2.89s-9.5-1.29-9.5-2.89,4.25-2.89,9.5-2.89S246.24,207.28,246.24,208.87Z"/><path class="cls-1" d="M245,208.87c0,1.39-3.69,2.51-8.25,2.51s-8.26-1.12-8.26-2.51,3.7-2.51,8.26-2.51S245,207.48,245,208.87Z"/><path class="cls-6" d="M230.38,210.47a22.72,22.72,0,0,0,12.73,0,22.72,22.72,0,0,0-12.73,0Z"/><polygon class="cls-1" points="83.14 216.05 83.25 221.43 119.5 221.79 119.5 215.57 83.14 216.05"/><polygon class="cls-1" points="119.5 221.79 124.77 210.43 124.77 207.08 119.27 216.65 119.5 221.79"/><polygon class="cls-1" points="83.14 220.96 83.25 226.34 119.5 226.7 119.5 220.48 83.14 220.96"/><polygon class="cls-1" points="119.5 226.7 124.77 215.33 124.77 211.98 119.27 221.55 119.5 226.7"/><path class="cls-1" d="M97.13,202.41s.84-1.67-.36-2.39-2.51,1-3.23,1.55S77.75,212.1,77.27,213.66s0,5,3.23,5.38,6.1-1.79,7.54-2.15,2-.48,2-.48L100,203Z"/><path class="cls-1" d="M80.5,219c3.23.36,6.1-1.79,7.54-2.15s2-.48,2-.48l.36-.49L81.1,214a3.12,3.12,0,0,0-3.83-.36C76.79,215.21,77.27,218.68,80.5,219Z"/><path class="cls-1" d="M81.1,214h28c8.73,0,11.36-.48,11.36-.48l5.39-11.13s-17,1.08-22.26.72a39.59,39.59,0,0,1-6.46-.72Z"/><path class="cls-1" d="M81.1,214l.48,2.15s22.73.12,28.71.12,10.53.24,10.53.24l-.36-3Z"/><polygon class="cls-1" points="120.82 216.53 125.84 205.04 125.84 202.41 120.46 213.54 120.82 216.53"/><path class="cls-1" d="M201.58,230H133a1.14,1.14,0,0,1-1.15-1.15h0a1.14,1.14,0,0,1,1.15-1.15h68.55a1.14,1.14,0,0,1,1.15,1.15h0A1.14,1.14,0,0,1,201.58,230Z"/><path class="cls-1" d="M202.16,227.66H132.44a1,1,0,0,1-1-.95l-3.8-45.55a1,1,0,0,1,1-1.12H206a1,1,0,0,1,1,1.12l-3.8,45.55A1,1,0,0,1,202.16,227.66Z"/><path class="cls-1" d="M173.88,204.63c0,2.72-2.94,4.92-6.58,4.92s-6.58-2.2-6.58-4.92,2.94-4.91,6.58-4.91S173.88,201.92,173.88,204.63Z"/><path class="cls-7" d="M242,169a6,6,0,0,0,2.06-6.31"/><path class="cls-7" d="M234,204.71s6.66-4,4.48-8.57-9.5-7.59-9.5-14.72c0-6.14,6.53-8.41,10.78-10.87"/><path class="cls-7" d="M240.18,204.58s3.71-2.47,3.71-6.39c0-2.63-2.82-4.35-6.53-8.58"/><path class="cls-7" d="M235.31,187.06s-2.43-1.92-.64-5.51"/><path class="cls-21" d="M179,82.3c1.19-.25,3.74-1.23,5.46-5.22a.49.49,0,0,0-.25-.65.49.49,0,0,0-.66.26c-1.59,3.65-3.85,4.46-4.78,4.64a11.47,11.47,0,0,0,2.62-7.23c0-6.94-6.42-12.56-14.35-12.56s-14.36,5.62-14.36,12.56a11.43,11.43,0,0,0,2.41,7c-1.51-.08-4.06.56-7.3,4.33a.51.51,0,0,0,.06.71.49.49,0,0,0,.7-.06c4.13-4.81,6.86-4,7.42-3.78a14.8,14.8,0,0,0-2.62,1.83c-4.61,4.15-7.42,12-7.06,18.54a24.11,24.11,0,0,0,4.55,12,27.8,27.8,0,0,0,8.13-9.09,77.36,77.36,0,0,0,4-8.18c0,2.93.39,6.47,1.92,9a12.8,12.8,0,0,0,11.22,6.57,10,10,0,0,0,2.35-.24.48.48,0,0,0,.32-.25c3.86.82,7.7.75,8.29-.07,1-1.31,2.31-5.4,2.75-10.4C190.6,93.53,185.25,86.17,179,82.3Zm-13.23,23.49c-1.94-3.17-1.89-8.34-1.65-11.31.07-.21.12-.34.12-.34a20.39,20.39,0,0,0,8.13,15.67,14.76,14.76,0,0,0,4.43,2.07C174.37,112.05,169.32,111.58,165.78,105.79Z"/><path class="cls-20" d="M165.94,90.08s-.82,6.06,6.88,12,15,3.6,15,3.6"/><path class="cls-20" d="M167.07,88s8.12,11.81,19.31,8.72"/><path class="cls-20" d="M163.07,84.12a7.83,7.83,0,0,0-8.11.62c-4.32,2.87-6.47,9.65-6.47,9.65"/><path class="cls-20" d="M163.27,87.41s-3.49-.92-5.64,1.23A13.56,13.56,0,0,0,155,91.93"/></g></g></g></svg>