<svg id="Layer_1" data-name="Layer 1" xmlns="http://www.w3.org/2000/svg" viewBox="0 0 432.8 628.16"><defs><style>.cls-1{fill:#f4a98d;}.cls-2{fill:#15440f;}.cls-3{fill:#6e595e;}.cls-4{fill:#529b38;}.cls-5{fill:#cfd427;}.cls-6{fill:#752935;}.cls-7{fill:#babab8;}.cls-8{fill:#551d20;}.cls-9{fill:#3d2011;}.cls-10{fill:#321f25;}.cls-11{fill:#624e53;}.cls-12{fill:#3c2215;}.cls-13{fill:#762c36;}.cls-14{fill:#23080e;}.cls-15{fill:#9fa1a2;}.cls-16{fill:#492f35;}.cls-17{fill:#913e4a;}.cls-18{fill:#e6eef1;}.cls-19{fill:#e6eef2;}.cls-20{fill:#6e585d;}.cls-21{fill:#f2a88c;}.cls-22{fill:#fdfdfc;}.cls-23{fill:#df9680;}.cls-24{fill:#b6b5b2;}.cls-25{fill:#e6eaec;}.cls-26{fill:#180603;}.cls-27{fill:#e4e3e1;}.cls-28{fill:#e6edf0;}.cls-29{fill:#eda78c;}.cls-30{fill:#2f1410;}.cls-31{fill:#482e35;}</style></defs><path d="M832.48,385c.06,4.68.11,9.36-.27,14.58a19,19,0,0,1-6.25,1.41q-78.56.07-157.1,0c0-4,0-8,0-12.84,0-2.57.09-4.23.09-5.89q0-42.42,0-84.85c0-3.4.16-6.5,4.77-6.48,18.79.1,37.58.17,56.67.53,10.76.37,21.24.51,31.71.52a54.75,54.75,0,0,0,7.21-.89c19.52-.13,38.58-.21,57.63-.09,1.68,0,3.34,1.33,4.71,2.33A3.91,3.91,0,0,0,831,295q0,43.34,0,86.66c0,1.09.92,2.18,1.41,3.26m-99.54-44.59c-.51-1.32-1-2.64-1.86-4.77l-1.32,3a36.84,36.84,0,0,0-6.44-.71c-.75,0-1.43,1.56-2.09,2.35l2.64,3.8c-2.07,1.59-4.24,2.69-5.63,4.42a87.81,87.81,0,0,1-15.06,14.79c-1.56,1.19-3.94,1.26-5.84,2.08-1.16.5-2.9,1.28-3.07,2.19-.74,3.8,5.19,8.4,11,7-1.66-.76-2.66-.91-3.11-1.48a13.83,13.83,0,0,1-1.43-3,24.74,24.74,0,0,1,3.33.62,43.13,43.13,0,0,1,4.14,1.9l-3.32-7c2.33.66,4.76,2.2,6.29,1.56,1.85-.76,2.94-3.37,4.23-5l7.3-5.42,2.72,1c1.45-3.69.26-9,6.49-7.73-.24,6.67,2.22,11.92,8,15.47a17.7,17.7,0,0,0,20.5-1.42c5.57-4.56,7.65-12.7,5.07-19.84-2.36-6.54-8.95-10.76-16.15-11.19s-11.61,4.05-16.43,7.44m-47.66,47.86c3.09,1,5.76,1.66,8.22-1.86,4.56-6.51-1.71-9.58-3.26-13.78l-9.6,3.24c-.26,3.58-.51,7.07-.8,11.14C681.06,387.25,682.77,387.66,685.28,388.22Z" transform="translate(-539.74 -57.25)"/><path d="M675.05,117.05C677.82,95.64,685.8,77,704.64,65c6-3.8,13.42-5.25,20.24-7.64.74-.26,1.8.36,3.48.76,7.17.76,13.67.87,20,2s12.71,2.65,18.46,5.33c9.15,4.24,18.75,5.29,28.49,6.24a.31.31,0,0,0-.18.41,7.46,7.46,0,0,0,1.21,1.77c5.41,4.73,11.83,8.69,16.07,14.31,7.09,9.39,10.08,20.67,9.56,32.55-.28,6.32-1.6,12.6-1.86,18.92-.55,13.91-.81,27.83-1,41.76,0,2.18,1.12,4.38,1.73,6.57a6.84,6.84,0,0,1-.45,2.73c-1,4.57-1.36,8.71-2.1,12.78-1.36,7.45-2.93,14.86-4.42,22.28-.51,2.5-1,5-1.58,7.5a.37.37,0,0,0-.45-.18c-1.09,2.45-1.89,4.77-2.69,7.09a.43.43,0,0,0-.39-.07c-4.15,5-8,10.06-11.89,15,0-.06,0,0-.08-.24a3.31,3.31,0,0,0-1.41-.69c-.15,0-.37-.19-.52-.43a3.86,3.86,0,0,0-1.43-.68,6.44,6.44,0,0,1-1.6-1.28,4.56,4.56,0,0,0-1.55-.7,3.48,3.48,0,0,1-1.32-1,4.53,4.53,0,0,0-1.66-.8c-.12,0-.28-.16-.44-.42a3.78,3.78,0,0,0-1.44-.66.59.59,0,0,1-.47-.54,46.66,46.66,0,0,0-5.05-2.53s0,.07-.13-.24c-2.07-1.5-3.85-3-5.92-3.81-4.28-1.6-8.34-3.25-10.19-8-.13,0-.38.06-.28-.35-.08-3.53-.27-6.65-.17-10,21.1-7.92,34.12-22.46,39-44.19.28-1.21,1.27-3.19,2-3.22,4.76-.22,6.39-3.81,7.19-7.22a85.16,85.16,0,0,0,2-16.24c.09-2.15-1-5.67-2.48-6.23-1.79-.69-4.51,1.07-7.13,1.86-2-6.51-7.05-11.81-13.79-15.13-12.73-6.28-23.27-14.56-28.64-29.34-3.15,10.91-10.7,15.62-19.67,18.8-12.23,4.35-24.51,8.49-37.61,9.4-4.64.33-7.23,2.72-7.28,7.71-.08,9.31-.9,18.65-.44,27.93A101.36,101.36,0,0,0,699.88,190c4.86,16.8,16.45,27.68,32.52,34.29,0,.84,0,1.31,0,2.22-.2,5-.31,9.57-.76,14.27-4.76,2.47-9.18,4.79-14,7.17-5.79,2.37-11.22,4.71-16.65,7a84.19,84.19,0,0,1-18.15-32.53c-1.66-7-3.38-13.22-5.09-19.43a3.37,3.37,0,0,1-.38-2c-.4-4.1-1.06-7.56-1.73-11a3.88,3.88,0,0,1-.23-2.05c0-13.22-.25-25.77-.39-38.31,0-3.09.51-6.18.58-9.28q.2-9.09.12-18.19A39.27,39.27,0,0,0,675.05,117.05Z" transform="translate(-539.74 -57.25)"/><path class="cls-1" d="M718.76,600.78c-1-10.39-2-20.77-2.84-31.16-1.38-16.84-2.64-33.69-4-50.53-.1-1.3-.35-2.58-.59-4.62-1.54-4-2.53-7.6-4.62-10.39-3.77-5.06-8.57-9.35-12.27-14.46-6-8.32-5.53-18.66.64-27.57,5.93-8.55,15.45-12.47,25.2-10.22,12.49,2.88,21.63,10.72,29.26,20.48a12.77,12.77,0,0,1,2.52,7.41c-.09,12.11-.61,24.22-1.08,36.74-.35,3.13-.62,5.86-1,9-.36,3.58-.63,6.78-.93,10.47-.11,3.14-.19,5.78-.57,8.65s-.68,5.49-.89,8.11c-1.15,14.1-2.31,28.19-3.52,42.72-.39,4.84-.74,9.24-1.25,14-.7,5-1.54,9.56-1.72,14.18-.35,9.52-1.37,19.17,2.7,28.65-.58,3.95-.69,7.59-1.48,11.07a11.67,11.67,0,0,1-11.31,9.44,11.16,11.16,0,0,1-11.33-8.7c-1-4.27-.87-8.82-1.38-13.22a16.79,16.79,0,0,0-1.21-3.51c.65-5,1.57-10,1.88-15s0-10.31,0-16.39C718.92,610.24,718.84,605.51,718.76,600.78Z" transform="translate(-539.74 -57.25)"/><path class="cls-1" d="M793.78,642.87a8.08,8.08,0,0,1,.2,1.92c-.13,6.25.33,11.79-.41,17.16-1,7-6.12,11.08-12.21,10.73-6.61-.38-11.28-5.31-11.57-12.63-.16-3.92.23-7.86.25-12.21.58-2.73,2-5.06,1.86-7.34-.44-10.5-1.29-21-2-31.91-.37-4.85-.76-9.26-1.11-14.1-1.28-18-2.58-35.6-4-53.18a46.69,46.69,0,0,0-1.72-7.41,2.69,2.69,0,0,1-.16-1.29c-.3-5.15-.7-9.84-1-15-.56-11.53-1.25-22.63-1.76-33.74-.3-6.72,2.38-12.26,7.22-16.86,8.2-7.79,17-14.37,29.06-16.05,3.42.48,6.42.9,9.66,1.55,17.89,9.4,21.3,27.26,8.22,42.22-2.5,2.87-5.06,5.7-7.73,8.42-4.08,4.14-6.08,9-5.49,14.83-2,21.4-4,42.79-5.85,64.19-.53,5.93-.77,11.88-1.16,18.72-.28,5.67-.54,10.43-.8,15.2,0,8.3-.06,16.6,0,25.57C793.33,642.62,793.51,642.79,793.78,642.87Z" transform="translate(-539.74 -57.25)"/><path d="M796,450.92c-11.58,1.75-20.43,8.33-28.63,16.12-4.84,4.6-7.52,10.14-7.22,16.86.51,11.11,1.2,22.21,1.52,34-2,6.55-6.19,1.44-8.82,3.1l-1.73-4.93c.37-12.11.89-24.22,1-36.33a12.77,12.77,0,0,0-2.52-7.41c-7.63-9.76-16.77-17.6-29.26-20.48-9.75-2.25-19.27,1.67-25.2,10.22-6.17,8.91-6.67,19.25-.64,27.57,3.7,5.11,8.5,9.4,12.27,14.46,2.09,2.79,3.08,6.4,4.42,10.06-5.75-3-11.36-6.44-16.95-9.9a32.67,32.67,0,0,1-3.92-3c-3.35-4.77-6.33-9.06-9.31-13.76,0-1.39.22-2.52-.17-3.35-3.44-7.35-4.13-15.12-3.74-23.08.7-1.79,1.48-3.54,2.1-5.36a49,49,0,0,1,16-23.08,5.74,5.74,0,0,1,2.87-1.25,12.5,12.5,0,0,0,3,.59l111-.05s-.07,0,.12.28a6.56,6.56,0,0,0,1.4.75,2.08,2.08,0,0,1,1.18-.61,3.11,3.11,0,0,1,1,1,3.3,3.3,0,0,1-.11,2.55c-3.69-1.8-5.86-.69-7.66,2.45-.86,1.5-2.64,2.46-3.89,3.77C801.34,445.05,798.68,448,796,450.92Z" transform="translate(-539.74 -57.25)"/><path class="cls-2" d="M700.86,255.3a153.36,153.36,0,0,1,16.87-7c4.38,14.36,8.32,28.37,12.37,42.46.12.08,0,.36,0,.36q-28.18-.12-56.37-.25c-4.61,0-4.78,3.08-4.77,6.48q0,42.42,0,84.85c0,1.66-.06,3.32-.21,5.45-13.74-7.6-21.51-19.76-23.75-35.17-3.9-26.75,6.82-49,22.47-69.54C676.42,271.24,688.18,263,700.86,255.3Z" transform="translate(-539.74 -57.25)"/><path class="cls-2" d="M787,249.1s.16.17.41.39a14.89,14.89,0,0,0,1.63.83c.31.24.62.48,1.38,1a8.9,8.9,0,0,0,1.54.7c.4.33.8.65,1.6,1.27A8,8,0,0,0,795,254l.53.45a8.27,8.27,0,0,0,1.38.71s-.06-.1.09.2a4.58,4.58,0,0,0,1.75.53c6.25,4.59,12.57,9.09,18.74,13.79,20.66,15.76,32.67,36.62,36.55,62.27,1.81,12,.74,23.45-4.63,34.42a38.15,38.15,0,0,1-16.14,17.18,68.3,68.3,0,0,1-.59-9.93c-.05-26.16-.1-52.31-.06-78.7a4.58,4.58,0,0,0-.38-1.33A3,3,0,0,0,832,293c-1.67-.7-3.33-2-5-2-19.05-.12-38.11,0-57.67,0-.5,0-.27-.16-.23-.53,5.34-15,7-30.25,8.54-45.62,1,.13,1.66.26,2.31.39,0,0,0-.1.15.21A46.54,46.54,0,0,0,785,248s.26.19.58.45A9,9,0,0,0,787,249.1Z" transform="translate(-539.74 -57.25)"/><path class="cls-3" d="M668.43,401c52.8,0,105.16,0,157.53,0a41.06,41.06,0,0,0,6.19-.95,7.21,7.21,0,0,1,3.59,2c.28,4,.32,7.26.36,10.52a7.14,7.14,0,0,1-3,.33,9,9,0,0,0-3-.81q-84.28,0-168.58.1c-.22-2.73-.88-5.52-.56-8.18C661.47,399.32,665.42,401.49,668.43,401Z" transform="translate(-539.74 -57.25)"/><path class="cls-2" d="M894,373a60.26,60.26,0,0,1-8.71-.87c-.51-.72-.68-1-.86-1.25-.13.36-.27.73-.4,1.1-.79-1.45-2.1-2.86-2.25-4.38-.34-3.45,0-7-.15-10.45-.24-4.53,1.79-6.27,6.22-6.23,12.13.13,24.26.05,36.39.05,10.8,0,21.61.1,32.41-.05,4.19-.06,6.37,1.5,6,5.81a134.37,134.37,0,0,1-2.14,15.86C937.9,373,915.94,373,894,373Z" transform="translate(-539.74 -57.25)"/><path class="cls-4" d="M617,412.54a26,26,0,0,1-7.83,1.38c-14.19-.21-28.38-.67-42.58-.83-4.26,0-8.52.56-13.23.86a104.46,104.46,0,0,1-.28-10.9c0-10.93,4.64-15.63,15.63-15.87,1.16,0,2.31,0,4.32-.1a44.73,44.73,0,0,1,5.29.08c4.25.07,8.15,0,12.44-.09h5.08c3.11.25,6.21.6,9.33.73,6.94.29,11.67,4.93,11.84,11.9C617.1,403.83,617,408,617,412.54Z" transform="translate(-539.74 -57.25)"/><path class="cls-5" d="M893.74,373.31c22.2-.33,44.16-.34,66.57-.36a47.64,47.64,0,0,1,7.54.57c1.72.39,4.61,1.54,4.64,2.44a76.75,76.75,0,0,1-1.31,16.89c-24.47.18-48.12.16-71.76.2a36.83,36.83,0,0,0-4.56.73,15.54,15.54,0,0,1-1.76-.65C891.27,386.59,890.62,380.07,893.74,373.31Z" transform="translate(-539.74 -57.25)"/><path class="cls-4" d="M892.87,393.44a6,6,0,0,1,2.44.44c3.22.15,5.71.2,8.21.21l63.41.22c.13,6,.26,12,.19,18.3-26.23.39-52.24.41-78.73.45a81.86,81.86,0,0,1-1.1-16.2C887.35,395.72,890.77,394.77,892.87,393.44Z" transform="translate(-539.74 -57.25)"/><path class="cls-4" d="M612.16,154.93c4.73-.69,9.44-1.65,14.19-2a67,67,0,0,1,12.82.21c5.92.71,8.36,5.88,5.15,11-8.56,13.63-20.94,20.52-37.15,20-4.47-.14-7.46-4.06-5.7-8.41,2.26-5.61,5.63-10.76,8.53-16.11a37.7,37.7,0,0,0,2.1-4.22C612,155,612.16,154.93,612.16,154.93Z" transform="translate(-539.74 -57.25)"/><path class="cls-4" d="M541.76,260.74c4.42-9.49,8.72-19.05,13.28-28.47q19.9-41.15,40-82.19c.64-1.32,1.45-2.56,2.42-4.28l8.56,5-.5,1.16-7.18-3c-14.52,36.9-28.94,73.58-43.67,110.85a43.55,43.55,0,0,1-2,5.07c-2.75.41-5.16.73-7.88.89C543.54,264.05,542.65,262.4,541.76,260.74Z" transform="translate(-539.74 -57.25)"/><path class="cls-6" d="M859.9,461.26c.88,1.57,2.43,3.11,2.52,4.73.32,5.42.21,10.88.08,16.31-.09,3.51-1.46,5.85-5.63,5.61-3.61-.22-7.25,0-11.67.09a18.46,18.46,0,0,1-2.59.08c-5.18-.09-9.9-.12-14.61-.57.33-8.79.66-17.15,1.47-25.51,3.27,0,6.07.05,8.87,0C845.53,461.77,852.71,461.5,859.9,461.26Z" transform="translate(-539.74 -57.25)"/><path d="M829,462c-.34,8.35-.67,16.71-1.28,25.71-1.78,4.5-3.29,8.34-5.07,12.21a9.72,9.72,0,0,0-1.57,1.6c-5.26,6.84-10.66,13.53-19.66,16.43-.94-5.79,1.06-10.64,5.14-14.78,2.67-2.72,5.23-5.55,7.73-8.42,13.08-15,9.67-32.82-8.06-42.55a73.28,73.28,0,0,1,4.43-7.64l5,3.68a49.25,49.25,0,0,1-.44-5.72c.11-2.19.5-4.36.77-6.54v-2.47c10.24,6,8.37,17.8,12.74,27.45A2.85,2.85,0,0,1,829,462Z" transform="translate(-539.74 -57.25)"/><path class="cls-7" d="M718.39,600.84c.45,4.67.53,9.4.59,14.58-12,5.45-22.08,12.54-26.47,25.56-.36,1.08-.41,2.26-1,3.7-4.77,0-9.15-.38-13.53-.71.15-13.31,7.56-22.9,17.3-30.37C702.1,608.37,710.4,605.07,718.39,600.84Z" transform="translate(-539.74 -57.25)"/><path class="cls-7" d="M793.6,616.12c-.08-4.77.18-9.53.5-14.75,15.73,5.21,29.44,13.46,37,29.11,1.91,3.94,2.6,8.47,3.45,13.08-4.55.62-8.7.89-12.85,1.15C817.45,630.33,807.58,621.39,793.6,616.12Z" transform="translate(-539.74 -57.25)"/><path class="cls-6" d="M676.6,461c.07,8,.76,15.8,4.2,23.15.39.83.14,2-.29,3.37A124.72,124.72,0,0,1,668,488c-4.15-.05-8.3-.15-12.45-.13-3.33,0-4.88-1.54-4.86-4.84,0-5.81-.11-11.62,0-17.43.06-3,.88-4.26,4.8-4C662.29,462.19,669.25,461.25,676.6,461Z" transform="translate(-539.74 -57.25)"/><path class="cls-4" d="M553,264.89c.47-1.47.94-2.93,1.64-4.62,1.73,1.29,4,2.55,4.58,4.35C568.91,296.78,578.42,329,588,361.2c2.51,8.4,5.18,16.75,7.79,25.51a11.54,11.54,0,0,1-5.16,0c-2.67-8-4.78-15.71-7-23.33q-12.37-41.73-24.87-83.42C557.2,274.79,554.9,269.89,553,264.89Z" transform="translate(-539.74 -57.25)"/><path class="cls-4" d="M541.39,260.82a34.85,34.85,0,0,1,3.34,5.44c2.11,7.26,3.88,14,5.72,20.67Q564.19,337,578,387l-4.5,0q-17.29-60.69-33.66-121.42C539.44,264.24,540.58,262.47,541.39,260.82Z" transform="translate(-539.74 -57.25)"/><path d="M770.16,648.26c-.14,3.93-.53,7.87-.37,11.79.29,7.32,5,12.25,11.57,12.63,6.09.35,11.24-3.7,12.21-10.73.74-5.37.28-10.91.4-16.87,10.79,12.2,6.69,32.51-8.36,39.15-2.71,1.19-7.05.68-9.83-.68-6.47-3.16-9.28-9.31-9.87-16.29-.28-3.44.18-7,.36-11.16A41.84,41.84,0,0,1,767.5,649,11.38,11.38,0,0,0,770.16,648.26Z" transform="translate(-539.74 -57.25)"/><path d="M716.92,647.57a7.42,7.42,0,0,1,1.43,3.25c.51,4.4.35,8.95,1.38,13.22a11.16,11.16,0,0,0,11.33,8.7,11.67,11.67,0,0,0,11.31-9.44c.79-3.48.9-7.12,1.71-11,.4-.31.88-.39,1-.1.41,1.08.68,1.87,1,2.66a9.36,9.36,0,0,0-.24,2.44c1.59,9.15.78,17.66-6.55,24.34-5.36,4.88-10.38,5-16.13.56-10-7.72-13.56-19.17-9.22-30.61C714.44,650.19,715.75,649.08,716.92,647.57Z" transform="translate(-539.74 -57.25)"/><path class="cls-8" d="M821,187.55c-.72-1.76-1.87-4-1.84-6.14.16-13.93.42-27.85,1-41.76.26-6.32,1.58-12.6,1.86-18.92.52-11.88-2.47-23.16-9.56-32.55-4.24-5.62-10.66-9.58-16.07-14.31A4.53,4.53,0,0,1,795.24,72c15.25,5.59,22.4,18.1,26.76,32.76,2.7,9.06,2.08,18.25,1.4,27.61C822.08,150.61,821.78,168.88,821,187.55Z" transform="translate(-539.74 -57.25)"/><path d="M821.51,645c4.37-.51,8.52-.78,13.08-1a18.28,18.28,0,0,1,4.17,3.24c3.3,4.09,1.54,8.84-3.63,9.42a56.27,56.27,0,0,1-11.46.09c-6.28-.6-7.82-4.51-4.07-9.68A26.42,26.42,0,0,1,821.51,645Z" transform="translate(-539.74 -57.25)"/><path d="M677.78,644.24c4.59.06,9,.4,13.71.85a16,16,0,0,1,3.08,3.6c2.08,4,.48,7.3-4.09,7.87a46.7,46.7,0,0,1-11.39.14c-2.17-.28-5.66-1.84-5.86-3.21-.34-2.35,1.36-5,2.4-7.49C675.91,645.34,676.91,645,677.78,644.24Z" transform="translate(-539.74 -57.25)"/><path d="M746.39,655a8,8,0,0,1-1.17-3.15,47.4,47.4,0,0,1,5.45-7.61c4.06-.23,7.73-.36,11.67-.28,1.79,1.76,3.31,3.31,4.83,4.86-.28,2.18-.56,4.35-1,6.83C759.58,655.73,753.15,655.46,746.39,655Z" transform="translate(-539.74 -57.25)"/><path class="cls-9" d="M668,488.46a116.91,116.91,0,0,1,12.54-.52,154.69,154.69,0,0,1,9.44,13.19,148.36,148.36,0,0,1-16.76.27,10.47,10.47,0,0,0-2.39-.29,1,1,0,0,1-.73-.32c-.5-.58-.77-.72-1.09-.77C668.64,496.32,668.31,492.61,668,488.46Z" transform="translate(-539.74 -57.25)"/><path class="cls-10" d="M831.68,293.31c.3-.3.52.07.49.52,0,.8.09,1.09.36,1.32q.09,39.24.16,78.47c0,3.16.07,6.33.25,9.94a1.4,1.4,0,0,1-.28,1.18c-.67-.87-1.59-2-1.59-3.05Q831,338.36,831,295A3.91,3.91,0,0,1,831.68,293.31Z" transform="translate(-539.74 -57.25)"/><path class="cls-11" d="M661.56,412.39q84.16-.47,168.5-.37a7,7,0,0,1,2.71.75c-38,.35-76.24.41-114.5.44-18.47,0-36.94,0-55.88,0A1,1,0,0,1,661.56,412.39Z" transform="translate(-539.74 -57.25)"/><path class="cls-8" d="M795.05,71.41c-9.51-.67-19.11-1.72-28.26-6-5.75-2.68-12.18-4.17-18.46-5.33s-12.8-1.29-19.58-1.94c6.78-.07,14-.23,21.11,0a23.47,23.47,0,0,1,7.71,1.87C769.65,64.91,781.85,69.31,795.05,71.41Z" transform="translate(-539.74 -57.25)"/><path class="cls-8" d="M812.56,233c.26-2.27.8-4.77,1.31-7.27,1.49-7.42,3.06-14.83,4.42-22.28.74-4.07,1.11-8.21,2-12.41A111.1,111.1,0,0,1,812.56,233Z" transform="translate(-539.74 -57.25)"/><path class="cls-12" d="M674.93,117.43a19.06,19.06,0,0,1,.8,4.77q.07,9.09-.12,18.19c-.07,3.1-.62,6.19-.58,9.28.14,12.54.43,25.09.41,37.94C675.07,164.55,674.94,141.18,674.93,117.43Z" transform="translate(-539.74 -57.25)"/><path class="cls-5" d="M613.63,203.39c-1.13-.73-2.51-1.56-2.57-2.49a76.9,76.9,0,0,1,0-10.84c.07-1,1.22-2.08,2.15-2.72.31-.21,2.19.89,2.16,1.31A140.7,140.7,0,0,1,613.63,203.39Z" transform="translate(-539.74 -57.25)"/><path class="cls-13" d="M967.33,394.26c-21.54,0-42.67-.1-63.81-.17-2.5,0-5-.06-7.94-.19a11.58,11.58,0,0,1,3.84-.85c23.64,0,47.29,0,71.43,0A18,18,0,0,1,967.33,394.26Z" transform="translate(-539.74 -57.25)"/><path class="cls-5" d="M656.54,175.46c-1.09,1-2.91,2.62-3.44,2.27a64.18,64.18,0,0,1-8.41-6.87c-.44-.41-.13-2.41.46-2.89a3.15,3.15,0,0,1,3,0A109.88,109.88,0,0,1,656.54,175.46Z" transform="translate(-539.74 -57.25)"/><path class="cls-14" d="M821.54,501.57c0-.56.4-1.08,1.58-1.6l7.69,0c12.14,0,12.14,0,12.27-11.86l1.66-.09c0,15.68,2,13.39-13.76,13.58C828,501.67,825,501.62,821.54,501.57Z" transform="translate(-539.74 -57.25)"/><path class="cls-5" d="M637.11,195a137.35,137.35,0,0,1-7.51-11.59,2.24,2.24,0,0,1,.86-2c.78-.36,2.51-.45,2.7-.08,2,4.08,3.89,8.25,5.68,12.45C638.92,194,638,194.6,637.11,195Z" transform="translate(-539.74 -57.25)"/><path class="cls-8" d="M798.94,255.59a2.39,2.39,0,0,1-1.92-.17c3.73-5.25,7.59-10.26,11.81-15.28C805.83,245.19,802.47,250.24,798.94,255.59Z" transform="translate(-539.74 -57.25)"/><path class="cls-12" d="M677.71,203.4c1.76,5.84,3.48,12,5.14,18.7C681.08,216.28,679.38,210,677.71,203.4Z" transform="translate(-539.74 -57.25)"/><path class="cls-8" d="M829.47,462c-.47-.16-.48-.33-.48-.74,10-.27,20-.28,30.47-.15-6.75.39-13.93.66-21.12.86C835.54,462.05,832.74,462,829.47,462Z" transform="translate(-539.74 -57.25)"/><path class="cls-12" d="M675.58,190.43a84,84,0,0,1,1.82,10.26A82.15,82.15,0,0,1,675.58,190.43Z" transform="translate(-539.74 -57.25)"/><path class="cls-11" d="M836.34,412.39c-.28-3.15-.32-6.41-.38-10.15.44,2.71.88,5.91,1.21,9.49A1.3,1.3,0,0,1,836.34,412.39Z" transform="translate(-539.74 -57.25)"/><path class="cls-8" d="M809.44,240a30.45,30.45,0,0,1,2.49-6.74A30.45,30.45,0,0,1,809.44,240Z" transform="translate(-539.74 -57.25)"/><path class="cls-15" d="M612,155.11c-1.68-.59-3.32-1.24-5-1.89l.56-1.26c1.41.79,2.82,1.59,4.41,2.68C612.16,154.93,612,155,612,155.11Z" transform="translate(-539.74 -57.25)"/><path class="cls-16" d="M671,501.35a2.35,2.35,0,0,1,1.73,0A2.3,2.3,0,0,1,671,501.35Z" transform="translate(-539.74 -57.25)"/><path class="cls-17" d="M884.21,372.12a2.41,2.41,0,0,1,.2-1.24,3.36,3.36,0,0,1,.51,1.06C884.91,372.2,884.42,372.26,884.21,372.12Z" transform="translate(-539.74 -57.25)"/><path class="cls-7" d="M793.75,642.69c-.24.1-.42-.07-.52-.54C793.46,642.08,793.63,642.26,793.75,642.69Z" transform="translate(-539.74 -57.25)"/><path class="cls-16" d="M669,500.28c.27-.21.54-.07.86.38C669.68,500.76,669.38,500.65,669,500.28Z" transform="translate(-539.74 -57.25)"/><path class="cls-18" d="M550,446V430.38h50.66c.14,1.68.35,3.12.35,4.57,0,27-.07,53.95.11,80.93,0,4.21-1.23,5.34-5.34,5.28-15-.23-29.94-.09-45.78-.09Z" transform="translate(-539.74 -57.25)"/><path class="cls-19" d="M901,496V430.4h50.65v90.26H901Z" transform="translate(-539.74 -57.25)"/><path class="cls-14" d="M811.93,431.5c-36.87.45-73.87.47-110.88.48a7.86,7.86,0,0,1-2.73-.63c12.18-.38,24.65-.56,37.12-.54C760.89,430.84,786.34,431,811.93,431.5Z" transform="translate(-539.74 -57.25)"/><path class="cls-14" d="M813.61,432.5c-.43.29-.83.12-1.41-.33A1.11,1.11,0,0,1,813.61,432.5Z" transform="translate(-539.74 -57.25)"/><path class="cls-20" d="M733,341.09c4.74-4.12,9.15-8.6,16.35-8.17s13.79,4.65,16.15,11.19c2.58,7.14.5,15.28-5.07,19.84a17.7,17.7,0,0,1-20.5,1.42c-5.81-3.55-8.27-8.8-8-16.31C732.31,345.84,732.67,343.46,733,341.09Z" transform="translate(-539.74 -57.25)"/><path class="cls-14" d="M768.84,291.05a38.12,38.12,0,0,1-6.71.91c-10.47,0-21-.15-31.71-.52-.3-.28-.2-.56.14-.55l38.47-.11S768.8,290.92,768.84,291.05Z" transform="translate(-539.74 -57.25)"/><path class="cls-21" d="M732.46,223.94c-16.13-6.26-27.72-17.14-32.58-33.94a101.36,101.36,0,0,1-3.49-23.09c-.46-9.28.36-18.62.44-27.93,0-5,2.64-7.38,7.28-7.71,13.1-.91,25.38-5.05,37.61-9.4,9-3.18,16.52-7.89,19.67-18.8,5.37,14.78,15.91,23.06,28.64,29.34,6.74,3.32,11.76,8.62,13.79,15.13,2.62-.79,5.34-2.55,7.13-1.86,1.46.56,2.57,4.08,2.48,6.23a85.16,85.16,0,0,1-2,16.24c-.8,3.41-2.43,7-7.19,7.22-.73,0-1.72,2-2,3.22-4.9,21.73-17.92,36.27-39.42,44.19-6,.89-11.32,1.91-16.65,2.12-4.55.17-9.13-.61-13.7-1m-3.15-57.22a6.62,6.62,0,0,0,.79-1.18,1.28,1.28,0,0,1,.77-.6c4-3.19,7.24-7,7.34-12.39.07-3.58,1.7-5.51,5.55-6.65,4.65.07,6.63,2.43,7.9,7,1.1,4,4.17,7.39,6.79,11.6,7.16,5.32,14.9,6,23,2.49a17.83,17.83,0,0,0,10.83-19.71c-1.49-7.85-8.43-13.87-17.39-15-11.27-1.14-19.05,3.67-22.77,12.49-4.08,0-7.3,0-11.21,0-2.4,1.78-3,.33-4.09-1.75-5.34-10.45-18.94-14.17-29.65-8.32-10.18,5.57-12.49,15.87-5.87,27.53a4.66,4.66,0,0,0,1.35.71,1.18,1.18,0,0,1,.48.88c2.32,3,4.28,6.69,9.76,4.73a3.13,3.13,0,0,1,1.46,1.11c1.46,2.92,8.73,6,10.2,4.08,1.68-2.13,2.73-4.74,4.19-7.11,0,0,.07.11.61,0m27.59,28.49h-27a18,18,0,0,0,28.7,2.64C758.91,197.47,758,196.1,756.9,195.21Z" transform="translate(-539.74 -57.25)"/><path class="cls-22" d="M769.07,290.41c-12.75.4-25.46.44-38.63.39-4.39-14.09-8.33-28.1-12.34-42.5A117.34,117.34,0,0,1,732,240.92a35.23,35.23,0,0,1,4.83,6.63c3.92,6.8,7.76,13.64,12.16,21.38,1.61-3.08,2.63-4.94,3.57-6.84,3.82-7.7,7.62-15.41,11.79-23,4.56,2,8.77,3.85,13,5.74C776.09,260.16,774.41,275.43,769.07,290.41Z" transform="translate(-539.74 -57.25)"/><path class="cls-1" d="M764,239q-5.72,11.55-11.43,23.11c-.94,1.9-2,3.76-3.57,6.84-4.4-7.74-8.24-14.58-12.16-21.38a73.16,73.16,0,0,0-4.49-6.76,89.76,89.76,0,0,1,.43-14.22c10.18,3.15,19.9,6.89,30.55,6.59,0,0,.25,0,.31.36C763.75,235.6,763.85,237.29,764,239Z" transform="translate(-539.74 -57.25)"/><path class="cls-23" d="M763.38,232.75c-10.75.71-20.47-3-30.57-6.62a2.71,2.71,0,0,1-.41-1.84c4.63,0,9.21.78,13.76.61,5.33-.21,10.64-1.23,16.36-1.91A58.78,58.78,0,0,1,763.38,232.75Z" transform="translate(-539.74 -57.25)"/><path class="cls-8" d="M764.31,239.06a22.62,22.62,0,0,1-.59-5.57c1.79,4.32,5.85,6,10.13,7.57,2.07.78,3.85,2.31,5.92,3.81a5.24,5.24,0,0,1-2.16-.08C773.08,242.91,768.87,241,764.31,239.06Z" transform="translate(-539.74 -57.25)"/><path class="cls-8" d="M785,247.64a19.72,19.72,0,0,1-4.92-2.22A20.82,20.82,0,0,1,785,247.64Z" transform="translate(-539.74 -57.25)"/><path class="cls-8" d="M789,250.06a2.13,2.13,0,0,1-1.41-.59A2.19,2.19,0,0,1,789,250.06Z" transform="translate(-539.74 -57.25)"/><path class="cls-8" d="M786.86,248.84c-.21.12-.58,0-1.12-.4C786,248.32,786.32,248.45,786.86,248.84Z" transform="translate(-539.74 -57.25)"/><path class="cls-8" d="M796.79,254.88c-.23.13-.59,0-1.11-.43C795.91,254.33,796.28,254.47,796.79,254.88Z" transform="translate(-539.74 -57.25)"/><path class="cls-8" d="M794.86,253.76c-.19.11-.54,0-1-.38C794,253.26,794.37,253.39,794.86,253.76Z" transform="translate(-539.74 -57.25)"/><path class="cls-8" d="M791.83,251.8c-.21.12-.57,0-1.1-.38C790.93,251.3,791.3,251.42,791.83,251.8Z" transform="translate(-539.74 -57.25)"/><path class="cls-9" d="M751,516.46a29.42,29.42,0,0,1,1.83,4.52c2.63-1.66,6.82,3.45,8.77-2.67a108,108,0,0,1,1.07,14.61c-.36,20.32-.36,39.88-.36,59.63H751v-5.88c0-18.8,0-37.59,0-56.39a34.08,34.08,0,0,0-.84-5.23C750.38,522.32,750.65,519.59,751,516.46Z" transform="translate(-539.74 -57.25)"/><path class="cls-24" d="M762.08,643.78a112.43,112.43,0,0,1-11.47,0c-.44-11.71-.44-23-.44-34.75H743c.34-4.4.69-8.8,1.46-13.63a21.08,21.08,0,0,1,5.35-1.41c4.68,0,8.93,0,13.51.16,2,.36,3.72.56,5.41.76a127.13,127.13,0,0,1,.72,13.67,44.09,44.09,0,0,1-7.41.41Z" transform="translate(-539.74 -57.25)"/><path class="cls-25" d="M742.87,609.4a44.21,44.21,0,0,1,7.3-.37c0,11.73,0,23,.06,34.84-1.63,2.79-3.32,5.09-5.14,7.71a.73.73,0,0,1-.84.33c-4.47-9.16-3.45-18.81-3.1-28.33C741.33,619,742.17,614.37,742.87,609.4Z" transform="translate(-539.74 -57.25)"/><path class="cls-26" d="M763,594a114.06,114.06,0,0,1-13.14-.46c-.46-16.41-.5-32.3-.38-48.56,0-3.44-.19-6.5-.37-9.57.27-3.19.54-6.39.9-10a18.65,18.65,0,0,1,.93,4.84c.06,18.8,0,37.59,0,56.39v5.88h11.31c0-19.75,0-39.31.27-59.18.31-.12.36.07.46,1C763.07,554.71,763,574.36,763,594Z" transform="translate(-539.74 -57.25)"/><path class="cls-25" d="M749.33,545.36c0,15.88.09,31.77.11,48.11a16.16,16.16,0,0,1-4.89,1.49c.78-14.1,1.94-28.19,3.09-42.29a57.55,57.55,0,0,1,1-7.83A1.32,1.32,0,0,1,749.33,545.36Z" transform="translate(-539.74 -57.25)"/><path class="cls-24" d="M749.5,545c-.28.22-.4.06-.59-.38,0-2.91.08-5.55.19-8.69C749.31,538.48,749.49,541.54,749.5,545Z" transform="translate(-539.74 -57.25)"/><path class="cls-25" d="M762.34,644c-.26-11.63-.26-23-.26-35h7.38c1.15,10.51,2,21,2.44,31.5.1,2.28-1.28,4.61-1.86,7.34A3.85,3.85,0,0,1,767.5,649C765.65,647.3,764.13,645.75,762.34,644Z" transform="translate(-539.74 -57.25)"/><path class="cls-27" d="M763.36,594.15c-.32-19.79-.29-39.44-.21-59.53a30.32,30.32,0,0,1,1.66,6.69c1.43,17.58,2.73,35.18,4,53.18A17.86,17.86,0,0,1,763.36,594.15Z" transform="translate(-539.74 -57.25)"/><path d="M815.62,436a65.46,65.46,0,0,1-.39,6.58,49.25,49.25,0,0,0,.44,5.72l-5-3.68c-1.58,2.48-3,4.78-4.67,7.41a85.62,85.62,0,0,1-9.58-1,108.51,108.51,0,0,1,7.66-8.82c1.25-1.31,3-2.27,3.89-3.77C809.76,435.26,811.93,434.15,815.62,436Z" transform="translate(-539.74 -57.25)"/><path class="cls-3" d="M832.63,294.92c-.37,0-.5-.29-.42-.88C832.44,294.1,832.58,294.39,832.63,294.92Z" transform="translate(-539.74 -57.25)"/><path class="cls-28" d="M578.31,387.16c-9.52-33.51-18.7-66.87-27.86-100.23-1.84-6.69-3.61-13.41-5.42-20.5a52.77,52.77,0,0,1,7.58-1.46,114.5,114.5,0,0,1,6.14,14.94q12.59,41.65,24.87,83.42c2.26,7.62,4.37,15.29,6.64,23.34A82.55,82.55,0,0,1,578.31,387.16Z" transform="translate(-539.74 -57.25)"/><path class="cls-12" d="M842.61,488.08C843,500,843,500,830.81,500c-2.31,0-4.62,0-7.41-.07a81,81,0,0,1,4.33-11.77C832.71,488,837.43,488,842.61,488.08Z" transform="translate(-539.74 -57.25)"/><path class="cls-29" d="M712.24,168.52c-4.87,2-6.83-1.66-8.87-5.13a10.71,10.71,0,0,0-1.44-4.21c-3.66-5.55-3.95-11.25-.3-16.76,4.6-6.93,11.47-9.34,19.46-8.2,7.06,1,12.35,4.85,14.76,11.71,2.73,7.77-1,13.41-7.17,18.21-5.71,1.3-11.07,2.5-16.53,3.71-.08-.58,0,.05.09.67m4.54-12.47c1.71-1.12,4.5-2,4.87-3.43.53-2.05-.4-4.74-1.46-6.75-.36-.67-3.07-.09-4.7-.08C716.41,149.06,711.47,152.65,716.78,156.05Z" transform="translate(-539.74 -57.25)"/><path class="cls-30" d="M729,164c5.85-4.69,9.55-10.33,6.82-18.1-2.41-6.86-7.7-10.71-14.76-11.71-8-1.14-14.86,1.27-19.46,8.2-3.65,5.51-3.36,11.21.3,16.76a10.2,10.2,0,0,1,1.39,3.87c-.33.15-.71-.06-1-.35-.61-.52-.9-.75-1.2-1-6.45-11.09-4.14-21.39,6-27,10.71-5.85,24.31-2.13,29.65,8.32,1.06,2.08,1.69,3.53,4.71,1.85a3.92,3.92,0,0,1,1.47.93c-3.05,1.19-4.68,3.12-4.75,6.7-.1,5.36-3.3,9.2-7.91,12.38A2.46,2.46,0,0,1,729,164Z" transform="translate(-539.74 -57.25)"/><path class="cls-30" d="M775.57,132.8a18.24,18.24,0,0,1,16.67,14.46A17.83,17.83,0,0,1,781.41,167c-8.06,3.47-15.8,2.83-23-3a1.16,1.16,0,0,1,1.17-1c3.17,1.35,5.92,3.21,8.89,3.71,11,1.85,21.17-5,22.3-14.64,1-9-6.58-16.77-17.49-18.44A11.71,11.71,0,0,1,775.57,132.8Z" transform="translate(-539.74 -57.25)"/><path class="cls-12" d="M759.22,162.89a5.52,5.52,0,0,0-1.06.81c-2.33-3.43-5.4-6.85-6.5-10.82-1.27-4.55-3.25-6.91-8.3-7a7.74,7.74,0,0,1-1.52-1c2.94-.13,6.16-.13,10.24-.13,3.72-8.82,11.5-13.63,23.13-12.24-.33.45-1,.64-2.38,1.16-8.8.41-15.2,3.62-18.48,11.31C751.35,152,754.17,157.86,759.22,162.89Z" transform="translate(-539.74 -57.25)"/><path class="cls-29" d="M728.57,166.65c-1.33,2.4-2.38,5-4.06,7.14-1.47,1.88-8.74-1.16-9.91-4.43C719.45,168.23,724,167.44,728.57,166.65Z" transform="translate(-539.74 -57.25)"/><path class="cls-31" d="M728.63,166.67c-4.62.77-9.18,1.56-14.18,2.36a14.66,14.66,0,0,1-1.9-.47c-.39-.66-.48-1.29-.4-.71,5.46-1.21,10.82-2.41,16.53-3.71a3.42,3.42,0,0,1,1.31.91c.26.12.11.49-.22.73a9.85,9.85,0,0,0-1,1S728.7,166.68,728.63,166.67Z" transform="translate(-539.74 -57.25)"/><path class="cls-29" d="M701.17,162c.22,0,.51.19.91.69C701.87,162.72,701.56,162.5,701.17,162Z" transform="translate(-539.74 -57.25)"/><path class="cls-29" d="M729,166.75c0-.22.18-.48.67-.79C729.75,166.18,729.53,166.45,729,166.75Z" transform="translate(-539.74 -57.25)"/><path class="cls-26" d="M716.41,155.88c-4.94-3.23,0-6.82-.92-10.09,1.63,0,4.34-.59,4.7.08,1.06,2,2,4.7,1.46,6.75C721.28,154.08,718.49,154.93,716.41,155.88Z" transform="translate(-539.74 -57.25)"/><path class="cls-29" d="M759.55,163c-5.38-5.15-8.2-11-5.2-18,3.28-7.69,9.68-10.9,18.24-11,11.57,1.34,19.2,9.16,18.15,18.11-1.13,9.63-11.28,16.49-22.3,14.64-3-.5-5.72-2.36-8.89-3.71m16.56-11.69c-.43-1.7-.31-4.18-1.4-5-3.5-2.52-5.09-2.87-5.66,3.08-.28,2.93-.84,5.09,1.42,6.3C773.58,157.4,775.2,155,776.11,151.32Z" transform="translate(-539.74 -57.25)"/><path class="cls-26" d="M776.08,151.74c-.88,3.22-2.5,5.66-5.61,4-2.26-1.21-1.7-3.37-1.42-6.3.57-6,2.16-5.6,5.66-3.08C775.8,147.14,775.68,149.62,776.08,151.74Z" transform="translate(-539.74 -57.25)"/><rect x="136.5" y="275.64" width="56.55" height="56.55"/></svg>