<svg xmlns="http://www.w3.org/2000/svg" viewBox="0 0 360.26 359.51"><defs><style>.cls-1{fill:#e58989;}.cls-2{fill:#b24b4b;}.cls-3{fill:#00af75;}.cls-4{fill:#00b277;}.cls-5{fill:#00a06b;}.cls-6{fill:#009463;}</style></defs><g id="Layer_2" data-name="Layer 2"><g id="Layer_1-2" data-name="Layer 1"><path class="cls-1" d="M234.11,83.86h11.77c0,7.09.62,14.09-.15,20.93-1,8.75-8.6,15-17.42,15q-48.19.12-96.38,0a17.81,17.81,0,0,1-17.83-17.9c-.09-5.85,0-11.7,0-17.85h12V79.77q0-30.13,0-60.27C126.1,7.37,133.52,0,145.75,0q34.5,0,69,0c11.91,0,19.34,7.48,19.35,19.44C234.12,40.78,234.11,62.1,234.11,83.86ZM189.83,96H126.09c0,2.12-.07,3.86,0,5.58.18,4,2.38,6.27,6.39,6.28,12.61,0,25.22-.08,37.83-.13,19.23,0,38.46.15,57.7.12,3.59,0,5.81-2.31,6-5.84.13-1.94,0-3.9,0-6Zm32.11-28.57q.08-23.58.16-47.15c0-6.39-1.85-8.24-8.23-8.24H146.38c-6.44,0-8.29,1.83-8.29,8.17q0,30.14,0,60.26c0,1.08.12,2.16.19,3.3h83.66Z"/><path class="cls-1" d="M300,185.87V173.4c-17.73-2.29-30.14-12.82-39.95-26.82-6.75-9.65-8.71-20.73-7.84-32.35,19-2.17,37.45,5.14,53.86,29.48C319,124.79,335.23,112,359.67,114c4.72,25.91-19.57,55.78-47.35,59.51V185.6h35.61v12h-6.45c-1.3,10.22-2.68,20.18-3.8,30.17-1.26,11.33-8.25,17.85-19.56,17.88-8.25,0-16.5,0-24.75,0-10.18-.06-17.47-6.65-18.7-16.75-1.25-10.27-2.53-20.53-3.83-31h-6.51v-12Zm9.06,47.62c3.35.06,6.69.16,10,.15,3.66,0,5.84-2,6.38-5.49.57-3.66.82-7.36,1.2-11,.89-6.36,1.77-12.72,2.68-19.24H283c1.27,10.28,2.43,20.4,3.82,30.49.46,3.35,2.74,5.26,6.23,5.27C298.37,233.64,303.73,233.54,309.09,233.49Zm4.12-72.81c14-.86,34.08-21,33.7-33.91C332,128.72,314,146.86,313.21,160.68Zm-48.12-34c.6,14.61,23.28,35.2,34.15,33.73C298.09,146.76,278.51,127.55,265.09,126.71Z"/><path class="cls-1" d="M251.46,311.62c0,8.12.88,16.06-.2,23.73-1.92,13.6-14.23,23.92-28,24-28.74.22-57.49.16-86.24,0-8.38-.05-15.34-3.76-21.2-9.73a7.4,7.4,0,0,0-4.68-2.06c-17.13-.15-34.25,0-51.38-.14a17.87,17.87,0,0,1-6.23-34.55A18.94,18.94,0,0,1,60,311.6q95.43-.11,190.87-.05A4.53,4.53,0,0,1,251.46,311.62Zm-41.39,35.7c3.48.06,7,.16,10.43.16,13.6,0,21.94-10.38,19.12-23.83-.46,0-1-.12-1.44-.12-1.11,0-2.23.07-3.35.1-.62,0-1.24-.1-1.86-.1H122.51c-.72,0-1.43.08-2.33.14a75.64,75.64,0,0,0,0,8c1,8.56,8.24,15.67,16.84,15.72C161.4,347.54,185.74,347.37,210.07,347.32Zm-101.92-23.8c-15.87,0-31.11,0-46.35,0-5,0-7.79,2.24-7.71,6.11s2.79,5.85,7.59,5.86q21.95,0,43.89,0c1,0,1.94-.13,2.58-.17Z"/><path class="cls-1" d="M78.05,161.49c-1.41-16,7.4-24,24-24,16.42,0,25.11,7.63,24.18,24.48-.74,13.43-.13,26.94-.15,40.41,0,11.89-7.5,19.28-19.47,19.32-3.38,0-6.75,0-10.13,0-10.68-.14-18.29-7.8-18.41-18.51,0-1.71,0-3.43,0-5.29h-30c0,2.07,0,4,0,6a18,18,0,0,1-17.61,17.77c-4.24.12-8.5.11-12.74,0A17.85,17.85,0,0,1,.09,203.89q-.18-24.13,0-48.28A17.86,17.86,0,0,1,18,137.81c3.88-.06,7.75-.05,11.63,0,10.67.12,18.27,7.77,18.4,18.5,0,1.72,0,3.43,0,5.18Zm35.87,39.93c0-15.1.15-30.2.12-45.3,0-3.83-2.27-6.16-6-6.3-4-.14-8-.14-12,0-3.58.13-5.93,2.38-5.95,5.94q-.14,24,0,47.93c0,3.57,2.36,5.82,5.93,5.95,3.24.13,6.5-.06,9.75-.11C112.08,209.93,114.32,207.69,113.92,201.42Zm-78,0c.05-15.1.15-30.2.12-45.3,0-3.83-2.27-6.16-6-6.3-4-.14-8-.14-12,0-3.57.13-5.92,2.38-5.94,5.94q-.13,24,0,47.93c0,3.57,2.35,5.82,5.92,5.95,3.25.13,6.5-.06,9.75-.11C34.06,209.93,36.3,207.69,35.9,201.42Zm41.87-15.81V174H48.35v11.64Z"/><path class="cls-1" d="M202.75,263.63a19.4,19.4,0,0,1,5.72-12.85c6.24-6.28,12.45-12.61,18.82-18.76,7.47-7.22,18.09-7.22,25.57-.08,4.06,3.87,8,7.89,11.93,11.89a17.58,17.58,0,0,1,5.25,15c-.74,6,1.52,10.08,5.83,14.21,14.57,14,28.78,28.4,43,42.77,10.22,10.33,6.72,26.81-6.61,31.32-7.75,2.63-14.46.54-20.17-5.16-15.27-15.26-30.59-30.47-45.78-45.81a7.54,7.54,0,0,0-6.52-2.63,36.72,36.72,0,0,1-7.11,0c-2.32-.25-5-.38-6.83-1.57a68.74,68.74,0,0,1-21-20.87C203.52,269,203.42,266.13,202.75,263.63ZM295,309.14c-9-9-17.48-18.56-27-26.9-7.57-6.61-11.7-13.74-9.84-23.81a2.19,2.19,0,0,0,0-1.11c-.69-1.8-1-3.93-2.25-5.29-3.48-3.9-7.28-7.53-11.05-11.16-3.06-3-6.25-3-9.25-.07q-9.24,9-18.28,18.25c-2.93,3-2.81,6.12.08,9.23a35.07,35.07,0,0,1,3.14,3.2c6.07,8.56,14.25,11.89,24.57,10.1,2.58-.45,4.38.68,6.2,2.51,11.43,11.49,23,22.87,34.49,34.28,5.17,5.24,10.28,10.54,15.55,15.69,2.92,2.85,6.71,2.83,9.42.28s2.93-6.64,0-9.66C305.53,319.41,300.22,314.31,295,309.14Z"/><path class="cls-1" d="M144.09,179.5a48,48,0,0,1,48.41-47.69c26.4.07,47.79,21.88,47.61,48.52-.19,26-21.93,47.41-48.06,47.34A48,48,0,0,1,144.09,179.5Zm41.23,35.29C208.91,221,233.4,196.52,227.21,173c-3.25-22.89-30-36.06-51.36-25.3-13.63,6.86-21.8,22.38-19.42,36.87C159,200.46,170.76,212.73,185.32,214.79Z"/><path class="cls-2" d="M111.57,26.42c1.74,3.82,3.27,7.2,5,10.93q-60,28.17-83.65,90.41l-11.35-4C38.36,79.15,68.18,46.89,111.57,26.42Z"/><path class="cls-2" d="M70.25,290.33l-8.87,8.11a167.6,167.6,0,0,1-39.77-62.77l11.31-4A158.39,158.39,0,0,0,70.25,290.33Z"/><path class="cls-2" d="M299.13,61.37l-8.5,8.47a157.66,157.66,0,0,0-47-32.41c1.69-3.75,3.24-7.21,4.9-10.91A165.3,165.3,0,0,1,299.13,61.37Z"/><path class="cls-2" d="M346.29,86.28l-11.07-4.89,13.37-30,11.06,4.89Z"/><path class="cls-2" d="M329.67,56.24l-13.37,30L305.22,81.4c4.44-10,8.8-19.79,13.34-30Z"/><path class="cls-2" d="M311,285.64l-9.38-7.57,15.6-23.19,10.56,5.82Z"/><path class="cls-2" d="M329.9,93.26,341,98.17l-5.37,12.07-11-4.9Z"/><path class="cls-2" d="M305.63,110.27l-11.05-4.93,5.32-12L311,98.16C309.17,102.26,307.48,106.07,305.63,110.27Z"/><path class="cls-1" d="M161.88,257.53H150.3V245.85h11.58Z"/><path class="cls-1" d="M120,251.83v11.58H108.28V251.83Z"/><path class="cls-1" d="M185.83,269.47H174.36V257.89h11.47Z"/><path class="cls-1" d="M143.93,275.44H132.24V263.76h11.69Z"/><path class="cls-1" d="M161.83,293.44H150.35v-11.6h11.48Z"/><path class="cls-1" d="M125.8,299.41H114.23V287.73H125.8Z"/><path class="cls-1" d="M197.82,299.41H186.25V287.73h11.57Z"/><path class="cls-2" d="M207.82,83.72H138.28c-.07-1.14-.19-2.22-.19-3.3q0-30.12,0-60.26c0-6.34,1.85-8.17,8.29-8.17h67.49c6.38,0,8.24,1.85,8.23,8.24q-.06,23.57-.16,47.15c-2.05,2.23-4.15,4.41-6.12,6.7C213.1,77.25,210.48,80.51,207.82,83.72ZM156.09,48.5c0,4.11,0,8.23,0,12.34,0,4.9,1.95,8.72,6.26,11.11s8.65,2,12.73-.7c6.25-4.11,12.54-8.16,18.66-12.46,7.48-5.25,7.51-14.83.05-20.08q-9.33-6.55-19-12.62c-8.48-5.33-18.47.11-18.69,10.08C156,40.28,156.09,44.39,156.09,48.5Z"/><path class="cls-2" d="M170.32,107.68c-12.61,0-25.22.16-37.83.13-4,0-6.21-2.32-6.39-6.28-.08-1.72,0-3.46,0-5.58h63.74c-.44.69-.72,1.69-1.36,2-4.49,2.39-9.06,4.62-13.58,7C173.32,105.77,171.84,106.77,170.32,107.68Z"/><path class="cls-2" d="M170.32,107.68c1.52-.91,3-1.91,4.57-2.73,4.52-2.35,9.09-4.58,13.58-7,.64-.34.92-1.34,1.36-2h44.26c0,2.11.1,4.07,0,6-.23,3.53-2.45,5.83-6,5.84C208.78,107.83,189.55,107.73,170.32,107.68Z"/><path class="cls-2" d="M207.82,83.72c2.66-3.21,5.28-6.47,8-9.64,2-2.29,4.07-4.47,6.12-6.7V83.72Z"/><path class="cls-2" d="M309.09,233.49c-5.36,0-10.72.15-16.08.14-3.49,0-5.77-1.92-6.23-5.27-1.39-10.09-2.55-20.21-3.82-30.49h46.42c-.91,6.52-1.79,12.88-2.68,19.24q-8.65,7.66-17.28,15.34C309.18,232.66,309.19,233.14,309.09,233.49Z"/><path class="cls-3" d="M313.21,160.68c.8-13.82,18.83-32,33.7-33.91C347.29,139.64,327.23,159.82,313.21,160.68Z"/><path class="cls-3" d="M265.09,126.71c13.42.84,33,20,34.15,33.73C288.37,161.91,265.69,141.32,265.09,126.71Z"/><path class="cls-2" d="M309.09,233.49c.1-.35.09-.83.33-1q8.61-7.69,17.28-15.34c-.38,3.68-.63,7.38-1.2,11-.54,3.5-2.72,5.48-6.38,5.49C315.78,233.65,312.44,233.55,309.09,233.49Z"/><path class="cls-2" d="M210.07,347.32c-24.33.05-48.67.22-73,.06-8.6-.05-15.88-7.16-16.84-15.72a75.64,75.64,0,0,1,0-8c.9-.06,1.61-.14,2.33-.14H233c.62,0,1.24.07,1.86.1-4.79,9-12.44,15.16-20.9,20.49A36.39,36.39,0,0,0,210.07,347.32Z"/><path class="cls-2" d="M108.15,323.52v11.8c-.64,0-1.61.17-2.58.17q-21.94,0-43.89,0c-4.8,0-7.51-2.13-7.59-5.86s2.71-6.11,7.71-6.11C77,323.51,92.28,323.52,108.15,323.52Z"/><path class="cls-2" d="M210.07,347.32a36.39,36.39,0,0,1,3.86-3.2c8.46-5.33,16.11-11.45,20.9-20.49,1.12,0,2.24-.09,3.35-.1.49,0,1,.08,1.44.12,2.82,13.45-5.52,23.81-19.12,23.83C217,347.48,213.55,347.38,210.07,347.32Z"/><path class="cls-4" d="M27.78,209.53c-3.25.05-6.5.24-9.75.11-3.57-.13-5.9-2.38-5.92-5.95q-.13-24,0-47.93c0-3.56,2.37-5.81,5.94-5.94,4-.14,8-.14,12,0,3.7.14,6,2.47,6,6.3,0,15.1-.07,30.2-.12,45.3Z"/><path class="cls-4" d="M105.8,209.53c-3.25.05-6.51.24-9.75.11-3.57-.13-5.91-2.38-5.93-5.95q-.12-24,0-47.93c0-3.56,2.37-5.81,5.95-5.94,4-.14,8-.14,12,0,3.7.14,6,2.47,6,6.3,0,15.1-.07,30.2-.12,45.3Z"/><path class="cls-5" d="M77.77,185.61H48.35V174H77.77Z"/><path class="cls-6" d="M27.78,209.53l8.12-8.11C36.3,207.69,34.06,209.93,27.78,209.53Z"/><path class="cls-6" d="M105.8,209.53l8.12-8.11C114.32,207.69,112.08,209.93,105.8,209.53Z"/><path class="cls-2" d="M285.73,318.37c-11.51-11.41-23.06-22.79-34.49-34.28-1.82-1.83-3.62-3-6.2-2.51-10.32,1.79-18.5-1.54-24.57-10.1a35.07,35.07,0,0,0-3.14-3.2c-2.89-3.11-3-6.25-.08-9.23q9-9.23,18.28-18.25c3-2.93,6.19-2.88,9.25.07,3.77,3.63,7.57,7.26,11.05,11.16,1.22,1.36,1.56,3.49,2.25,5.29a2.19,2.19,0,0,1,0,1.11c-1.86,10.07,2.27,17.2,9.84,23.81,9.56,8.34,18.07,17.88,27,26.9Z"/><path class="cls-2" d="M285.73,318.37l9.25-9.23c5.24,5.17,10.55,10.27,15.7,15.54,2.95,3,2.83,7,0,9.66s-6.5,2.57-9.42-.28C296,328.91,290.9,323.61,285.73,318.37Z"/><path class="cls-2" d="M185.32,214.79c-14.56-2.06-26.28-14.33-28.89-30.25-2.38-14.49,5.79-30,19.42-36.87,21.36-10.76,48.11,2.41,51.36,25.3a12.22,12.22,0,0,0-2.09,2.37c-8.35,16.59-20.68,29.16-37.43,37.36A11.89,11.89,0,0,0,185.32,214.79Zm.77-58.89c0,6.36.14,12.45-.09,18.53a7.9,7.9,0,0,1-2,4.78c-4.54,4.78-9.34,9.31-14,13.92l8.74,8.8c6.17-6.27,12.3-12.47,18.37-18.72a3.59,3.59,0,0,0,1-2.26c.07-8.31,0-16.62,0-25Z"/><path class="cls-2" d="M185.32,214.79a11.89,11.89,0,0,1,2.37-2.09c16.75-8.2,29.08-20.77,37.43-37.36a12.22,12.22,0,0,1,2.09-2.37C233.4,196.52,208.91,221,185.32,214.79Z"/><path class="cls-1" d="M156.09,48.5c0-4.11-.08-8.22,0-12.33.22-10,10.21-15.41,18.69-10.08q9.66,6.06,19,12.62c7.46,5.25,7.43,14.83-.05,20.08-6.12,4.3-12.41,8.35-18.66,12.46-4.08,2.68-8.4,3.1-12.73.7s-6.3-6.21-6.26-11.11C156.11,56.73,156.09,52.61,156.09,48.5Zm12.17,12.89,19-12.67-19-12.63Z"/><path class="cls-1" d="M186.09,155.9h12c0,8.43,0,16.74,0,25a3.59,3.59,0,0,1-1,2.26c-6.07,6.25-12.2,12.45-18.37,18.72l-8.74-8.8c4.69-4.61,9.49-9.14,14-13.92a7.9,7.9,0,0,0,2-4.78C186.23,168.35,186.09,162.26,186.09,155.9Z"/><path class="cls-2" d="M168.26,61.39V36.09l19,12.63Z"/></g></g></svg>